G04*
G04 #@! TF.GenerationSoftware,Altium Limited,Altium Designer,18.1.9 (240)*
G04*
G04 Layer_Color=128*
%FSLAX25Y25*%
%MOIN*%
G70*
G01*
G75*
%ADD53C,0.00200*%
D53*
X383744Y389315D02*
X385319D01*
X384531Y388528D02*
Y390102D01*
X380594Y389315D02*
X382169D01*
X381382Y388528D02*
Y390102D01*
X403035Y385772D02*
X404610D01*
X403823Y384984D02*
Y386559D01*
X377839Y385772D02*
X379413D01*
X378626Y384984D02*
Y386559D01*
X376362Y381283D02*
X378921D01*
X377642Y380004D02*
Y382563D01*
X403626Y381283D02*
X405988D01*
X404807Y380102D02*
Y382465D01*
X372622Y379709D02*
X374590D01*
X373606Y378724D02*
Y380693D01*
X407858Y379709D02*
X409827D01*
X408843Y378724D02*
Y380693D01*
X387090Y389315D02*
X388665D01*
X387878Y388528D02*
Y390102D01*
X388862Y385772D02*
X390437D01*
X389650Y384984D02*
Y386559D01*
X385319Y385772D02*
X386894D01*
X386106Y384984D02*
Y386559D01*
X395555Y385772D02*
X397130D01*
X396342Y384984D02*
Y386559D01*
X392012Y385772D02*
X393587D01*
X392799Y384984D02*
Y386559D01*
X393783Y389315D02*
X395358D01*
X394571Y388528D02*
Y390102D01*
X400280Y389315D02*
X401854D01*
X401067Y388528D02*
Y390102D01*
X397130Y389315D02*
X398705D01*
X397917Y388528D02*
Y390102D01*
X414157Y388921D02*
X416126D01*
X415142Y387937D02*
Y389906D01*
X366323Y388921D02*
X368291D01*
X367307Y387937D02*
Y389906D01*
X414157Y404118D02*
X416126D01*
X415142Y403134D02*
Y405102D01*
X366323Y403724D02*
X368291D01*
X367307Y402740D02*
Y404709D01*
X470491Y410000D02*
X474391D01*
X472441Y408050D02*
Y411950D01*
X470491Y400000D02*
X474391D01*
X472441Y398050D02*
Y401950D01*
X470491Y390000D02*
X474391D01*
X472441Y388050D02*
Y391950D01*
X470491Y380000D02*
X474391D01*
X472441Y378050D02*
Y381950D01*
X440491Y380000D02*
X444391D01*
X442441Y378050D02*
Y381950D01*
X440491Y390000D02*
X444391D01*
X442441Y388050D02*
Y391950D01*
X440491Y400000D02*
X444391D01*
X442441Y398050D02*
Y401950D01*
X440491Y410000D02*
X444391D01*
X442441Y408050D02*
Y411950D01*
X482327Y409903D02*
X485673D01*
X484000Y408230D02*
Y411576D01*
X512327Y409903D02*
X515673D01*
X514000Y408230D02*
Y411576D01*
X478228Y227795D02*
X481772D01*
X480000Y226024D02*
Y229567D01*
X478228Y238000D02*
X481772D01*
X480000Y236228D02*
Y239772D01*
X478228Y247795D02*
X481772D01*
X480000Y246024D02*
Y249567D01*
X478228Y257795D02*
X481772D01*
X480000Y256024D02*
Y259567D01*
X478228Y267795D02*
X481772D01*
X480000Y266024D02*
Y269567D01*
X478228Y277795D02*
X481772D01*
X480000Y276024D02*
Y279567D01*
X478228Y287795D02*
X481772D01*
X480000Y286024D02*
Y289567D01*
X478228Y297795D02*
X481772D01*
X480000Y296024D02*
Y299567D01*
X478228Y307795D02*
X481772D01*
X480000Y306024D02*
Y309567D01*
X478228Y317795D02*
X481772D01*
X480000Y316024D02*
Y319567D01*
X478228Y327795D02*
X481772D01*
X480000Y326024D02*
Y329567D01*
X478228Y337795D02*
X481772D01*
X480000Y336024D02*
Y339567D01*
X478228Y347795D02*
X481772D01*
X480000Y346024D02*
Y349567D01*
X478228Y357795D02*
X481772D01*
X480000Y356024D02*
Y359567D01*
X418228Y357900D02*
X421772D01*
X420000Y356128D02*
Y359672D01*
X418228Y347900D02*
X421772D01*
X420000Y346128D02*
Y349672D01*
X418228Y337900D02*
X421772D01*
X420000Y336128D02*
Y339672D01*
X418228Y327900D02*
X421772D01*
X420000Y326128D02*
Y329672D01*
X418228Y317900D02*
X421772D01*
X420000Y316128D02*
Y319672D01*
X418228Y307900D02*
X421772D01*
X420000Y306128D02*
Y309672D01*
X418228Y297900D02*
X421772D01*
X420000Y296128D02*
Y299672D01*
X418228Y287900D02*
X421772D01*
X420000Y286128D02*
Y289672D01*
X418228Y277900D02*
X421772D01*
X420000Y276128D02*
Y279672D01*
X418228Y267900D02*
X421772D01*
X420000Y266128D02*
Y269672D01*
X418228Y257900D02*
X421772D01*
X420000Y256128D02*
Y259672D01*
X418228Y247900D02*
X421772D01*
X420000Y246128D02*
Y249672D01*
X418228Y237900D02*
X421772D01*
X420000Y236128D02*
Y239672D01*
X418228Y227900D02*
X421772D01*
X420000Y226128D02*
Y229672D01*
X503835Y192700D02*
X508165D01*
X506000Y190535D02*
Y194865D01*
X493835Y192700D02*
X498165D01*
X496000Y190535D02*
Y194865D01*
X455035Y192700D02*
X459365D01*
X457200Y190535D02*
Y194865D01*
X465035Y192700D02*
X469365D01*
X467200Y190535D02*
Y194865D01*
X475035Y192700D02*
X479365D01*
X477200Y190535D02*
Y194865D01*
X445035Y192700D02*
X449365D01*
X447200Y190535D02*
Y194865D01*
X435035Y192700D02*
X439365D01*
X437200Y190535D02*
Y194865D01*
X405327Y298000D02*
X408673D01*
X407000Y296327D02*
Y299673D01*
X375327Y298000D02*
X378673D01*
X377000Y296327D02*
Y299673D01*
X385425Y314461D02*
X388575D01*
X387000Y312887D02*
Y316036D01*
X375425Y314461D02*
X378575D01*
X377000Y312887D02*
Y316036D01*
X397130Y199685D02*
X398705D01*
X397917Y198898D02*
Y200472D01*
X400280Y199685D02*
X401854D01*
X401067Y198898D02*
Y200472D01*
X377839Y203228D02*
X379413D01*
X378626Y202441D02*
Y204016D01*
X403035Y203228D02*
X404610D01*
X403823Y202441D02*
Y204016D01*
X403528Y207716D02*
X406087D01*
X404807Y206437D02*
Y208996D01*
X376461Y207716D02*
X378823D01*
X377642Y206535D02*
Y208898D01*
X407858Y209291D02*
X409827D01*
X408843Y208307D02*
Y210276D01*
X372622Y209291D02*
X374591D01*
X373606Y208307D02*
Y210276D01*
X393783Y199685D02*
X395358D01*
X394571Y198898D02*
Y200472D01*
X392012Y203228D02*
X393587D01*
X392799Y202441D02*
Y204016D01*
X395555Y203228D02*
X397130D01*
X396342Y202441D02*
Y204016D01*
X385319Y203228D02*
X386894D01*
X386106Y202441D02*
Y204016D01*
X388862Y203228D02*
X390437D01*
X389650Y202441D02*
Y204016D01*
X387091Y199685D02*
X388665D01*
X387878Y198898D02*
Y200472D01*
X380594Y199685D02*
X382169D01*
X381382Y198898D02*
Y200472D01*
X383744Y199685D02*
X385319D01*
X384531Y198898D02*
Y200472D01*
X366323Y200079D02*
X368291D01*
X367307Y199094D02*
Y201063D01*
X414157Y200079D02*
X416126D01*
X415142Y199094D02*
Y201063D01*
X366323Y184882D02*
X368291D01*
X367307Y183898D02*
Y185866D01*
X414157Y185276D02*
X416126D01*
X415142Y184291D02*
Y186260D01*
X375669Y274150D02*
X378819D01*
X377244Y272575D02*
Y275724D01*
X385669Y274150D02*
X388819D01*
X387244Y272575D02*
Y275724D01*
X375327Y288000D02*
X378673D01*
X377000Y286327D02*
Y289673D01*
X405327Y288000D02*
X408673D01*
X407000Y286327D02*
Y289673D01*
X430600Y317795D02*
X433400D01*
X432000Y316395D02*
Y319195D01*
X360600Y340000D02*
X363400D01*
X362000Y338600D02*
Y341400D01*
X360600Y350000D02*
X363400D01*
X362000Y348600D02*
Y351400D01*
X358600Y194700D02*
X361400D01*
X360000Y193300D02*
Y196100D01*
X422600Y178000D02*
X425400D01*
X424000Y176600D02*
Y179400D01*
X393876Y345276D02*
X396676D01*
X395276Y343876D02*
Y346676D01*
X401419Y326000D02*
X404219D01*
X402819Y324600D02*
Y327400D01*
X494250Y246905D02*
X495750D01*
X495000Y246156D02*
Y247656D01*
X494250Y267205D02*
X495750D01*
X495000Y266455D02*
Y267955D01*
X494250Y326819D02*
X495750D01*
X495000Y326069D02*
Y327569D01*
X494250Y306906D02*
X495750D01*
X495000Y306155D02*
Y307656D01*
X494250Y287055D02*
X495750D01*
X495000Y286305D02*
Y287805D01*
X510250Y317795D02*
X511750D01*
X511000Y317045D02*
Y318545D01*
X510250Y297795D02*
X511750D01*
X511000Y297045D02*
Y298545D01*
X510250Y277795D02*
X511750D01*
X511000Y277045D02*
Y278545D01*
X510250Y237795D02*
X511750D01*
X511000Y237045D02*
Y238545D01*
X510250Y257795D02*
X511750D01*
X511000Y257045D02*
Y258545D01*
M02*
