G04*
G04 #@! TF.GenerationSoftware,Altium Limited,Altium Designer,18.1.9 (240)*
G04*
G04 Layer_Color=8421504*
%FSLAX25Y25*%
%MOIN*%
G70*
G01*
G75*
%ADD10R,0.01968X0.01181*%
%ADD11R,0.01378X0.02362*%
%ADD12R,0.02520X0.02362*%
%ADD13R,0.01850X0.01968*%
%ADD14R,0.01772X0.00945*%
%ADD15R,0.07087X0.05118*%
D10*
X387287Y378567D02*
D03*
X378626D02*
D03*
X403823D02*
D03*
X395161D02*
D03*
X395161Y210433D02*
D03*
X403823D02*
D03*
X378626D02*
D03*
X387287D02*
D03*
D11*
X402051Y381283D02*
D03*
X400083D02*
D03*
X398114D02*
D03*
X396146D02*
D03*
X394177D02*
D03*
X380398D02*
D03*
X382366D02*
D03*
X384335D02*
D03*
X386303D02*
D03*
X388272D02*
D03*
X390240D02*
D03*
X392209D02*
D03*
X380398Y207716D02*
D03*
X382366D02*
D03*
X384335D02*
D03*
X386303D02*
D03*
X388272D02*
D03*
X402051D02*
D03*
X400083D02*
D03*
X398114D02*
D03*
X396146D02*
D03*
X394177D02*
D03*
X392209D02*
D03*
X390240D02*
D03*
D12*
X367000Y360732D02*
D03*
Y357268D02*
D03*
X374000Y219268D02*
D03*
Y222732D02*
D03*
X400000Y357268D02*
D03*
Y360732D02*
D03*
X406000Y221268D02*
D03*
Y224732D02*
D03*
D13*
X498413Y326850D02*
D03*
Y317795D02*
D03*
X507823D02*
D03*
Y326850D02*
D03*
X498413Y306850D02*
D03*
Y297795D02*
D03*
X507823D02*
D03*
Y306850D02*
D03*
X498413Y286850D02*
D03*
Y277795D02*
D03*
X507823D02*
D03*
Y286850D02*
D03*
X498413Y266850D02*
D03*
Y257795D02*
D03*
X507823D02*
D03*
Y266850D02*
D03*
X498413Y246850D02*
D03*
Y237795D02*
D03*
X507823D02*
D03*
Y246850D02*
D03*
X409882Y268047D02*
D03*
Y277102D02*
D03*
X400472D02*
D03*
Y268047D02*
D03*
X412087Y338047D02*
D03*
Y347102D02*
D03*
X402677D02*
D03*
Y338047D02*
D03*
D14*
X498295Y323898D02*
D03*
Y322323D02*
D03*
Y320748D02*
D03*
X507941Y323898D02*
D03*
Y322323D02*
D03*
Y320748D02*
D03*
X498295Y303898D02*
D03*
Y302323D02*
D03*
Y300748D02*
D03*
X507941Y303898D02*
D03*
Y302323D02*
D03*
Y300748D02*
D03*
X498295Y283898D02*
D03*
Y282323D02*
D03*
Y280748D02*
D03*
X507941Y283898D02*
D03*
Y282323D02*
D03*
Y280748D02*
D03*
X498295Y263898D02*
D03*
Y262323D02*
D03*
Y260748D02*
D03*
X507941Y263898D02*
D03*
Y262323D02*
D03*
Y260748D02*
D03*
X498295Y243898D02*
D03*
Y242323D02*
D03*
Y240748D02*
D03*
X507941Y243898D02*
D03*
Y242323D02*
D03*
Y240748D02*
D03*
X410000Y271000D02*
D03*
Y272575D02*
D03*
Y274150D02*
D03*
X400354Y271000D02*
D03*
Y272575D02*
D03*
Y274150D02*
D03*
X412205Y341000D02*
D03*
Y342575D02*
D03*
Y344150D02*
D03*
X402559Y341000D02*
D03*
Y342575D02*
D03*
Y344150D02*
D03*
D15*
X384335Y220291D02*
D03*
Y231709D02*
D03*
X397130Y220291D02*
D03*
Y231709D02*
D03*
X378000Y364709D02*
D03*
Y353291D02*
D03*
X389000Y364709D02*
D03*
Y353291D02*
D03*
M02*
