G04*
G04 #@! TF.GenerationSoftware,Altium Limited,Altium Designer,18.1.9 (240)*
G04*
G04 Layer_Color=8388736*
%FSLAX25Y25*%
%MOIN*%
G70*
G01*
G75*
%ADD23R,0.01981X0.05524*%
%ADD24R,0.01587X0.04737*%
%ADD25R,0.10249X0.07099*%
%ADD26R,0.02060X0.04107*%
%ADD27R,0.03320X0.03162*%
%ADD28R,0.02650X0.02769*%
%ADD29R,0.02165X0.01339*%
%ADD30R,0.07887X0.05918*%
%ADD31C,0.03359*%
%ADD32O,0.04737X0.07099*%
%ADD33C,0.06312*%
%ADD34R,0.06706X0.06706*%
%ADD35C,0.06706*%
%ADD36O,0.07690X0.10642*%
%ADD37C,0.07099*%
%ADD38C,0.05800*%
%ADD39C,0.03300*%
D23*
X398977Y203862D02*
D03*
X397008D02*
D03*
X395040D02*
D03*
X393071D02*
D03*
X391103D02*
D03*
X389134D02*
D03*
X387166D02*
D03*
X385197D02*
D03*
X383229D02*
D03*
X381260D02*
D03*
X379292D02*
D03*
X377323D02*
D03*
X383173Y387815D02*
D03*
X385142D02*
D03*
X387110D02*
D03*
X389079D02*
D03*
X391048D02*
D03*
X393016D02*
D03*
X394985D02*
D03*
X396953D02*
D03*
X398922D02*
D03*
X400890D02*
D03*
X402859D02*
D03*
X404827D02*
D03*
D24*
X388150Y173626D02*
D03*
Y185830D02*
D03*
X394000Y418051D02*
D03*
Y405847D02*
D03*
D25*
X451000Y400000D02*
D03*
D26*
X454839Y394311D02*
D03*
X452280D02*
D03*
X449720D02*
D03*
X447161D02*
D03*
Y405689D02*
D03*
X449720D02*
D03*
X452280D02*
D03*
X454839D02*
D03*
D27*
X367000Y360732D02*
D03*
Y357268D02*
D03*
X374000Y219268D02*
D03*
Y222732D02*
D03*
X400000Y357268D02*
D03*
Y360732D02*
D03*
X406000Y221268D02*
D03*
Y224732D02*
D03*
D28*
X498413Y326850D02*
D03*
Y317795D02*
D03*
X507823D02*
D03*
Y326850D02*
D03*
X498413Y306850D02*
D03*
Y297795D02*
D03*
X507823D02*
D03*
Y306850D02*
D03*
X498413Y286850D02*
D03*
Y277795D02*
D03*
X507823D02*
D03*
Y286850D02*
D03*
X498413Y266850D02*
D03*
Y257795D02*
D03*
X507823D02*
D03*
Y266850D02*
D03*
X498413Y246850D02*
D03*
Y237795D02*
D03*
X507823D02*
D03*
Y246850D02*
D03*
X409882Y268047D02*
D03*
Y277102D02*
D03*
X400472D02*
D03*
Y268047D02*
D03*
X412087Y338047D02*
D03*
Y347102D02*
D03*
X402677D02*
D03*
Y338047D02*
D03*
D29*
X498295Y323898D02*
D03*
Y322323D02*
D03*
Y320748D02*
D03*
X507941Y323898D02*
D03*
Y322323D02*
D03*
Y320748D02*
D03*
X498295Y303898D02*
D03*
Y302323D02*
D03*
Y300748D02*
D03*
X507941Y303898D02*
D03*
Y302323D02*
D03*
Y300748D02*
D03*
X498295Y283898D02*
D03*
Y282323D02*
D03*
Y280748D02*
D03*
X507941Y283898D02*
D03*
Y282323D02*
D03*
Y280748D02*
D03*
X498295Y263898D02*
D03*
Y262323D02*
D03*
Y260748D02*
D03*
X507941Y263898D02*
D03*
Y262323D02*
D03*
Y260748D02*
D03*
X498295Y243898D02*
D03*
Y242323D02*
D03*
Y240748D02*
D03*
X507941Y243898D02*
D03*
Y242323D02*
D03*
Y240748D02*
D03*
X410000Y271000D02*
D03*
Y272575D02*
D03*
Y274150D02*
D03*
X400354Y271000D02*
D03*
Y272575D02*
D03*
Y274150D02*
D03*
X412205Y341000D02*
D03*
Y342575D02*
D03*
Y344150D02*
D03*
X402559Y341000D02*
D03*
Y342575D02*
D03*
Y344150D02*
D03*
D30*
X384335Y220291D02*
D03*
Y231709D02*
D03*
X397130Y220291D02*
D03*
Y231709D02*
D03*
X378000Y364709D02*
D03*
Y353291D02*
D03*
X389000Y364709D02*
D03*
Y353291D02*
D03*
D31*
X386575Y198941D02*
D03*
X389725D02*
D03*
X383425D02*
D03*
X392874D02*
D03*
X380276D02*
D03*
X396024D02*
D03*
X377126D02*
D03*
X399173D02*
D03*
X385000Y196185D02*
D03*
X391300D02*
D03*
X381851D02*
D03*
X394449D02*
D03*
X378701D02*
D03*
X397599D02*
D03*
X395575Y392736D02*
D03*
X392425D02*
D03*
X398725D02*
D03*
X389276D02*
D03*
X401874D02*
D03*
X386126D02*
D03*
X405024D02*
D03*
X382977D02*
D03*
X397150Y395492D02*
D03*
X390851D02*
D03*
X400300D02*
D03*
X387701D02*
D03*
X403449D02*
D03*
X384552D02*
D03*
D32*
X404961Y194413D02*
D03*
X371339D02*
D03*
X404961Y175791D02*
D03*
X371339D02*
D03*
X377189Y397264D02*
D03*
X410811D02*
D03*
X377189Y415886D02*
D03*
X410811D02*
D03*
D33*
X484000Y409903D02*
D03*
X514000D02*
D03*
X407000Y298000D02*
D03*
X377000D02*
D03*
Y288000D02*
D03*
X407000D02*
D03*
D34*
X480000Y227795D02*
D03*
X420000Y357900D02*
D03*
D35*
X480000Y238000D02*
D03*
Y247795D02*
D03*
Y257795D02*
D03*
Y267795D02*
D03*
Y277795D02*
D03*
Y287795D02*
D03*
Y297795D02*
D03*
Y307795D02*
D03*
Y317795D02*
D03*
Y327795D02*
D03*
Y337795D02*
D03*
Y347795D02*
D03*
Y357795D02*
D03*
X420000Y347900D02*
D03*
Y337900D02*
D03*
Y327900D02*
D03*
Y317900D02*
D03*
Y307900D02*
D03*
Y297900D02*
D03*
Y287900D02*
D03*
Y277900D02*
D03*
Y267900D02*
D03*
Y257900D02*
D03*
Y247900D02*
D03*
Y237900D02*
D03*
Y227900D02*
D03*
D36*
X506000Y192700D02*
D03*
X496000D02*
D03*
X457200D02*
D03*
X467200D02*
D03*
X477200D02*
D03*
X447200D02*
D03*
X437200D02*
D03*
D37*
X387000Y314461D02*
D03*
X377000D02*
D03*
X377244Y274150D02*
D03*
X387244D02*
D03*
D38*
X384276Y212000D02*
D03*
X422000Y173000D02*
D03*
X418000Y196000D02*
D03*
X514000Y424000D02*
D03*
X457283Y381283D02*
D03*
X454839Y418000D02*
D03*
X432000Y317795D02*
D03*
X362000Y340000D02*
D03*
Y350000D02*
D03*
X395276Y345276D02*
D03*
X402819Y326000D02*
D03*
D39*
X495000Y246905D02*
D03*
Y267205D02*
D03*
Y326819D02*
D03*
Y306906D02*
D03*
Y287055D02*
D03*
X511000Y317795D02*
D03*
Y297795D02*
D03*
Y277795D02*
D03*
Y237795D02*
D03*
Y257795D02*
D03*
M02*
