G04*
G04 #@! TF.GenerationSoftware,Altium Limited,Altium Designer,18.1.9 (240)*
G04*
G04 Layer_Physical_Order=2*
G04 Layer_Color=16711680*
%FSLAX25Y25*%
%MOIN*%
G70*
G01*
G75*
%ADD37C,0.00800*%
%ADD38C,0.02559*%
%ADD39O,0.04528X0.02559*%
%ADD40O,0.03347X0.02559*%
%ADD41C,0.02362*%
%ADD42O,0.03937X0.06299*%
%ADD43O,0.03937X0.10079*%
%ADD44C,0.05900*%
%ADD45R,0.05900X0.05900*%
%ADD46C,0.05512*%
%ADD47R,0.05906X0.05906*%
%ADD48C,0.05906*%
%ADD49O,0.06890X0.09843*%
%ADD50C,0.06299*%
%ADD51C,0.05000*%
%ADD52C,0.02500*%
G36*
X531000Y162000D02*
X346000D01*
Y430000D01*
X531000D01*
Y162000D01*
D02*
G37*
%LPC*%
G36*
X514000Y424816D02*
X514000Y424816D01*
X408000D01*
X408000Y424816D01*
X407688Y424754D01*
X407423Y424577D01*
X407423Y424577D01*
X400490Y417644D01*
X400313Y417379D01*
X400251Y417067D01*
X400251Y417067D01*
Y390790D01*
X399856Y390526D01*
X399742Y390355D01*
X399242D01*
X399128Y390526D01*
X398573Y390897D01*
X397917Y391027D01*
X397262Y390897D01*
X396706Y390526D01*
X396545Y390284D01*
X395943D01*
X395782Y390526D01*
X395226Y390897D01*
X394571Y391027D01*
X393916Y390897D01*
X393360Y390526D01*
X392989Y389970D01*
X392858Y389315D01*
X392989Y388660D01*
X393360Y388104D01*
X393916Y387733D01*
X394571Y387602D01*
X395226Y387733D01*
X395782Y388104D01*
X395943Y388346D01*
X396545D01*
X396706Y388104D01*
X397178Y387789D01*
X396998Y387354D01*
X396342Y387484D01*
X395687Y387354D01*
X395132Y386982D01*
X394849Y386559D01*
X394756Y386533D01*
X394386D01*
X394293Y386559D01*
X394010Y386982D01*
X393455Y387354D01*
X392799Y387484D01*
X392144Y387354D01*
X391588Y386982D01*
X391474Y386812D01*
X390974D01*
X390861Y386982D01*
X390305Y387354D01*
X389650Y387484D01*
X388994Y387354D01*
X388439Y386982D01*
X388156Y386559D01*
X388063Y386533D01*
X387692D01*
X387600Y386559D01*
X387317Y386982D01*
X386762Y387354D01*
X386106Y387484D01*
X385451Y387354D01*
X385271Y387789D01*
X385742Y388104D01*
X385904Y388346D01*
X386505D01*
X386667Y388104D01*
X387223Y387733D01*
X387878Y387602D01*
X388533Y387733D01*
X389089Y388104D01*
X389460Y388660D01*
X389590Y389315D01*
X389460Y389970D01*
X389089Y390526D01*
X388533Y390897D01*
X387878Y391027D01*
X387223Y390897D01*
X386667Y390526D01*
X386505Y390284D01*
X385904D01*
X385742Y390526D01*
X385187Y390897D01*
X384531Y391027D01*
X383876Y390897D01*
X383321Y390526D01*
X383207Y390355D01*
X382707D01*
X382593Y390526D01*
X382037Y390897D01*
X381382Y391027D01*
X380727Y390897D01*
X380171Y390526D01*
X379800Y389970D01*
X379669Y389315D01*
X379800Y388660D01*
X379871Y388554D01*
X379660Y388183D01*
X379575Y388096D01*
X379126D01*
Y386272D01*
X381835D01*
X381757Y386661D01*
X381452Y387118D01*
X381689Y387664D01*
X382037Y387733D01*
X382593Y388104D01*
X382707Y388275D01*
X383207D01*
X383321Y388104D01*
X383876Y387733D01*
X384531Y387602D01*
X385187Y387733D01*
X385367Y387298D01*
X384895Y386982D01*
X384524Y386427D01*
X384394Y385772D01*
X384524Y385116D01*
X384895Y384561D01*
X385451Y384190D01*
X386106Y384059D01*
X386762Y384190D01*
X387317Y384561D01*
X387600Y384984D01*
X387692Y385010D01*
X388063D01*
X388156Y384984D01*
X388439Y384561D01*
X388994Y384190D01*
X389650Y384059D01*
X390305Y384190D01*
X390861Y384561D01*
X390974Y384731D01*
X391474D01*
X391588Y384561D01*
X392144Y384190D01*
X392799Y384059D01*
X393455Y384190D01*
X394010Y384561D01*
X394293Y384984D01*
X394386Y385010D01*
X394756D01*
X394849Y384984D01*
X395132Y384561D01*
X395687Y384190D01*
X396342Y384059D01*
X396998Y384190D01*
X397553Y384561D01*
X397925Y385116D01*
X398055Y385772D01*
X397925Y386427D01*
X397553Y386982D01*
X397082Y387298D01*
X397262Y387733D01*
X397917Y387602D01*
X398573Y387733D01*
X399128Y388104D01*
X399242Y388275D01*
X399742D01*
X399856Y388104D01*
X400412Y387733D01*
X400760Y387664D01*
X400996Y387118D01*
X400691Y386661D01*
X400614Y386272D01*
X403323D01*
Y388096D01*
X402874D01*
X402789Y388183D01*
X402578Y388554D01*
X402649Y388660D01*
X402779Y389315D01*
X402649Y389970D01*
X402278Y390526D01*
X401883Y390790D01*
Y416729D01*
X408338Y423184D01*
X513662D01*
X519184Y417662D01*
Y381623D01*
X518722Y381431D01*
X509577Y390577D01*
X509312Y390754D01*
X509000Y390816D01*
X509000Y390816D01*
X475712D01*
X475705Y390875D01*
X475367Y391689D01*
X474830Y392389D01*
X474130Y392926D01*
X473315Y393264D01*
X472441Y393379D01*
X471566Y393264D01*
X470751Y392926D01*
X470052Y392389D01*
X469515Y391689D01*
X469177Y390875D01*
X469062Y390000D01*
X469177Y389125D01*
X469515Y388311D01*
X470052Y387611D01*
X470751Y387074D01*
X471566Y386736D01*
X472441Y386621D01*
X473315Y386736D01*
X474130Y387074D01*
X474830Y387611D01*
X475367Y388311D01*
X475705Y389125D01*
X475712Y389184D01*
X508662D01*
X519184Y378662D01*
Y195038D01*
X517662Y193516D01*
X509878D01*
Y194176D01*
X509746Y195180D01*
X509359Y196115D01*
X508742Y196919D01*
X507939Y197535D01*
X507004Y197922D01*
X506000Y198054D01*
X504996Y197922D01*
X504061Y197535D01*
X503258Y196919D01*
X502641Y196115D01*
X502254Y195180D01*
X502122Y194176D01*
Y191224D01*
X502254Y190220D01*
X502641Y189285D01*
X503258Y188481D01*
X504061Y187865D01*
X504996Y187478D01*
X506000Y187346D01*
X507004Y187478D01*
X507939Y187865D01*
X508742Y188481D01*
X509359Y189285D01*
X509746Y190220D01*
X509878Y191224D01*
Y191884D01*
X518000D01*
X518000Y191884D01*
X518312Y191946D01*
X518577Y192123D01*
X518722Y192269D01*
X519184Y192078D01*
Y181338D01*
X511662Y173816D01*
X483338D01*
X478016Y179138D01*
Y187453D01*
X478204Y187478D01*
X479139Y187865D01*
X479942Y188481D01*
X480558Y189285D01*
X480946Y190220D01*
X481078Y191224D01*
Y194176D01*
X480946Y195180D01*
X480558Y196115D01*
X479942Y196919D01*
X479139Y197535D01*
X478204Y197922D01*
X477200Y198054D01*
X476196Y197922D01*
X475261Y197535D01*
X474458Y196919D01*
X473841Y196115D01*
X473454Y195180D01*
X473322Y194176D01*
Y191224D01*
X473454Y190220D01*
X473841Y189285D01*
X474458Y188481D01*
X475261Y187865D01*
X476196Y187478D01*
X476384Y187453D01*
Y178800D01*
X476384Y178800D01*
X476446Y178488D01*
X476623Y178223D01*
X480569Y174278D01*
X480377Y173816D01*
X433338D01*
X428816Y178338D01*
Y187000D01*
X428816Y187000D01*
X428754Y187312D01*
X428577Y187577D01*
X428577Y187577D01*
X422877Y193277D01*
X422612Y193454D01*
X422300Y193516D01*
X422300Y193516D01*
X388705D01*
X384720Y197500D01*
X384885Y198043D01*
X385187Y198103D01*
X385742Y198474D01*
X385904Y198716D01*
X386505D01*
X386667Y198474D01*
X387223Y198103D01*
X387878Y197973D01*
X388533Y198103D01*
X389089Y198474D01*
X389460Y199030D01*
X389590Y199685D01*
X389460Y200340D01*
X389089Y200896D01*
X388533Y201267D01*
X387878Y201397D01*
X387223Y201267D01*
X386667Y200896D01*
X386505Y200654D01*
X385904D01*
X385742Y200896D01*
X385271Y201211D01*
X385451Y201646D01*
X386106Y201516D01*
X386762Y201646D01*
X387317Y202017D01*
X387600Y202441D01*
X387693Y202467D01*
X388063D01*
X388156Y202441D01*
X388439Y202017D01*
X388994Y201646D01*
X389650Y201516D01*
X390305Y201646D01*
X390861Y202017D01*
X390974Y202188D01*
X391474D01*
X391588Y202017D01*
X392144Y201646D01*
X392799Y201516D01*
X393455Y201646D01*
X394010Y202017D01*
X394293Y202441D01*
X394386Y202467D01*
X394756D01*
X394849Y202441D01*
X395132Y202017D01*
X395687Y201646D01*
X396342Y201516D01*
X396998Y201646D01*
X397178Y201211D01*
X396707Y200896D01*
X396545Y200654D01*
X395943D01*
X395782Y200896D01*
X395226Y201267D01*
X394571Y201397D01*
X393916Y201267D01*
X393360Y200896D01*
X392989Y200340D01*
X392859Y199685D01*
X392989Y199030D01*
X393360Y198474D01*
X393916Y198103D01*
X394571Y197973D01*
X395226Y198103D01*
X395782Y198474D01*
X395943Y198716D01*
X396545D01*
X396707Y198474D01*
X397262Y198103D01*
X397917Y197973D01*
X398573Y198103D01*
X399128Y198474D01*
X399242Y198645D01*
X399742D01*
X399856Y198474D01*
X400412Y198103D01*
X401067Y197973D01*
X401722Y198103D01*
X402278Y198474D01*
X402649Y199030D01*
X402779Y199685D01*
X402649Y200340D01*
X402578Y200446D01*
X402789Y200817D01*
X402874Y200904D01*
X403323D01*
Y202728D01*
X400614D01*
X400691Y202339D01*
X400996Y201883D01*
X400760Y201336D01*
X400412Y201267D01*
X399856Y200896D01*
X399742Y200725D01*
X399242D01*
X399128Y200896D01*
X398573Y201267D01*
X397917Y201397D01*
X397262Y201267D01*
X397082Y201702D01*
X397553Y202017D01*
X397925Y202573D01*
X398055Y203228D01*
X397925Y203884D01*
X397553Y204439D01*
X396998Y204810D01*
X396342Y204941D01*
X395687Y204810D01*
X395132Y204439D01*
X394849Y204016D01*
X394756Y203990D01*
X394386D01*
X394293Y204016D01*
X394010Y204439D01*
X393455Y204810D01*
X392799Y204941D01*
X392144Y204810D01*
X391588Y204439D01*
X391474Y204269D01*
X390974D01*
X390861Y204439D01*
X390305Y204810D01*
X389650Y204941D01*
X388994Y204810D01*
X388439Y204439D01*
X388156Y204016D01*
X388063Y203990D01*
X387693D01*
X387600Y204016D01*
X387317Y204439D01*
X386762Y204810D01*
X386106Y204941D01*
X385451Y204810D01*
X384895Y204439D01*
X384524Y203884D01*
X384394Y203228D01*
X384524Y202573D01*
X384895Y202017D01*
X385367Y201702D01*
X385187Y201267D01*
X384531Y201397D01*
X383876Y201267D01*
X383321Y200896D01*
X383207Y200725D01*
X382707D01*
X382593Y200896D01*
X382037Y201267D01*
X381689Y201336D01*
X381453Y201883D01*
X381757Y202339D01*
X381835Y202728D01*
X379126D01*
Y200904D01*
X379575D01*
X379660Y200817D01*
X379871Y200446D01*
X379800Y200340D01*
X379669Y199685D01*
X379800Y199030D01*
X380171Y198474D01*
X380727Y198103D01*
X381382Y197973D01*
X381848Y198065D01*
X387790Y192123D01*
X387790Y192123D01*
X388055Y191946D01*
X388367Y191884D01*
X421962D01*
X427184Y186662D01*
Y179197D01*
X426684Y179097D01*
X426533Y179463D01*
X426068Y180068D01*
X425462Y180533D01*
X424757Y180825D01*
X424000Y180925D01*
X423243Y180825D01*
X422538Y180533D01*
X421932Y180068D01*
X421467Y179463D01*
X421175Y178757D01*
X421075Y178000D01*
X421175Y177243D01*
X421467Y176538D01*
X421932Y175932D01*
X422538Y175467D01*
X423184Y175199D01*
Y170338D01*
X419662Y166816D01*
X367338D01*
X360816Y173338D01*
Y191899D01*
X361462Y192167D01*
X362068Y192632D01*
X362533Y193237D01*
X362825Y193943D01*
X362925Y194700D01*
X362825Y195457D01*
X362533Y196162D01*
X362068Y196768D01*
X361462Y197233D01*
X360757Y197525D01*
X360000Y197625D01*
X359243Y197525D01*
X358538Y197233D01*
X357932Y196768D01*
X357467Y196162D01*
X357175Y195457D01*
X357075Y194700D01*
X357175Y193943D01*
X357467Y193237D01*
X357932Y192632D01*
X358538Y192167D01*
X359184Y191899D01*
Y173000D01*
X359184Y173000D01*
X359246Y172688D01*
X359423Y172423D01*
X366423Y165423D01*
X366423Y165423D01*
X366688Y165246D01*
X367000Y165184D01*
X420000D01*
X420000Y165184D01*
X420312Y165246D01*
X420577Y165423D01*
X424577Y169423D01*
X424577Y169423D01*
X424754Y169688D01*
X424816Y170000D01*
Y175199D01*
X425462Y175467D01*
X426068Y175932D01*
X426533Y176538D01*
X426825Y177243D01*
X426845Y177389D01*
X427365Y177510D01*
X427423Y177423D01*
X432423Y172423D01*
X432423Y172423D01*
X432688Y172246D01*
X433000Y172184D01*
X433000Y172184D01*
X483000D01*
X483000Y172184D01*
X483000Y172184D01*
X512000D01*
X512000Y172184D01*
X512312Y172246D01*
X512577Y172423D01*
X520577Y180423D01*
X520577Y180423D01*
X520754Y180688D01*
X520816Y181000D01*
X520816Y181000D01*
Y194700D01*
X520816Y194700D01*
X520816Y194700D01*
Y379000D01*
X520816Y379000D01*
X520816Y379000D01*
Y418000D01*
X520754Y418312D01*
X520577Y418577D01*
X520577Y418577D01*
X514577Y424577D01*
X514312Y424754D01*
X514000Y424816D01*
D02*
G37*
G36*
X514500Y413626D02*
Y410403D01*
X517723D01*
X517659Y410884D01*
X517281Y411797D01*
X516679Y412582D01*
X515894Y413184D01*
X514981Y413562D01*
X514500Y413626D01*
D02*
G37*
G36*
X513500D02*
X513020Y413562D01*
X512106Y413184D01*
X511321Y412582D01*
X510719Y411797D01*
X510341Y410884D01*
X510278Y410403D01*
X513500D01*
Y413626D01*
D02*
G37*
G36*
X484000Y413086D02*
X483176Y412978D01*
X482408Y412660D01*
X481749Y412154D01*
X481243Y411495D01*
X480925Y410727D01*
X480817Y409903D01*
X480925Y409079D01*
X481243Y408312D01*
X481749Y407652D01*
X482408Y407147D01*
X483176Y406828D01*
X484000Y406720D01*
X484824Y406828D01*
X485592Y407147D01*
X486251Y407652D01*
X486757Y408312D01*
X487075Y409079D01*
X487183Y409903D01*
X487075Y410727D01*
X486757Y411495D01*
X486251Y412154D01*
X485592Y412660D01*
X484824Y412978D01*
X484000Y413086D01*
D02*
G37*
G36*
X472441Y413379D02*
X471566Y413264D01*
X470751Y412926D01*
X470052Y412389D01*
X469515Y411690D01*
X469177Y410875D01*
X469062Y410000D01*
X469177Y409126D01*
X469515Y408311D01*
X470052Y407611D01*
X470751Y407074D01*
X471566Y406736D01*
X472441Y406621D01*
X473315Y406736D01*
X474130Y407074D01*
X474830Y407611D01*
X475367Y408311D01*
X475705Y409126D01*
X475820Y410000D01*
X475705Y410875D01*
X475367Y411690D01*
X474830Y412389D01*
X474130Y412926D01*
X473315Y413264D01*
X472441Y413379D01*
D02*
G37*
G36*
X517723Y409403D02*
X514500D01*
Y406181D01*
X514981Y406244D01*
X515894Y406622D01*
X516679Y407224D01*
X517281Y408009D01*
X517659Y408923D01*
X517723Y409403D01*
D02*
G37*
G36*
X513500D02*
X510278D01*
X510341Y408923D01*
X510719Y408009D01*
X511321Y407224D01*
X512106Y406622D01*
X513020Y406244D01*
X513500Y406181D01*
Y409403D01*
D02*
G37*
G36*
X415142Y409604D02*
X414218Y409420D01*
X413434Y408897D01*
X412911Y408113D01*
X412727Y407189D01*
Y401047D01*
X412911Y400123D01*
X413434Y399340D01*
X414218Y398816D01*
X415142Y398632D01*
X416066Y398816D01*
X416849Y399340D01*
X417373Y400123D01*
X417557Y401047D01*
Y407189D01*
X417373Y408113D01*
X416849Y408897D01*
X416066Y409420D01*
X415142Y409604D01*
D02*
G37*
G36*
X367307Y409210D02*
X366383Y409026D01*
X365599Y408503D01*
X365076Y407719D01*
X364892Y406795D01*
Y400654D01*
X365076Y399729D01*
X365599Y398946D01*
X366383Y398423D01*
X367307Y398239D01*
X368231Y398423D01*
X369015Y398946D01*
X369538Y399729D01*
X369722Y400654D01*
Y406795D01*
X369538Y407719D01*
X369015Y408503D01*
X368231Y409026D01*
X367307Y409210D01*
D02*
G37*
G36*
X472441Y403379D02*
X471566Y403264D01*
X470751Y402926D01*
X470052Y402389D01*
X469515Y401689D01*
X469177Y400875D01*
X469062Y400000D01*
X469177Y399126D01*
X469515Y398310D01*
X470052Y397611D01*
X470751Y397074D01*
X471566Y396736D01*
X472441Y396621D01*
X473315Y396736D01*
X474130Y397074D01*
X474830Y397611D01*
X475367Y398310D01*
X475705Y399126D01*
X475820Y400000D01*
X475705Y400875D01*
X475367Y401689D01*
X474830Y402389D01*
X474130Y402926D01*
X473315Y403264D01*
X472441Y403379D01*
D02*
G37*
G36*
X442441D02*
X441566Y403264D01*
X440752Y402926D01*
X440052Y402389D01*
X439515Y401689D01*
X439177Y400875D01*
X439062Y400000D01*
X439177Y399126D01*
X439515Y398310D01*
X440052Y397611D01*
X440752Y397074D01*
X441566Y396736D01*
X442441Y396621D01*
X443316Y396736D01*
X444130Y397074D01*
X444830Y397611D01*
X445367Y398310D01*
X445705Y399126D01*
X445820Y400000D01*
X445705Y400875D01*
X445367Y401689D01*
X444830Y402389D01*
X444130Y402926D01*
X443316Y403264D01*
X442441Y403379D01*
D02*
G37*
G36*
Y393379D02*
X441566Y393264D01*
X440752Y392926D01*
X440052Y392389D01*
X439515Y391689D01*
X439177Y390875D01*
X439062Y390000D01*
X439177Y389125D01*
X439515Y388311D01*
X440052Y387611D01*
X440752Y387074D01*
X441566Y386736D01*
X442441Y386621D01*
X443316Y386736D01*
X444130Y387074D01*
X444830Y387611D01*
X445367Y388311D01*
X445705Y389125D01*
X445820Y390000D01*
X445705Y390875D01*
X445367Y391689D01*
X444830Y392389D01*
X444130Y392926D01*
X443316Y393264D01*
X442441Y393379D01*
D02*
G37*
G36*
X378126Y388096D02*
X377642D01*
X376752Y387919D01*
X375998Y387415D01*
X375495Y386661D01*
X375417Y386272D01*
X378126D01*
Y388096D01*
D02*
G37*
G36*
X404807D02*
X404323D01*
Y386272D01*
X407032D01*
X406954Y386661D01*
X406451Y387415D01*
X405696Y387919D01*
X404807Y388096D01*
D02*
G37*
G36*
X407032Y385272D02*
X404323D01*
Y383448D01*
X404807D01*
X405696Y383624D01*
X406451Y384128D01*
X406954Y384882D01*
X407032Y385272D01*
D02*
G37*
G36*
X403323D02*
X400614D01*
X400691Y384882D01*
X401195Y384128D01*
X401949Y383624D01*
X402839Y383448D01*
X403323D01*
Y385272D01*
D02*
G37*
G36*
X415142Y394407D02*
X414218Y394223D01*
X413434Y393700D01*
X412911Y392916D01*
X412727Y391992D01*
Y385850D01*
X412911Y384926D01*
X413434Y384143D01*
X414218Y383619D01*
X415142Y383436D01*
X416066Y383619D01*
X416849Y384143D01*
X417373Y384926D01*
X417557Y385850D01*
Y391992D01*
X417373Y392916D01*
X416849Y393700D01*
X416066Y394223D01*
X415142Y394407D01*
D02*
G37*
G36*
X367307D02*
X366383Y394223D01*
X365599Y393700D01*
X365076Y392916D01*
X364892Y391992D01*
Y385850D01*
X365076Y384926D01*
X365599Y384143D01*
X366383Y383619D01*
X367307Y383436D01*
X368231Y383619D01*
X369015Y384143D01*
X369538Y384926D01*
X369722Y385850D01*
Y391992D01*
X369538Y392916D01*
X369015Y393700D01*
X368231Y394223D01*
X367307Y394407D01*
D02*
G37*
G36*
X381835Y385272D02*
X378626D01*
X375417D01*
X375495Y384882D01*
X375998Y384128D01*
X376752Y383624D01*
X377398Y383496D01*
X377349Y382996D01*
X377248D01*
X376593Y382866D01*
X376037Y382494D01*
X375960Y382379D01*
X375460D01*
X375314Y382597D01*
X374530Y383121D01*
X373606Y383305D01*
X372682Y383121D01*
X371899Y382597D01*
X371375Y381814D01*
X371191Y380890D01*
Y378528D01*
X371375Y377603D01*
X371899Y376820D01*
X372682Y376296D01*
X373606Y376113D01*
X374530Y376296D01*
X375314Y376820D01*
X375837Y377603D01*
X376021Y378528D01*
Y379482D01*
X376521Y379749D01*
X376593Y379701D01*
X377248Y379571D01*
X378035D01*
X378691Y379701D01*
X379246Y380073D01*
X379618Y380628D01*
X379748Y381283D01*
X379618Y381939D01*
X379246Y382494D01*
X378691Y382866D01*
X378279Y382947D01*
X378328Y383448D01*
X379610D01*
X380500Y383624D01*
X381254Y384128D01*
X381757Y384882D01*
X381835Y385272D01*
D02*
G37*
G36*
X408843Y383305D02*
X407918Y383121D01*
X407135Y382597D01*
X406761Y382037D01*
X406695Y382018D01*
X406189Y382061D01*
X405947Y382423D01*
X405424Y382773D01*
X404807Y382896D01*
X404190Y382773D01*
X403667Y382423D01*
X403318Y381900D01*
X403195Y381283D01*
X403318Y380667D01*
X403667Y380144D01*
X404190Y379794D01*
X404807Y379671D01*
X405424Y379794D01*
X405928Y380131D01*
X406042Y380108D01*
X406428Y379963D01*
Y378528D01*
X406611Y377603D01*
X407135Y376820D01*
X407918Y376296D01*
X408843Y376113D01*
X409767Y376296D01*
X410550Y376820D01*
X411074Y377603D01*
X411257Y378528D01*
Y380890D01*
X411074Y381814D01*
X410550Y382597D01*
X409767Y383121D01*
X408843Y383305D01*
D02*
G37*
G36*
X472441Y383379D02*
X471566Y383264D01*
X470751Y382926D01*
X470052Y382389D01*
X469515Y381690D01*
X469177Y380874D01*
X469062Y380000D01*
X469177Y379125D01*
X469515Y378310D01*
X470052Y377611D01*
X470751Y377074D01*
X471566Y376736D01*
X472441Y376621D01*
X473315Y376736D01*
X474130Y377074D01*
X474830Y377611D01*
X475367Y378310D01*
X475705Y379125D01*
X475820Y380000D01*
X475705Y380874D01*
X475367Y381690D01*
X474830Y382389D01*
X474130Y382926D01*
X473315Y383264D01*
X472441Y383379D01*
D02*
G37*
G36*
X442441D02*
X441566Y383264D01*
X440752Y382926D01*
X440052Y382389D01*
X439515Y381690D01*
X439177Y380874D01*
X439062Y380000D01*
X439177Y379125D01*
X439515Y378310D01*
X440052Y377611D01*
X440752Y377074D01*
X441566Y376736D01*
X442441Y376621D01*
X443316Y376736D01*
X444130Y377074D01*
X444830Y377611D01*
X445367Y378310D01*
X445705Y379125D01*
X445820Y380000D01*
X445705Y380874D01*
X445367Y381690D01*
X444830Y382389D01*
X444130Y382926D01*
X443316Y383264D01*
X442441Y383379D01*
D02*
G37*
G36*
X423953Y361853D02*
X420500D01*
Y358400D01*
X423953D01*
Y361853D01*
D02*
G37*
G36*
X419500D02*
X416047D01*
Y358400D01*
X419500D01*
Y361853D01*
D02*
G37*
G36*
X480000Y361177D02*
X479125Y361062D01*
X478309Y360724D01*
X477609Y360187D01*
X477071Y359486D01*
X476734Y358670D01*
X476618Y357795D01*
X476734Y356920D01*
X477071Y356104D01*
X477609Y355404D01*
X478309Y354867D01*
X479125Y354529D01*
X480000Y354414D01*
X480875Y354529D01*
X481691Y354867D01*
X482391Y355404D01*
X482929Y356104D01*
X483266Y356920D01*
X483382Y357795D01*
X483266Y358670D01*
X482929Y359486D01*
X482391Y360187D01*
X481691Y360724D01*
X480875Y361062D01*
X480000Y361177D01*
D02*
G37*
G36*
X423953Y357400D02*
X420500D01*
Y353947D01*
X423953D01*
Y357400D01*
D02*
G37*
G36*
X419500D02*
X416047D01*
Y353947D01*
X419500D01*
Y357400D01*
D02*
G37*
G36*
X480500Y351716D02*
Y348295D01*
X483921D01*
X483851Y348827D01*
X483453Y349789D01*
X482819Y350614D01*
X481993Y351248D01*
X481032Y351646D01*
X480500Y351716D01*
D02*
G37*
G36*
X479500D02*
X478968Y351646D01*
X478007Y351248D01*
X477181Y350614D01*
X476547Y349789D01*
X476149Y348827D01*
X476079Y348295D01*
X479500D01*
Y351716D01*
D02*
G37*
G36*
X420000Y351282D02*
X419125Y351166D01*
X418309Y350829D01*
X417609Y350291D01*
X417071Y349591D01*
X416734Y348775D01*
X416618Y347900D01*
X416734Y347025D01*
X417071Y346209D01*
X417609Y345509D01*
X418309Y344971D01*
X419125Y344634D01*
X420000Y344518D01*
X420875Y344634D01*
X421691Y344971D01*
X422391Y345509D01*
X422929Y346209D01*
X423266Y347025D01*
X423382Y347900D01*
X423266Y348775D01*
X422929Y349591D01*
X422391Y350291D01*
X421691Y350829D01*
X420875Y351166D01*
X420000Y351282D01*
D02*
G37*
G36*
X483921Y347295D02*
X480500D01*
Y343874D01*
X481032Y343944D01*
X481993Y344343D01*
X482819Y344976D01*
X483453Y345802D01*
X483851Y346763D01*
X483921Y347295D01*
D02*
G37*
G36*
X479500D02*
X476079D01*
X476149Y346763D01*
X476547Y345802D01*
X477181Y344976D01*
X478007Y344343D01*
X478968Y343944D01*
X479500Y343874D01*
Y347295D01*
D02*
G37*
G36*
X362000Y352925D02*
X361243Y352825D01*
X360538Y352533D01*
X359932Y352068D01*
X359467Y351463D01*
X359175Y350757D01*
X359075Y350000D01*
X359175Y349243D01*
X359467Y348537D01*
X359932Y347932D01*
X360538Y347467D01*
X361184Y347199D01*
Y342801D01*
X360538Y342533D01*
X359932Y342068D01*
X359467Y341462D01*
X359175Y340757D01*
X359075Y340000D01*
X359175Y339243D01*
X359467Y338538D01*
X359932Y337932D01*
X360538Y337467D01*
X361243Y337175D01*
X362000Y337075D01*
X362757Y337175D01*
X363462Y337467D01*
X364068Y337932D01*
X364533Y338538D01*
X364825Y339243D01*
X364925Y340000D01*
X364825Y340757D01*
X364533Y341462D01*
X364068Y342068D01*
X363462Y342533D01*
X362816Y342801D01*
Y347199D01*
X363462Y347467D01*
X364068Y347932D01*
X364533Y348537D01*
X364825Y349243D01*
X364925Y350000D01*
X364825Y350757D01*
X364533Y351463D01*
X364068Y352068D01*
X363462Y352533D01*
X362757Y352825D01*
X362000Y352925D01*
D02*
G37*
G36*
X420000Y341282D02*
X419125Y341166D01*
X418309Y340829D01*
X417609Y340291D01*
X417071Y339591D01*
X416734Y338775D01*
X416618Y337900D01*
X416734Y337025D01*
X417071Y336209D01*
X417609Y335509D01*
X418309Y334971D01*
X419125Y334634D01*
X420000Y334518D01*
X420875Y334634D01*
X421691Y334971D01*
X422391Y335509D01*
X422929Y336209D01*
X423266Y337025D01*
X423382Y337900D01*
X423266Y338775D01*
X422929Y339591D01*
X422391Y340291D01*
X421691Y340829D01*
X420875Y341166D01*
X420000Y341282D01*
D02*
G37*
G36*
X480000Y341177D02*
X479125Y341062D01*
X478309Y340724D01*
X477609Y340187D01*
X477071Y339486D01*
X476734Y338670D01*
X476618Y337795D01*
X476734Y336920D01*
X477071Y336104D01*
X477609Y335404D01*
X478309Y334867D01*
X479125Y334529D01*
X480000Y334414D01*
X480875Y334529D01*
X481691Y334867D01*
X482391Y335404D01*
X482929Y336104D01*
X483266Y336920D01*
X483382Y337795D01*
X483266Y338670D01*
X482929Y339486D01*
X482391Y340187D01*
X481691Y340724D01*
X480875Y341062D01*
X480000Y341177D01*
D02*
G37*
G36*
X420000Y331282D02*
X419125Y331166D01*
X418309Y330829D01*
X417609Y330291D01*
X417071Y329591D01*
X416734Y328775D01*
X416618Y327900D01*
X416734Y327025D01*
X417071Y326209D01*
X417609Y325509D01*
X418309Y324971D01*
X419125Y324634D01*
X420000Y324518D01*
X420875Y324634D01*
X421691Y324971D01*
X422391Y325509D01*
X422929Y326209D01*
X423266Y327025D01*
X423382Y327900D01*
X423266Y328775D01*
X422929Y329591D01*
X422391Y330291D01*
X421691Y330829D01*
X420875Y331166D01*
X420000Y331282D01*
D02*
G37*
G36*
X480000Y331177D02*
X479125Y331062D01*
X478309Y330724D01*
X477609Y330187D01*
X477071Y329486D01*
X476734Y328671D01*
X476618Y327795D01*
X476734Y326920D01*
X477071Y326104D01*
X477609Y325404D01*
X478309Y324867D01*
X479125Y324529D01*
X480000Y324414D01*
X480875Y324529D01*
X481691Y324867D01*
X482391Y325404D01*
X482929Y326104D01*
X483266Y326920D01*
X483382Y327795D01*
X483266Y328671D01*
X482929Y329486D01*
X482391Y330187D01*
X481691Y330724D01*
X480875Y331062D01*
X480000Y331177D01*
D02*
G37*
G36*
X395276Y348201D02*
X394518Y348101D01*
X393813Y347809D01*
X393207Y347344D01*
X392742Y346738D01*
X392450Y346033D01*
X392351Y345276D01*
X392450Y344518D01*
X392742Y343813D01*
X393207Y343207D01*
X393813Y342742D01*
X394460Y342475D01*
Y333543D01*
X394460Y333543D01*
X394522Y333231D01*
X394699Y332966D01*
X400261Y327404D01*
X399993Y326757D01*
X399894Y326000D01*
X399993Y325243D01*
X400286Y324537D01*
X400751Y323932D01*
X401356Y323467D01*
X402062Y323175D01*
X402819Y323075D01*
X403576Y323175D01*
X404281Y323467D01*
X404887Y323932D01*
X405352Y324537D01*
X405644Y325243D01*
X405744Y326000D01*
X405644Y326757D01*
X405352Y327463D01*
X404887Y328068D01*
X404281Y328533D01*
X403576Y328825D01*
X402819Y328925D01*
X402062Y328825D01*
X401415Y328557D01*
X396091Y333881D01*
Y342475D01*
X396738Y342742D01*
X397344Y343207D01*
X397809Y343813D01*
X398101Y344518D01*
X398201Y345276D01*
X398101Y346033D01*
X397809Y346738D01*
X397344Y347344D01*
X396738Y347809D01*
X396033Y348101D01*
X395276Y348201D01*
D02*
G37*
G36*
X445791Y413350D02*
X439091D01*
Y407803D01*
X431423Y400136D01*
X431246Y399871D01*
X431184Y399559D01*
X431184Y399559D01*
Y330238D01*
X421738Y320792D01*
X421691Y320829D01*
X420875Y321166D01*
X420000Y321282D01*
X419125Y321166D01*
X418309Y320829D01*
X417609Y320291D01*
X417071Y319591D01*
X416734Y318775D01*
X416618Y317900D01*
X416734Y317025D01*
X417071Y316209D01*
X417609Y315509D01*
X418309Y314971D01*
X419125Y314634D01*
X420000Y314518D01*
X420875Y314634D01*
X421691Y314971D01*
X422391Y315509D01*
X422929Y316209D01*
X423266Y317025D01*
X423382Y317900D01*
X423266Y318775D01*
X422929Y319591D01*
X422892Y319638D01*
X432577Y329323D01*
X432577Y329323D01*
X432754Y329588D01*
X432816Y329900D01*
Y399221D01*
X440244Y406650D01*
X445791D01*
Y413350D01*
D02*
G37*
G36*
X387500Y318581D02*
Y314961D01*
X391120D01*
X391043Y315545D01*
X390625Y316554D01*
X389960Y317421D01*
X389093Y318086D01*
X388083Y318504D01*
X387500Y318581D01*
D02*
G37*
G36*
X386500D02*
X385917Y318504D01*
X384907Y318086D01*
X384040Y317421D01*
X383375Y316554D01*
X382957Y315545D01*
X382880Y314961D01*
X386500D01*
Y318581D01*
D02*
G37*
G36*
X480000Y321177D02*
X479125Y321062D01*
X478309Y320724D01*
X477609Y320186D01*
X477071Y319486D01*
X476734Y318671D01*
X476618Y317795D01*
X476734Y316920D01*
X477071Y316104D01*
X477609Y315404D01*
X478309Y314867D01*
X479125Y314529D01*
X480000Y314414D01*
X480875Y314529D01*
X481691Y314867D01*
X482391Y315404D01*
X482929Y316104D01*
X483266Y316920D01*
X483382Y317795D01*
X483266Y318671D01*
X482929Y319486D01*
X482391Y320186D01*
X481691Y320724D01*
X480875Y321062D01*
X480000Y321177D01*
D02*
G37*
G36*
X495000Y328501D02*
X494356Y328373D01*
X493810Y328009D01*
X493446Y327463D01*
X493318Y326819D01*
X493446Y326175D01*
X493810Y325629D01*
X494184Y325379D01*
Y314000D01*
X494184Y314000D01*
X494184Y314000D01*
Y308345D01*
X493810Y308095D01*
X493446Y307549D01*
X493318Y306906D01*
X493446Y306262D01*
X493810Y305716D01*
X494184Y305466D01*
Y295000D01*
X494184Y295000D01*
X494184Y295000D01*
Y288494D01*
X493810Y288245D01*
X493446Y287699D01*
X493318Y287055D01*
X493446Y286411D01*
X493810Y285865D01*
X494184Y285616D01*
Y275000D01*
X494184Y275000D01*
X494184Y275000D01*
Y268644D01*
X493810Y268394D01*
X493446Y267848D01*
X493318Y267205D01*
X493446Y266561D01*
X493810Y266015D01*
X494184Y265765D01*
Y255000D01*
X494184Y255000D01*
X494184Y255000D01*
Y248345D01*
X493810Y248095D01*
X493446Y247549D01*
X493318Y246905D01*
X493446Y246262D01*
X493810Y245716D01*
X494184Y245466D01*
Y235000D01*
X494184Y235000D01*
X494246Y234688D01*
X494423Y234423D01*
X496423Y232423D01*
X496423Y232423D01*
X496688Y232246D01*
X497000Y232184D01*
X497000Y232184D01*
X510000D01*
X510000Y232184D01*
X510312Y232246D01*
X510577Y232423D01*
X511577Y233423D01*
X511577Y233423D01*
X511754Y233688D01*
X511816Y234000D01*
Y236356D01*
X512190Y236606D01*
X512554Y237152D01*
X512682Y237795D01*
X512554Y238439D01*
X512190Y238985D01*
X511644Y239350D01*
X511000Y239478D01*
X510356Y239350D01*
X509810Y238985D01*
X509446Y238439D01*
X509318Y237795D01*
X509446Y237152D01*
X509810Y236606D01*
X510184Y236356D01*
Y234338D01*
X509662Y233816D01*
X497338D01*
X495816Y235338D01*
Y245466D01*
X496190Y245716D01*
X496554Y246262D01*
X496682Y246905D01*
X496554Y247549D01*
X496190Y248095D01*
X495816Y248345D01*
Y252378D01*
X496278Y252569D01*
X496423Y252423D01*
X496423Y252423D01*
X496688Y252246D01*
X497000Y252184D01*
X497000Y252184D01*
X510000D01*
X510000Y252184D01*
X510312Y252246D01*
X510577Y252423D01*
X511577Y253423D01*
X511577Y253423D01*
X511754Y253688D01*
X511816Y254000D01*
Y256356D01*
X512190Y256606D01*
X512554Y257152D01*
X512682Y257795D01*
X512554Y258439D01*
X512190Y258985D01*
X511644Y259349D01*
X511000Y259478D01*
X510356Y259349D01*
X509810Y258985D01*
X509446Y258439D01*
X509318Y257795D01*
X509446Y257152D01*
X509810Y256606D01*
X510184Y256356D01*
Y254338D01*
X509662Y253816D01*
X497338D01*
X495816Y255338D01*
Y265765D01*
X496190Y266015D01*
X496554Y266561D01*
X496682Y267205D01*
X496554Y267848D01*
X496190Y268394D01*
X495816Y268644D01*
Y272377D01*
X496278Y272569D01*
X496423Y272423D01*
X496423Y272423D01*
X496688Y272246D01*
X497000Y272184D01*
X497000Y272184D01*
X510000D01*
X510000Y272184D01*
X510312Y272246D01*
X510577Y272423D01*
X511577Y273423D01*
X511577Y273423D01*
X511754Y273688D01*
X511816Y274000D01*
Y276356D01*
X512190Y276606D01*
X512554Y277151D01*
X512682Y277795D01*
X512554Y278439D01*
X512190Y278985D01*
X511644Y279349D01*
X511000Y279478D01*
X510356Y279349D01*
X509810Y278985D01*
X509446Y278439D01*
X509318Y277795D01*
X509446Y277151D01*
X509810Y276606D01*
X510184Y276356D01*
Y274338D01*
X509662Y273816D01*
X497338D01*
X495816Y275338D01*
Y285616D01*
X496190Y285865D01*
X496554Y286411D01*
X496682Y287055D01*
X496554Y287699D01*
X496190Y288245D01*
X495816Y288494D01*
Y292377D01*
X496278Y292569D01*
X496423Y292423D01*
X496423Y292423D01*
X496688Y292246D01*
X497000Y292184D01*
X497000Y292184D01*
X510000D01*
X510000Y292184D01*
X510312Y292246D01*
X510577Y292423D01*
X511577Y293423D01*
X511577Y293423D01*
X511754Y293688D01*
X511816Y294000D01*
Y296356D01*
X512190Y296606D01*
X512554Y297151D01*
X512682Y297795D01*
X512554Y298439D01*
X512190Y298985D01*
X511644Y299349D01*
X511000Y299478D01*
X510356Y299349D01*
X509810Y298985D01*
X509446Y298439D01*
X509318Y297795D01*
X509446Y297151D01*
X509810Y296606D01*
X510184Y296356D01*
Y294338D01*
X509662Y293816D01*
X497338D01*
X495816Y295338D01*
Y305466D01*
X496190Y305716D01*
X496554Y306262D01*
X496682Y306906D01*
X496554Y307549D01*
X496190Y308095D01*
X495816Y308345D01*
Y312033D01*
X496000Y312184D01*
X510000D01*
X510000Y312184D01*
X510312Y312246D01*
X510577Y312423D01*
X511577Y313423D01*
X511577Y313423D01*
X511754Y313688D01*
X511816Y314000D01*
Y316356D01*
X512190Y316606D01*
X512554Y317151D01*
X512682Y317795D01*
X512554Y318439D01*
X512190Y318985D01*
X511644Y319350D01*
X511000Y319478D01*
X510356Y319350D01*
X509810Y318985D01*
X509446Y318439D01*
X509318Y317795D01*
X509446Y317151D01*
X509810Y316606D01*
X510184Y316356D01*
Y314338D01*
X509662Y313816D01*
X496338D01*
X495816Y314338D01*
Y325379D01*
X496190Y325629D01*
X496554Y326175D01*
X496682Y326819D01*
X496554Y327463D01*
X496190Y328009D01*
X495644Y328373D01*
X495000Y328501D01*
D02*
G37*
G36*
X377000Y318042D02*
X376073Y317920D01*
X375210Y317562D01*
X374468Y316993D01*
X373899Y316251D01*
X373542Y315388D01*
X373420Y314461D01*
X373542Y313535D01*
X373899Y312671D01*
X374468Y311930D01*
X375210Y311361D01*
X376073Y311003D01*
X377000Y310881D01*
X377927Y311003D01*
X378790Y311361D01*
X379532Y311930D01*
X380101Y312671D01*
X380458Y313535D01*
X380580Y314461D01*
X380458Y315388D01*
X380101Y316251D01*
X379532Y316993D01*
X378790Y317562D01*
X377927Y317920D01*
X377000Y318042D01*
D02*
G37*
G36*
X391120Y313961D02*
X387500D01*
Y310342D01*
X388083Y310419D01*
X389093Y310837D01*
X389960Y311502D01*
X390625Y312369D01*
X391043Y313378D01*
X391120Y313961D01*
D02*
G37*
G36*
X386500D02*
X382880D01*
X382957Y313378D01*
X383375Y312369D01*
X384040Y311502D01*
X384907Y310837D01*
X385917Y310419D01*
X386500Y310342D01*
Y313961D01*
D02*
G37*
G36*
X420000Y311282D02*
X419125Y311166D01*
X418309Y310829D01*
X417609Y310291D01*
X417071Y309591D01*
X416734Y308775D01*
X416618Y307900D01*
X416734Y307025D01*
X417071Y306209D01*
X417609Y305509D01*
X418309Y304971D01*
X419125Y304634D01*
X420000Y304518D01*
X420875Y304634D01*
X421691Y304971D01*
X422391Y305509D01*
X422929Y306209D01*
X423266Y307025D01*
X423382Y307900D01*
X423266Y308775D01*
X422929Y309591D01*
X422391Y310291D01*
X421691Y310829D01*
X420875Y311166D01*
X420000Y311282D01*
D02*
G37*
G36*
X480000Y311177D02*
X479125Y311062D01*
X478309Y310724D01*
X477609Y310187D01*
X477071Y309486D01*
X476734Y308670D01*
X476618Y307795D01*
X476734Y306920D01*
X477071Y306104D01*
X477609Y305404D01*
X478309Y304867D01*
X479125Y304529D01*
X480000Y304414D01*
X480875Y304529D01*
X481691Y304867D01*
X482391Y305404D01*
X482929Y306104D01*
X483266Y306920D01*
X483382Y307795D01*
X483266Y308670D01*
X482929Y309486D01*
X482391Y310187D01*
X481691Y310724D01*
X480875Y311062D01*
X480000Y311177D01*
D02*
G37*
G36*
X407000Y301183D02*
X406176Y301075D01*
X405408Y300757D01*
X404749Y300251D01*
X404243Y299592D01*
X403925Y298824D01*
X403817Y298000D01*
X403925Y297176D01*
X404243Y296408D01*
X404749Y295749D01*
X405408Y295243D01*
X406176Y294925D01*
X407000Y294817D01*
X407824Y294925D01*
X408592Y295243D01*
X409251Y295749D01*
X409757Y296408D01*
X410075Y297176D01*
X410183Y298000D01*
X410075Y298824D01*
X409757Y299592D01*
X409251Y300251D01*
X408592Y300757D01*
X407824Y301075D01*
X407000Y301183D01*
D02*
G37*
G36*
X377000D02*
X376176Y301075D01*
X375408Y300757D01*
X374749Y300251D01*
X374243Y299592D01*
X373925Y298824D01*
X373817Y298000D01*
X373925Y297176D01*
X374243Y296408D01*
X374749Y295749D01*
X375408Y295243D01*
X376176Y294925D01*
X377000Y294817D01*
X377824Y294925D01*
X378592Y295243D01*
X379251Y295749D01*
X379757Y296408D01*
X380075Y297176D01*
X380183Y298000D01*
X380075Y298824D01*
X379757Y299592D01*
X379251Y300251D01*
X378592Y300757D01*
X377824Y301075D01*
X377000Y301183D01*
D02*
G37*
G36*
X420000Y301282D02*
X419125Y301166D01*
X418309Y300829D01*
X417609Y300291D01*
X417071Y299591D01*
X416734Y298775D01*
X416618Y297900D01*
X416734Y297025D01*
X417071Y296209D01*
X417609Y295509D01*
X418309Y294971D01*
X419125Y294634D01*
X420000Y294518D01*
X420875Y294634D01*
X421691Y294971D01*
X422391Y295509D01*
X422929Y296209D01*
X423266Y297025D01*
X423382Y297900D01*
X423266Y298775D01*
X422929Y299591D01*
X422391Y300291D01*
X421691Y300829D01*
X420875Y301166D01*
X420000Y301282D01*
D02*
G37*
G36*
X480000Y301177D02*
X479125Y301062D01*
X478309Y300724D01*
X477609Y300186D01*
X477071Y299486D01*
X476734Y298671D01*
X476618Y297795D01*
X476734Y296920D01*
X477071Y296104D01*
X477609Y295404D01*
X478309Y294867D01*
X479125Y294529D01*
X480000Y294414D01*
X480875Y294529D01*
X481691Y294867D01*
X482391Y295404D01*
X482929Y296104D01*
X483266Y296920D01*
X483382Y297795D01*
X483266Y298671D01*
X482929Y299486D01*
X482391Y300186D01*
X481691Y300724D01*
X480875Y301062D01*
X480000Y301177D01*
D02*
G37*
G36*
X407000Y291183D02*
X406176Y291075D01*
X405408Y290757D01*
X404749Y290251D01*
X404243Y289592D01*
X403925Y288824D01*
X403817Y288000D01*
X403925Y287176D01*
X404243Y286408D01*
X404749Y285749D01*
X405408Y285243D01*
X406176Y284925D01*
X407000Y284817D01*
X407824Y284925D01*
X408592Y285243D01*
X409251Y285749D01*
X409757Y286408D01*
X410075Y287176D01*
X410183Y288000D01*
X410075Y288824D01*
X409757Y289592D01*
X409251Y290251D01*
X408592Y290757D01*
X407824Y291075D01*
X407000Y291183D01*
D02*
G37*
G36*
X377000D02*
X376176Y291075D01*
X375408Y290757D01*
X374749Y290251D01*
X374243Y289592D01*
X373925Y288824D01*
X373817Y288000D01*
X373925Y287176D01*
X374243Y286408D01*
X374749Y285749D01*
X375408Y285243D01*
X376176Y284925D01*
X377000Y284817D01*
X377824Y284925D01*
X378592Y285243D01*
X379251Y285749D01*
X379757Y286408D01*
X380075Y287176D01*
X380183Y288000D01*
X380075Y288824D01*
X379757Y289592D01*
X379251Y290251D01*
X378592Y290757D01*
X377824Y291075D01*
X377000Y291183D01*
D02*
G37*
G36*
X420000Y291282D02*
X419125Y291166D01*
X418309Y290829D01*
X417609Y290291D01*
X417071Y289591D01*
X416734Y288775D01*
X416618Y287900D01*
X416734Y287025D01*
X417071Y286209D01*
X417609Y285509D01*
X418309Y284971D01*
X419125Y284634D01*
X420000Y284518D01*
X420875Y284634D01*
X421691Y284971D01*
X422391Y285509D01*
X422929Y286209D01*
X423266Y287025D01*
X423382Y287900D01*
X423266Y288775D01*
X422929Y289591D01*
X422391Y290291D01*
X421691Y290829D01*
X420875Y291166D01*
X420000Y291282D01*
D02*
G37*
G36*
X480000Y291177D02*
X479125Y291062D01*
X478309Y290724D01*
X477609Y290187D01*
X477071Y289486D01*
X476734Y288670D01*
X476618Y287795D01*
X476734Y286920D01*
X477071Y286104D01*
X477609Y285404D01*
X478309Y284867D01*
X479125Y284529D01*
X480000Y284414D01*
X480875Y284529D01*
X481691Y284867D01*
X482391Y285404D01*
X482929Y286104D01*
X483266Y286920D01*
X483382Y287795D01*
X483266Y288670D01*
X482929Y289486D01*
X482391Y290187D01*
X481691Y290724D01*
X480875Y291062D01*
X480000Y291177D01*
D02*
G37*
G36*
X377744Y278269D02*
Y274650D01*
X381364D01*
X381287Y275233D01*
X380869Y276242D01*
X380204Y277109D01*
X379337Y277774D01*
X378327Y278192D01*
X377744Y278269D01*
D02*
G37*
G36*
X376744Y278269D02*
X376161Y278192D01*
X375151Y277774D01*
X374285Y277109D01*
X373619Y276242D01*
X373201Y275233D01*
X373125Y274650D01*
X376744D01*
Y278269D01*
D02*
G37*
G36*
X420000Y281282D02*
X419125Y281166D01*
X418309Y280829D01*
X417609Y280291D01*
X417071Y279591D01*
X416734Y278775D01*
X416618Y277900D01*
X416734Y277025D01*
X417071Y276209D01*
X417609Y275509D01*
X418309Y274971D01*
X419125Y274634D01*
X420000Y274518D01*
X420875Y274634D01*
X421691Y274971D01*
X422391Y275509D01*
X422929Y276209D01*
X423266Y277025D01*
X423382Y277900D01*
X423266Y278775D01*
X422929Y279591D01*
X422391Y280291D01*
X421691Y280829D01*
X420875Y281166D01*
X420000Y281282D01*
D02*
G37*
G36*
X480000Y281177D02*
X479125Y281062D01*
X478309Y280724D01*
X477609Y280187D01*
X477071Y279486D01*
X476734Y278671D01*
X476618Y277795D01*
X476734Y276920D01*
X477071Y276104D01*
X477609Y275404D01*
X478309Y274867D01*
X479125Y274529D01*
X480000Y274414D01*
X480875Y274529D01*
X481691Y274867D01*
X482391Y275404D01*
X482929Y276104D01*
X483266Y276920D01*
X483382Y277795D01*
X483266Y278671D01*
X482929Y279486D01*
X482391Y280187D01*
X481691Y280724D01*
X480875Y281062D01*
X480000Y281177D01*
D02*
G37*
G36*
X387244Y277730D02*
X386317Y277608D01*
X385454Y277250D01*
X384713Y276681D01*
X384143Y275940D01*
X383786Y275076D01*
X383664Y274150D01*
X383786Y273223D01*
X384143Y272359D01*
X384713Y271618D01*
X385454Y271049D01*
X386317Y270691D01*
X387244Y270569D01*
X388171Y270691D01*
X389034Y271049D01*
X389776Y271618D01*
X390345Y272359D01*
X390702Y273223D01*
X390824Y274150D01*
X390702Y275076D01*
X390345Y275940D01*
X389776Y276681D01*
X389034Y277250D01*
X388171Y277608D01*
X387244Y277730D01*
D02*
G37*
G36*
X376744Y273650D02*
X373125D01*
X373201Y273066D01*
X373619Y272057D01*
X374285Y271190D01*
X375151Y270525D01*
X376161Y270107D01*
X376744Y270030D01*
Y273650D01*
D02*
G37*
G36*
X381364D02*
X377744D01*
Y270030D01*
X378327Y270107D01*
X379337Y270525D01*
X380204Y271190D01*
X380869Y272057D01*
X381287Y273066D01*
X381364Y273650D01*
D02*
G37*
G36*
X420000Y271282D02*
X419125Y271166D01*
X418309Y270829D01*
X417609Y270291D01*
X417071Y269591D01*
X416734Y268775D01*
X416618Y267900D01*
X416734Y267025D01*
X417071Y266209D01*
X417609Y265509D01*
X418309Y264971D01*
X419125Y264634D01*
X420000Y264518D01*
X420875Y264634D01*
X421691Y264971D01*
X422391Y265509D01*
X422929Y266209D01*
X423266Y267025D01*
X423382Y267900D01*
X423266Y268775D01*
X422929Y269591D01*
X422391Y270291D01*
X421691Y270829D01*
X420875Y271166D01*
X420000Y271282D01*
D02*
G37*
G36*
X480000Y271177D02*
X479125Y271062D01*
X478309Y270724D01*
X477609Y270186D01*
X477071Y269486D01*
X476734Y268671D01*
X476618Y267795D01*
X476734Y266920D01*
X477071Y266104D01*
X477609Y265404D01*
X478309Y264867D01*
X479125Y264529D01*
X480000Y264414D01*
X480875Y264529D01*
X481691Y264867D01*
X482391Y265404D01*
X482929Y266104D01*
X483266Y266920D01*
X483382Y267795D01*
X483266Y268671D01*
X482929Y269486D01*
X482391Y270186D01*
X481691Y270724D01*
X480875Y271062D01*
X480000Y271177D01*
D02*
G37*
G36*
X432000Y320720D02*
X431243Y320621D01*
X430538Y320328D01*
X429932Y319864D01*
X429467Y319258D01*
X429175Y318552D01*
X429075Y317795D01*
X429175Y317038D01*
X429467Y316333D01*
X429932Y315727D01*
X430538Y315262D01*
X431184Y314994D01*
Y261138D01*
X428762Y258716D01*
X423274D01*
X423266Y258775D01*
X422929Y259591D01*
X422391Y260291D01*
X421691Y260829D01*
X420875Y261166D01*
X420000Y261282D01*
X419125Y261166D01*
X418309Y260829D01*
X417609Y260291D01*
X417071Y259591D01*
X416734Y258775D01*
X416618Y257900D01*
X416734Y257025D01*
X417071Y256209D01*
X417609Y255509D01*
X418309Y254971D01*
X419125Y254634D01*
X420000Y254518D01*
X420875Y254634D01*
X421691Y254971D01*
X422391Y255509D01*
X422929Y256209D01*
X423266Y257025D01*
X423274Y257084D01*
X429100D01*
X429100Y257084D01*
X429412Y257146D01*
X429677Y257323D01*
X432577Y260223D01*
X432754Y260488D01*
X432816Y260800D01*
X432816Y260800D01*
Y314994D01*
X433462Y315262D01*
X434068Y315727D01*
X434533Y316333D01*
X434825Y317038D01*
X434925Y317795D01*
X434825Y318552D01*
X434533Y319258D01*
X434068Y319864D01*
X433462Y320328D01*
X432757Y320621D01*
X432000Y320720D01*
D02*
G37*
G36*
X480000Y261177D02*
X479125Y261062D01*
X478309Y260724D01*
X477609Y260187D01*
X477071Y259486D01*
X476734Y258670D01*
X476618Y257795D01*
X476734Y256920D01*
X477071Y256104D01*
X477609Y255404D01*
X478309Y254867D01*
X479125Y254529D01*
X480000Y254414D01*
X480875Y254529D01*
X481691Y254867D01*
X482391Y255404D01*
X482929Y256104D01*
X483266Y256920D01*
X483382Y257795D01*
X483266Y258670D01*
X482929Y259486D01*
X482391Y260187D01*
X481691Y260724D01*
X480875Y261062D01*
X480000Y261177D01*
D02*
G37*
G36*
X420000Y251282D02*
X419125Y251166D01*
X418309Y250829D01*
X417609Y250291D01*
X417071Y249591D01*
X416734Y248775D01*
X416618Y247900D01*
X416734Y247025D01*
X417071Y246209D01*
X417609Y245509D01*
X418309Y244971D01*
X419125Y244634D01*
X420000Y244518D01*
X420875Y244634D01*
X421691Y244971D01*
X422391Y245509D01*
X422929Y246209D01*
X423266Y247025D01*
X423382Y247900D01*
X423266Y248775D01*
X422929Y249591D01*
X422391Y250291D01*
X421691Y250829D01*
X420875Y251166D01*
X420000Y251282D01*
D02*
G37*
G36*
X480000Y251177D02*
X479125Y251062D01*
X478309Y250724D01*
X477609Y250186D01*
X477071Y249486D01*
X476734Y248671D01*
X476618Y247795D01*
X476734Y246920D01*
X477071Y246104D01*
X477609Y245404D01*
X478309Y244867D01*
X479125Y244529D01*
X480000Y244414D01*
X480875Y244529D01*
X481691Y244867D01*
X482391Y245404D01*
X482929Y246104D01*
X483266Y246920D01*
X483382Y247795D01*
X483266Y248671D01*
X482929Y249486D01*
X482391Y250186D01*
X481691Y250724D01*
X480875Y251062D01*
X480000Y251177D01*
D02*
G37*
G36*
Y241382D02*
X479125Y241266D01*
X478309Y240929D01*
X477609Y240391D01*
X477071Y239691D01*
X476734Y238875D01*
X476618Y238000D01*
X476734Y237125D01*
X477071Y236309D01*
X477609Y235609D01*
X478309Y235071D01*
X479125Y234734D01*
X480000Y234618D01*
X480875Y234734D01*
X481691Y235071D01*
X482391Y235609D01*
X482929Y236309D01*
X483266Y237125D01*
X483382Y238000D01*
X483266Y238875D01*
X482929Y239691D01*
X482391Y240391D01*
X481691Y240929D01*
X480875Y241266D01*
X480000Y241382D01*
D02*
G37*
G36*
X420000Y241282D02*
X419125Y241166D01*
X418309Y240829D01*
X417609Y240291D01*
X417071Y239591D01*
X416734Y238775D01*
X416618Y237900D01*
X416734Y237025D01*
X417071Y236209D01*
X417609Y235509D01*
X418309Y234971D01*
X419125Y234634D01*
X420000Y234518D01*
X420875Y234634D01*
X421691Y234971D01*
X422391Y235509D01*
X422929Y236209D01*
X423266Y237025D01*
X423382Y237900D01*
X423266Y238775D01*
X422929Y239591D01*
X422391Y240291D01*
X421691Y240829D01*
X420875Y241166D01*
X420000Y241282D01*
D02*
G37*
G36*
Y231282D02*
X419125Y231166D01*
X418309Y230829D01*
X417609Y230291D01*
X417071Y229591D01*
X416734Y228775D01*
X416618Y227900D01*
X416734Y227025D01*
X417071Y226209D01*
X417609Y225509D01*
X418309Y224971D01*
X419125Y224634D01*
X420000Y224518D01*
X420875Y224634D01*
X421691Y224971D01*
X422391Y225509D01*
X422929Y226209D01*
X423266Y227025D01*
X423382Y227900D01*
X423266Y228775D01*
X422929Y229591D01*
X422391Y230291D01*
X421691Y230829D01*
X420875Y231166D01*
X420000Y231282D01*
D02*
G37*
G36*
X483353Y231148D02*
X476647D01*
Y224443D01*
X483353D01*
Y231148D01*
D02*
G37*
G36*
X408843Y212887D02*
X407918Y212703D01*
X407135Y212180D01*
X406611Y211397D01*
X406428Y210472D01*
Y209518D01*
X405928Y209251D01*
X405856Y209299D01*
X405201Y209429D01*
X404413D01*
X403758Y209299D01*
X403202Y208927D01*
X402831Y208372D01*
X402701Y207716D01*
X402831Y207061D01*
X403202Y206506D01*
X403758Y206135D01*
X404170Y206052D01*
X404121Y205553D01*
X402839D01*
X401949Y205376D01*
X401195Y204872D01*
X400691Y204118D01*
X400614Y203728D01*
X407032D01*
X406954Y204118D01*
X406451Y204872D01*
X405696Y205376D01*
X405051Y205504D01*
X405100Y206004D01*
X405201D01*
X405856Y206135D01*
X406412Y206506D01*
X406489Y206621D01*
X406989D01*
X407135Y206403D01*
X407918Y205879D01*
X408843Y205695D01*
X409767Y205879D01*
X410550Y206403D01*
X411074Y207186D01*
X411257Y208110D01*
Y210472D01*
X411074Y211397D01*
X410550Y212180D01*
X409767Y212703D01*
X408843Y212887D01*
D02*
G37*
G36*
X373606D02*
X372682Y212703D01*
X371899Y212180D01*
X371375Y211397D01*
X371191Y210472D01*
Y208110D01*
X371375Y207186D01*
X371899Y206403D01*
X372682Y205879D01*
X373606Y205695D01*
X374531Y205879D01*
X375314Y206403D01*
X375688Y206963D01*
X375754Y206982D01*
X376259Y206940D01*
X376502Y206577D01*
X377025Y206227D01*
X377642Y206104D01*
X378259Y206227D01*
X378782Y206577D01*
X379131Y207100D01*
X379254Y207716D01*
X379131Y208333D01*
X378782Y208856D01*
X378259Y209206D01*
X377642Y209329D01*
X377025Y209206D01*
X376521Y208869D01*
X376407Y208892D01*
X376021Y209037D01*
Y210472D01*
X375837Y211397D01*
X375314Y212180D01*
X374531Y212703D01*
X373606Y212887D01*
D02*
G37*
G36*
X379610Y205553D02*
X379126D01*
Y203728D01*
X381835D01*
X381757Y204118D01*
X381254Y204872D01*
X380500Y205376D01*
X379610Y205553D01*
D02*
G37*
G36*
X378126D02*
X377642D01*
X376752Y205376D01*
X375998Y204872D01*
X375495Y204118D01*
X375417Y203728D01*
X378126D01*
Y205553D01*
D02*
G37*
G36*
X407032Y202728D02*
X404323D01*
Y200904D01*
X404807D01*
X405696Y201081D01*
X406451Y201585D01*
X406954Y202339D01*
X407032Y202728D01*
D02*
G37*
G36*
X378126D02*
X375417D01*
X375495Y202339D01*
X375998Y201585D01*
X376752Y201081D01*
X377642Y200904D01*
X378126D01*
Y202728D01*
D02*
G37*
G36*
X415142Y205564D02*
X414218Y205381D01*
X413434Y204857D01*
X412911Y204074D01*
X412727Y203150D01*
Y197008D01*
X412911Y196084D01*
X413434Y195300D01*
X414218Y194777D01*
X415142Y194593D01*
X416066Y194777D01*
X416849Y195300D01*
X417373Y196084D01*
X417557Y197008D01*
Y203150D01*
X417373Y204074D01*
X416849Y204857D01*
X416066Y205381D01*
X415142Y205564D01*
D02*
G37*
G36*
X367307D02*
X366383Y205381D01*
X365599Y204857D01*
X365076Y204074D01*
X364892Y203150D01*
Y197008D01*
X365076Y196084D01*
X365599Y195300D01*
X366383Y194777D01*
X367307Y194593D01*
X368231Y194777D01*
X369015Y195300D01*
X369538Y196084D01*
X369722Y197008D01*
Y203150D01*
X369538Y204074D01*
X369015Y204857D01*
X368231Y205381D01*
X367307Y205564D01*
D02*
G37*
G36*
X457700Y198594D02*
Y193200D01*
X461683D01*
Y194176D01*
X461530Y195337D01*
X461083Y196418D01*
X460370Y197346D01*
X459442Y198059D01*
X458360Y198507D01*
X457700Y198594D01*
D02*
G37*
G36*
X456700Y198594D02*
X456040Y198507D01*
X454958Y198059D01*
X454030Y197346D01*
X453317Y196418D01*
X452870Y195337D01*
X452717Y194176D01*
Y193200D01*
X456700D01*
Y198594D01*
D02*
G37*
G36*
X496000Y198054D02*
X494996Y197922D01*
X494061Y197535D01*
X493258Y196919D01*
X492641Y196115D01*
X492254Y195180D01*
X492122Y194176D01*
Y191224D01*
X492254Y190220D01*
X492641Y189285D01*
X493258Y188481D01*
X494061Y187865D01*
X494996Y187478D01*
X496000Y187346D01*
X497004Y187478D01*
X497939Y187865D01*
X498742Y188481D01*
X499359Y189285D01*
X499746Y190220D01*
X499878Y191224D01*
Y194176D01*
X499746Y195180D01*
X499359Y196115D01*
X498742Y196919D01*
X497939Y197535D01*
X497004Y197922D01*
X496000Y198054D01*
D02*
G37*
G36*
X467200D02*
X466196Y197922D01*
X465261Y197535D01*
X464458Y196919D01*
X463841Y196115D01*
X463454Y195180D01*
X463322Y194176D01*
Y191224D01*
X463454Y190220D01*
X463841Y189285D01*
X464458Y188481D01*
X465261Y187865D01*
X466196Y187478D01*
X467200Y187346D01*
X468204Y187478D01*
X469139Y187865D01*
X469942Y188481D01*
X470559Y189285D01*
X470946Y190220D01*
X471078Y191224D01*
Y194176D01*
X470946Y195180D01*
X470559Y196115D01*
X469942Y196919D01*
X469139Y197535D01*
X468204Y197922D01*
X467200Y198054D01*
D02*
G37*
G36*
X447200D02*
X446196Y197922D01*
X445261Y197535D01*
X444458Y196919D01*
X443842Y196115D01*
X443454Y195180D01*
X443322Y194176D01*
Y191224D01*
X443454Y190220D01*
X443842Y189285D01*
X444458Y188481D01*
X445261Y187865D01*
X446196Y187478D01*
X447200Y187346D01*
X448204Y187478D01*
X449139Y187865D01*
X449942Y188481D01*
X450559Y189285D01*
X450946Y190220D01*
X451078Y191224D01*
Y194176D01*
X450946Y195180D01*
X450559Y196115D01*
X449942Y196919D01*
X449139Y197535D01*
X448204Y197922D01*
X447200Y198054D01*
D02*
G37*
G36*
X437200D02*
X436196Y197922D01*
X435261Y197535D01*
X434458Y196919D01*
X433842Y196115D01*
X433454Y195180D01*
X433322Y194176D01*
Y191224D01*
X433454Y190220D01*
X433842Y189285D01*
X434458Y188481D01*
X435261Y187865D01*
X436196Y187478D01*
X437200Y187346D01*
X438204Y187478D01*
X439139Y187865D01*
X439942Y188481D01*
X440558Y189285D01*
X440946Y190220D01*
X441078Y191224D01*
Y194176D01*
X440946Y195180D01*
X440558Y196115D01*
X439942Y196919D01*
X439139Y197535D01*
X438204Y197922D01*
X437200Y198054D01*
D02*
G37*
G36*
X461683Y192200D02*
X457700D01*
Y186806D01*
X458360Y186893D01*
X459442Y187341D01*
X460370Y188054D01*
X461083Y188982D01*
X461530Y190063D01*
X461683Y191224D01*
Y192200D01*
D02*
G37*
G36*
X456700D02*
X452717D01*
Y191224D01*
X452870Y190063D01*
X453317Y188982D01*
X454030Y188054D01*
X454958Y187341D01*
X456040Y186893D01*
X456700Y186806D01*
Y192200D01*
D02*
G37*
G36*
X415142Y190761D02*
X414218Y190577D01*
X413434Y190054D01*
X412911Y189271D01*
X412727Y188347D01*
Y182205D01*
X412911Y181281D01*
X413434Y180497D01*
X414218Y179974D01*
X415142Y179790D01*
X416066Y179974D01*
X416849Y180497D01*
X417373Y181281D01*
X417557Y182205D01*
Y188347D01*
X417373Y189271D01*
X416849Y190054D01*
X416066Y190577D01*
X415142Y190761D01*
D02*
G37*
G36*
X367307Y190368D02*
X366383Y190184D01*
X365599Y189660D01*
X365076Y188877D01*
X364892Y187953D01*
Y181811D01*
X365076Y180887D01*
X365599Y180103D01*
X366383Y179580D01*
X367307Y179396D01*
X368231Y179580D01*
X369015Y180103D01*
X369538Y180887D01*
X369722Y181811D01*
Y187953D01*
X369538Y188877D01*
X369015Y189660D01*
X368231Y190184D01*
X367307Y190368D01*
D02*
G37*
%LPD*%
D37*
X420000Y317900D02*
X432000Y329900D01*
Y399559D01*
Y260800D02*
Y317795D01*
X429100Y257900D02*
X432000Y260800D01*
X420000Y257900D02*
X429100D01*
X420000Y317900D02*
X421900D01*
X432000Y399559D02*
X442441Y410000D01*
X408000Y424000D02*
X514000D01*
X401067Y417067D02*
X408000Y424000D01*
X401067Y389315D02*
Y417067D01*
X381382Y199685D02*
X388367Y192700D01*
X422300D01*
X428000Y187000D01*
Y178000D02*
Y187000D01*
Y178000D02*
X433000Y173000D01*
X483000D01*
X477200Y178800D02*
Y192700D01*
Y178800D02*
X483000Y173000D01*
X512000D01*
X520000Y181000D01*
Y194700D01*
X506000Y192700D02*
X518000D01*
X520000Y194700D01*
Y379000D01*
Y418000D01*
X509000Y390000D02*
X520000Y379000D01*
X472441Y390000D02*
X509000D01*
X362000Y340000D02*
Y350000D01*
X367000Y166000D02*
X420000D01*
X424000Y170000D01*
Y178000D01*
X360000Y173000D02*
Y194700D01*
Y173000D02*
X367000Y166000D01*
X395276Y333543D02*
Y345276D01*
Y333543D02*
X402819Y326000D01*
X514000Y424000D02*
X520000Y418000D01*
X495000Y235000D02*
Y246905D01*
Y275000D02*
X497000Y273000D01*
X510000D01*
X496000Y313000D02*
X510000D01*
X511000Y314000D01*
X510000Y273000D02*
X511000Y274000D01*
Y277795D01*
Y314000D02*
Y317795D01*
X495000Y255000D02*
X497000Y253000D01*
X495000Y287055D02*
Y295000D01*
Y306906D01*
X497000Y253000D02*
X510000D01*
X511000Y254000D01*
X495000Y295000D02*
X497000Y293000D01*
X495000Y306906D02*
Y314000D01*
Y326819D01*
Y235000D02*
X497000Y233000D01*
X511000Y254000D02*
Y257795D01*
X497000Y293000D02*
X510000D01*
X511000Y294000D01*
X510000Y233000D02*
X511000Y234000D01*
X495000Y255000D02*
Y267205D01*
X511000Y294000D02*
Y297795D01*
X497000Y233000D02*
X510000D01*
X511000Y234000D02*
Y237795D01*
X495000Y246905D02*
Y255000D01*
Y267205D02*
Y275000D01*
Y287055D01*
Y314000D02*
X496000Y313000D01*
D38*
X384531Y389315D02*
D03*
X381382D02*
D03*
X387878D02*
D03*
X389650Y385772D02*
D03*
X386106D02*
D03*
X396342D02*
D03*
X392799D02*
D03*
X394571Y389315D02*
D03*
X401067D02*
D03*
X397917D02*
D03*
X397917Y199685D02*
D03*
X401067D02*
D03*
X394571D02*
D03*
X392799Y203228D02*
D03*
X396342D02*
D03*
X386106D02*
D03*
X389650D02*
D03*
X387878Y199685D02*
D03*
X381382D02*
D03*
X384531D02*
D03*
D39*
X403823Y385772D02*
D03*
X378626D02*
D03*
X378626Y203228D02*
D03*
X403823D02*
D03*
D40*
X377642Y381283D02*
D03*
X404807Y207716D02*
D03*
D41*
X404807Y381283D02*
D03*
X377642Y207716D02*
D03*
D42*
X373606Y379709D02*
D03*
X408843D02*
D03*
X408843Y209291D02*
D03*
X373606D02*
D03*
D43*
X415142Y388921D02*
D03*
X367307D02*
D03*
X415142Y404118D02*
D03*
X367307Y403724D02*
D03*
X367307Y200079D02*
D03*
X415142D02*
D03*
X367307Y184882D02*
D03*
X415142Y185276D02*
D03*
D44*
X472441Y410000D02*
D03*
Y400000D02*
D03*
Y390000D02*
D03*
Y380000D02*
D03*
X442441D02*
D03*
Y390000D02*
D03*
Y400000D02*
D03*
D45*
Y410000D02*
D03*
D46*
X484000Y409903D02*
D03*
X514000D02*
D03*
X407000Y298000D02*
D03*
X377000D02*
D03*
Y288000D02*
D03*
X407000D02*
D03*
D47*
X480000Y227795D02*
D03*
X420000Y357900D02*
D03*
D48*
X480000Y238000D02*
D03*
Y247795D02*
D03*
Y257795D02*
D03*
Y267795D02*
D03*
Y277795D02*
D03*
Y287795D02*
D03*
Y297795D02*
D03*
Y307795D02*
D03*
Y317795D02*
D03*
Y327795D02*
D03*
Y337795D02*
D03*
Y347795D02*
D03*
Y357795D02*
D03*
X420000Y347900D02*
D03*
Y337900D02*
D03*
Y327900D02*
D03*
Y317900D02*
D03*
Y307900D02*
D03*
Y297900D02*
D03*
Y287900D02*
D03*
Y277900D02*
D03*
Y267900D02*
D03*
Y257900D02*
D03*
Y247900D02*
D03*
Y237900D02*
D03*
Y227900D02*
D03*
D49*
X506000Y192700D02*
D03*
X496000D02*
D03*
X457200D02*
D03*
X467200D02*
D03*
X477200D02*
D03*
X447200D02*
D03*
X437200D02*
D03*
D50*
X387000Y314461D02*
D03*
X377000D02*
D03*
X377244Y274150D02*
D03*
X387244D02*
D03*
D51*
X432000Y317795D02*
D03*
X362000Y340000D02*
D03*
Y350000D02*
D03*
X360000Y194700D02*
D03*
X424000Y178000D02*
D03*
X395276Y345276D02*
D03*
X402819Y326000D02*
D03*
D52*
X495000Y246905D02*
D03*
Y267205D02*
D03*
Y326819D02*
D03*
Y306906D02*
D03*
Y287055D02*
D03*
X511000Y317795D02*
D03*
Y297795D02*
D03*
Y277795D02*
D03*
Y237795D02*
D03*
Y257795D02*
D03*
M02*
