G04*
G04 #@! TF.GenerationSoftware,Altium Limited,Altium Designer,18.1.9 (240)*
G04*
G04 Layer_Color=32768*
%FSLAX25Y25*%
%MOIN*%
G70*
G01*
G75*
%ADD11C,0.00787*%
%ADD50C,0.00394*%
%ADD51C,0.00197*%
D11*
X370945Y162208D02*
X405355D01*
X376796Y429468D02*
X411205D01*
X513992Y178133D02*
Y205692D01*
X488402Y178133D02*
X513992D01*
X488402D02*
Y204117D01*
Y207267D01*
X513992D01*
Y205692D02*
Y207267D01*
X499031Y192700D02*
X502969D01*
X501000Y190732D02*
Y194668D01*
X457200Y190732D02*
Y194668D01*
X455232Y192700D02*
X459168D01*
X485192Y205692D02*
Y207267D01*
X429602D02*
X485192D01*
X429602Y204117D02*
Y207267D01*
Y178133D02*
Y204117D01*
Y178133D02*
X485192D01*
Y205692D01*
D50*
X365976Y359000D02*
X368024D01*
X367000Y357976D02*
Y360024D01*
X372976Y221000D02*
X375024D01*
X374000Y219976D02*
Y222024D01*
X382366Y226000D02*
X386303D01*
X384335Y224031D02*
Y227969D01*
X395161Y226000D02*
X399098D01*
X397130Y224031D02*
Y227969D01*
X376031Y359000D02*
X379969D01*
X378000Y357031D02*
Y360968D01*
X387032Y359000D02*
X390968D01*
X389000Y357031D02*
Y360968D01*
X400000Y357976D02*
Y360024D01*
X398976Y359000D02*
X401024D01*
X404976Y223000D02*
X407024D01*
X406000Y221976D02*
Y224024D01*
D51*
X368969Y355260D02*
Y362740D01*
X365032Y355260D02*
Y362740D01*
X368969D01*
X365032Y355260D02*
X368969D01*
X372031Y217260D02*
Y224740D01*
X375969Y217260D02*
Y224740D01*
X372031Y217260D02*
X375969D01*
X372031Y224740D02*
X375969D01*
X379807Y216748D02*
Y235252D01*
X388862Y216748D02*
Y235252D01*
X379807Y216748D02*
X388862D01*
X379807Y235252D02*
X388862D01*
X392602Y216748D02*
Y235252D01*
X401657Y216748D02*
Y235252D01*
X392602Y216748D02*
X401657D01*
X392602Y235252D02*
X401657D01*
X382528Y349748D02*
Y368252D01*
X373472Y349748D02*
Y368252D01*
X382528D01*
X373472Y349748D02*
X382528D01*
X393528D02*
Y368252D01*
X384472Y349748D02*
Y368252D01*
X393528D01*
X384472Y349748D02*
X393528D01*
X398031Y355260D02*
X401968D01*
X398031Y362740D02*
X401968D01*
X398031Y355260D02*
Y362740D01*
X401968Y355260D02*
Y362740D01*
X404032Y219260D02*
Y226740D01*
X407969Y219260D02*
Y226740D01*
X404032Y219260D02*
X407969D01*
X404032Y226740D02*
X407969D01*
M02*
