G04*
G04 #@! TF.GenerationSoftware,Altium Limited,Altium Designer,18.1.9 (240)*
G04*
G04 Layer_Color=2752767*
%FSLAX25Y25*%
%MOIN*%
G70*
G01*
G75*
%ADD52C,0.00200*%
%ADD53C,0.00267*%
D52*
X385775Y198141D02*
Y199741D01*
X387375D01*
Y198141D01*
X385775D01*
X388925D02*
Y199741D01*
X390525D01*
Y198141D01*
X388925D01*
X382626D02*
Y199741D01*
X384226D01*
Y198141D01*
X382626D01*
X392074D02*
Y199741D01*
X393674D01*
Y198141D01*
X392074D01*
X379476D02*
Y199741D01*
X381076D01*
Y198141D01*
X379476D01*
X395224D02*
Y199741D01*
X396824D01*
Y198141D01*
X395224D01*
X376326D02*
Y199741D01*
X377926D01*
Y198141D01*
X376326D01*
X398374D02*
Y199741D01*
X399974D01*
Y198141D01*
X398374D01*
X384200Y195385D02*
Y196985D01*
X385800D01*
Y195385D01*
X384200D01*
X390499D02*
Y196985D01*
X392099D01*
Y195385D01*
X390499D01*
X381051D02*
Y196985D01*
X382651D01*
Y195385D01*
X381051D01*
X393649D02*
Y196985D01*
X395249D01*
Y195385D01*
X393649D01*
X377901D02*
Y196985D01*
X379501D01*
Y195385D01*
X377901D01*
X396799D02*
Y196985D01*
X398399D01*
Y195385D01*
X396799D01*
X394775Y391936D02*
Y393536D01*
X396375D01*
Y391936D01*
X394775D01*
X391625D02*
Y393536D01*
X393226D01*
Y391936D01*
X391625D01*
X397925D02*
Y393536D01*
X399525D01*
Y391936D01*
X397925D01*
X388476D02*
Y393536D01*
X390076D01*
Y391936D01*
X388476D01*
X401074D02*
Y393536D01*
X402674D01*
Y391936D01*
X401074D01*
X385326D02*
Y393536D01*
X386926D01*
Y391936D01*
X385326D01*
X404224D02*
Y393536D01*
X405824D01*
Y391936D01*
X404224D01*
X382177D02*
Y393536D01*
X383777D01*
Y391936D01*
X382177D01*
X396350Y394692D02*
Y396292D01*
X397950D01*
Y394692D01*
X396350D01*
X390051D02*
Y396292D01*
X391651D01*
Y394692D01*
X390051D01*
X399500D02*
Y396292D01*
X401099D01*
Y394692D01*
X399500D01*
X386901D02*
Y396292D01*
X388501D01*
Y394692D01*
X386901D01*
X402649D02*
Y396292D01*
X404249D01*
Y394692D01*
X402649D01*
X383752D02*
Y396292D01*
X385351D01*
Y394692D01*
X383752D01*
X484000Y409103D02*
X483200Y410703D01*
X484800D01*
X484000Y409103D01*
X514000D02*
X513200Y410703D01*
X514800D01*
X514000Y409103D01*
X480000Y226995D02*
X480400Y227395D01*
X480800D01*
X480400Y227795D01*
X480800Y228195D01*
X480400D01*
X480000Y228595D01*
X479600Y228195D01*
X479200D01*
X479600Y227795D01*
X479200Y227395D01*
X479600D01*
X480000Y226995D01*
Y237200D02*
X480400Y237600D01*
X480800D01*
X480400Y238000D01*
X480800Y238400D01*
X480400D01*
X480000Y238800D01*
X479600Y238400D01*
X479200D01*
X479600Y238000D01*
X479200Y237600D01*
X479600D01*
X480000Y237200D01*
Y246995D02*
X480400Y247395D01*
X480800D01*
X480400Y247795D01*
X480800Y248195D01*
X480400D01*
X480000Y248595D01*
X479600Y248195D01*
X479200D01*
X479600Y247795D01*
X479200Y247395D01*
X479600D01*
X480000Y246995D01*
Y256995D02*
X480400Y257395D01*
X480800D01*
X480400Y257795D01*
X480800Y258195D01*
X480400D01*
X480000Y258595D01*
X479600Y258195D01*
X479200D01*
X479600Y257795D01*
X479200Y257395D01*
X479600D01*
X480000Y256995D01*
Y266995D02*
X480400Y267395D01*
X480800D01*
X480400Y267795D01*
X480800Y268195D01*
X480400D01*
X480000Y268595D01*
X479600Y268195D01*
X479200D01*
X479600Y267795D01*
X479200Y267395D01*
X479600D01*
X480000Y266995D01*
Y276995D02*
X480400Y277395D01*
X480800D01*
X480400Y277795D01*
X480800Y278195D01*
X480400D01*
X480000Y278595D01*
X479600Y278195D01*
X479200D01*
X479600Y277795D01*
X479200Y277395D01*
X479600D01*
X480000Y276995D01*
Y286995D02*
X480400Y287395D01*
X480800D01*
X480400Y287795D01*
X480800Y288195D01*
X480400D01*
X480000Y288595D01*
X479600Y288195D01*
X479200D01*
X479600Y287795D01*
X479200Y287395D01*
X479600D01*
X480000Y286995D01*
Y296995D02*
X480400Y297395D01*
X480800D01*
X480400Y297795D01*
X480800Y298195D01*
X480400D01*
X480000Y298595D01*
X479600Y298195D01*
X479200D01*
X479600Y297795D01*
X479200Y297395D01*
X479600D01*
X480000Y296995D01*
Y306995D02*
X480400Y307395D01*
X480800D01*
X480400Y307795D01*
X480800Y308195D01*
X480400D01*
X480000Y308595D01*
X479600Y308195D01*
X479200D01*
X479600Y307795D01*
X479200Y307395D01*
X479600D01*
X480000Y306995D01*
Y316995D02*
X480400Y317395D01*
X480800D01*
X480400Y317795D01*
X480800Y318195D01*
X480400D01*
X480000Y318595D01*
X479600Y318195D01*
X479200D01*
X479600Y317795D01*
X479200Y317395D01*
X479600D01*
X480000Y316995D01*
Y326995D02*
X480400Y327395D01*
X480800D01*
X480400Y327795D01*
X480800Y328195D01*
X480400D01*
X480000Y328595D01*
X479600Y328195D01*
X479200D01*
X479600Y327795D01*
X479200Y327395D01*
X479600D01*
X480000Y326995D01*
Y336995D02*
X480400Y337395D01*
X480800D01*
X480400Y337795D01*
X480800Y338195D01*
X480400D01*
X480000Y338595D01*
X479600Y338195D01*
X479200D01*
X479600Y337795D01*
X479200Y337395D01*
X479600D01*
X480000Y336995D01*
Y346995D02*
X480400Y347395D01*
X480800D01*
X480400Y347795D01*
X480800Y348195D01*
X480400D01*
X480000Y348595D01*
X479600Y348195D01*
X479200D01*
X479600Y347795D01*
X479200Y347395D01*
X479600D01*
X480000Y346995D01*
Y356995D02*
X480400Y357395D01*
X480800D01*
X480400Y357795D01*
X480800Y358195D01*
X480400D01*
X480000Y358595D01*
X479600Y358195D01*
X479200D01*
X479600Y357795D01*
X479200Y357395D01*
X479600D01*
X480000Y356995D01*
X420000Y357100D02*
X420400Y357500D01*
X420800D01*
X420400Y357900D01*
X420800Y358300D01*
X420400D01*
X420000Y358700D01*
X419600Y358300D01*
X419200D01*
X419600Y357900D01*
X419200Y357500D01*
X419600D01*
X420000Y357100D01*
Y347100D02*
X420400Y347500D01*
X420800D01*
X420400Y347900D01*
X420800Y348300D01*
X420400D01*
X420000Y348700D01*
X419600Y348300D01*
X419200D01*
X419600Y347900D01*
X419200Y347500D01*
X419600D01*
X420000Y347100D01*
Y337100D02*
X420400Y337500D01*
X420800D01*
X420400Y337900D01*
X420800Y338300D01*
X420400D01*
X420000Y338700D01*
X419600Y338300D01*
X419200D01*
X419600Y337900D01*
X419200Y337500D01*
X419600D01*
X420000Y337100D01*
Y327100D02*
X420400Y327500D01*
X420800D01*
X420400Y327900D01*
X420800Y328300D01*
X420400D01*
X420000Y328700D01*
X419600Y328300D01*
X419200D01*
X419600Y327900D01*
X419200Y327500D01*
X419600D01*
X420000Y327100D01*
Y317100D02*
X420400Y317500D01*
X420800D01*
X420400Y317900D01*
X420800Y318300D01*
X420400D01*
X420000Y318700D01*
X419600Y318300D01*
X419200D01*
X419600Y317900D01*
X419200Y317500D01*
X419600D01*
X420000Y317100D01*
Y307100D02*
X420400Y307500D01*
X420800D01*
X420400Y307900D01*
X420800Y308300D01*
X420400D01*
X420000Y308700D01*
X419600Y308300D01*
X419200D01*
X419600Y307900D01*
X419200Y307500D01*
X419600D01*
X420000Y307100D01*
Y297100D02*
X420400Y297500D01*
X420800D01*
X420400Y297900D01*
X420800Y298300D01*
X420400D01*
X420000Y298700D01*
X419600Y298300D01*
X419200D01*
X419600Y297900D01*
X419200Y297500D01*
X419600D01*
X420000Y297100D01*
Y287100D02*
X420400Y287500D01*
X420800D01*
X420400Y287900D01*
X420800Y288300D01*
X420400D01*
X420000Y288700D01*
X419600Y288300D01*
X419200D01*
X419600Y287900D01*
X419200Y287500D01*
X419600D01*
X420000Y287100D01*
Y277100D02*
X420400Y277500D01*
X420800D01*
X420400Y277900D01*
X420800Y278300D01*
X420400D01*
X420000Y278700D01*
X419600Y278300D01*
X419200D01*
X419600Y277900D01*
X419200Y277500D01*
X419600D01*
X420000Y277100D01*
Y267100D02*
X420400Y267500D01*
X420800D01*
X420400Y267900D01*
X420800Y268300D01*
X420400D01*
X420000Y268700D01*
X419600Y268300D01*
X419200D01*
X419600Y267900D01*
X419200Y267500D01*
X419600D01*
X420000Y267100D01*
Y257100D02*
X420400Y257500D01*
X420800D01*
X420400Y257900D01*
X420800Y258300D01*
X420400D01*
X420000Y258700D01*
X419600Y258300D01*
X419200D01*
X419600Y257900D01*
X419200Y257500D01*
X419600D01*
X420000Y257100D01*
Y247100D02*
X420400Y247500D01*
X420800D01*
X420400Y247900D01*
X420800Y248300D01*
X420400D01*
X420000Y248700D01*
X419600Y248300D01*
X419200D01*
X419600Y247900D01*
X419200Y247500D01*
X419600D01*
X420000Y247100D01*
Y237100D02*
X420400Y237500D01*
X420800D01*
X420400Y237900D01*
X420800Y238300D01*
X420400D01*
X420000Y238700D01*
X419600Y238300D01*
X419200D01*
X419600Y237900D01*
X419200Y237500D01*
X419600D01*
X420000Y237100D01*
Y227100D02*
X420400Y227500D01*
X420800D01*
X420400Y227900D01*
X420800Y228300D01*
X420400D01*
X420000Y228700D01*
X419600Y228300D01*
X419200D01*
X419600Y227900D01*
X419200Y227500D01*
X419600D01*
X420000Y227100D01*
X505200Y191900D02*
X505600Y192700D01*
X505200Y193500D01*
X506000Y193100D01*
X506800Y193500D01*
X506400Y192700D01*
X506800Y191900D01*
X506000Y192300D01*
X505200Y191900D01*
X495200D02*
X495600Y192700D01*
X495200Y193500D01*
X496000Y193100D01*
X496800Y193500D01*
X496400Y192700D01*
X496800Y191900D01*
X496000Y192300D01*
X495200Y191900D01*
X456400D02*
X456800Y192700D01*
X456400Y193500D01*
X457200Y193100D01*
X458000Y193500D01*
X457600Y192700D01*
X458000Y191900D01*
X457200Y192300D01*
X456400Y191900D01*
X466400D02*
X466800Y192700D01*
X466400Y193500D01*
X467200Y193100D01*
X468000Y193500D01*
X467600Y192700D01*
X468000Y191900D01*
X467200Y192300D01*
X466400Y191900D01*
X476400D02*
X476800Y192700D01*
X476400Y193500D01*
X477200Y193100D01*
X478000Y193500D01*
X477600Y192700D01*
X478000Y191900D01*
X477200Y192300D01*
X476400Y191900D01*
X446400D02*
X446800Y192700D01*
X446400Y193500D01*
X447200Y193100D01*
X448000Y193500D01*
X447600Y192700D01*
X448000Y191900D01*
X447200Y192300D01*
X446400Y191900D01*
X436400D02*
X436800Y192700D01*
X436400Y193500D01*
X437200Y193100D01*
X438000Y193500D01*
X437600Y192700D01*
X438000Y191900D01*
X437200Y192300D01*
X436400Y191900D01*
X407000Y297200D02*
X406200Y298800D01*
X407800D01*
X407000Y297200D01*
X377000D02*
X376200Y298800D01*
X377800D01*
X377000Y297200D01*
X386600Y314061D02*
Y313661D01*
X387400D01*
Y314061D01*
X387800D01*
Y314861D01*
X387400D01*
Y315261D01*
X386600D01*
Y314861D01*
X386200D01*
Y314061D01*
X386600D01*
X376600D02*
Y313661D01*
X377400D01*
Y314061D01*
X377800D01*
Y314861D01*
X377400D01*
Y315261D01*
X376600D01*
Y314861D01*
X376200D01*
Y314061D01*
X376600D01*
X376844Y273750D02*
Y273350D01*
X377644D01*
Y273750D01*
X378044D01*
Y274550D01*
X377644D01*
Y274950D01*
X376844D01*
Y274550D01*
X376444D01*
Y273750D01*
X376844D01*
X386844D02*
Y273350D01*
X387644D01*
Y273750D01*
X388044D01*
Y274550D01*
X387644D01*
Y274950D01*
X386844D01*
Y274550D01*
X386444D01*
Y273750D01*
X386844D01*
X377000Y287200D02*
X376200Y288800D01*
X377800D01*
X377000Y287200D01*
X407000D02*
X406200Y288800D01*
X407800D01*
X407000Y287200D01*
X383476Y211200D02*
X383876D01*
X384276Y211600D01*
X384676Y211200D01*
X385076D01*
Y211600D01*
X384676Y212000D01*
X385076Y212400D01*
Y212800D01*
X384676D01*
X384276Y212400D01*
X383876Y212800D01*
X383476D01*
Y212400D01*
X383876Y212000D01*
X383476Y211600D01*
Y211200D01*
X421200Y172200D02*
X421600D01*
X422000Y172600D01*
X422400Y172200D01*
X422800D01*
Y172600D01*
X422400Y173000D01*
X422800Y173400D01*
Y173800D01*
X422400D01*
X422000Y173400D01*
X421600Y173800D01*
X421200D01*
Y173400D01*
X421600Y173000D01*
X421200Y172600D01*
Y172200D01*
X417200Y195200D02*
X417600D01*
X418000Y195600D01*
X418400Y195200D01*
X418800D01*
Y195600D01*
X418400Y196000D01*
X418800Y196400D01*
Y196800D01*
X418400D01*
X418000Y196400D01*
X417600Y196800D01*
X417200D01*
Y196400D01*
X417600Y196000D01*
X417200Y195600D01*
Y195200D01*
X513200Y423200D02*
X513600D01*
X514000Y423600D01*
X514400Y423200D01*
X514800D01*
Y423600D01*
X514400Y424000D01*
X514800Y424400D01*
Y424800D01*
X514400D01*
X514000Y424400D01*
X513600Y424800D01*
X513200D01*
Y424400D01*
X513600Y424000D01*
X513200Y423600D01*
Y423200D01*
X456484Y380484D02*
X456883D01*
X457283Y380884D01*
X457684Y380484D01*
X458083D01*
Y380884D01*
X457684Y381283D01*
X458083Y381683D01*
Y382084D01*
X457684D01*
X457283Y381683D01*
X456883Y382084D01*
X456484D01*
Y381683D01*
X456883Y381283D01*
X456484Y380884D01*
Y380484D01*
X454039Y417200D02*
X454439D01*
X454839Y417600D01*
X455239Y417200D01*
X455639D01*
Y417600D01*
X455239Y418000D01*
X455639Y418400D01*
Y418800D01*
X455239D01*
X454839Y418400D01*
X454439Y418800D01*
X454039D01*
Y418400D01*
X454439Y418000D01*
X454039Y417600D01*
Y417200D01*
X431200Y316995D02*
X431600D01*
X432000Y317395D01*
X432400Y316995D01*
X432800D01*
Y317395D01*
X432400Y317795D01*
X432800Y318195D01*
Y318595D01*
X432400D01*
X432000Y318195D01*
X431600Y318595D01*
X431200D01*
Y318195D01*
X431600Y317795D01*
X431200Y317395D01*
Y316995D01*
X361200Y339200D02*
X361600D01*
X362000Y339600D01*
X362400Y339200D01*
X362800D01*
Y339600D01*
X362400Y340000D01*
X362800Y340400D01*
Y340800D01*
X362400D01*
X362000Y340400D01*
X361600Y340800D01*
X361200D01*
Y340400D01*
X361600Y340000D01*
X361200Y339600D01*
Y339200D01*
Y349200D02*
X361600D01*
X362000Y349600D01*
X362400Y349200D01*
X362800D01*
Y349600D01*
X362400Y350000D01*
X362800Y350400D01*
Y350800D01*
X362400D01*
X362000Y350400D01*
X361600Y350800D01*
X361200D01*
Y350400D01*
X361600Y350000D01*
X361200Y349600D01*
Y349200D01*
X394476Y344476D02*
X394876D01*
X395276Y344876D01*
X395676Y344476D01*
X396076D01*
Y344876D01*
X395676Y345276D01*
X396076Y345676D01*
Y346076D01*
X395676D01*
X395276Y345676D01*
X394876Y346076D01*
X394476D01*
Y345676D01*
X394876Y345276D01*
X394476Y344876D01*
Y344476D01*
X402019Y325200D02*
X402419D01*
X402819Y325600D01*
X403219Y325200D01*
X403619D01*
Y325600D01*
X403219Y326000D01*
X403619Y326400D01*
Y326800D01*
X403219D01*
X402819Y326400D01*
X402419Y326800D01*
X402019D01*
Y326400D01*
X402419Y326000D01*
X402019Y325600D01*
Y325200D01*
X494200Y246905D02*
X495000Y247706D01*
X495800Y246905D01*
X495000Y246106D01*
X494200Y246905D01*
Y267205D02*
X495000Y268005D01*
X495800Y267205D01*
X495000Y266405D01*
X494200Y267205D01*
Y326819D02*
X495000Y327619D01*
X495800Y326819D01*
X495000Y326019D01*
X494200Y326819D01*
Y306906D02*
X495000Y307705D01*
X495800Y306906D01*
X495000Y306105D01*
X494200Y306906D01*
Y287055D02*
X495000Y287855D01*
X495800Y287055D01*
X495000Y286255D01*
X494200Y287055D01*
X510200Y317795D02*
X511000Y318595D01*
X511800Y317795D01*
X511000Y316995D01*
X510200Y317795D01*
Y297795D02*
X511000Y298595D01*
X511800Y297795D01*
X511000Y296995D01*
X510200Y297795D01*
Y277795D02*
X511000Y278595D01*
X511800Y277795D01*
X511000Y276995D01*
X510200Y277795D01*
Y237795D02*
X511000Y238595D01*
X511800Y237795D01*
X511000Y236995D01*
X510200Y237795D01*
Y257795D02*
X511000Y258595D01*
X511800Y257795D01*
X511000Y256995D01*
X510200Y257795D01*
D53*
X405761Y194413D02*
G03*
X405761Y194413I-800J0D01*
G01*
X372139D02*
G03*
X372139Y194413I-800J0D01*
G01*
X405761Y175791D02*
G03*
X405761Y175791I-800J0D01*
G01*
X372139D02*
G03*
X372139Y175791I-800J0D01*
G01*
X377989Y397264D02*
G03*
X377989Y397264I-800J0D01*
G01*
X411611D02*
G03*
X411611Y397264I-800J0D01*
G01*
X377989Y415886D02*
G03*
X377989Y415886I-800J0D01*
G01*
X411611D02*
G03*
X411611Y415886I-800J0D01*
G01*
M02*
