G04*
G04 #@! TF.GenerationSoftware,Altium Limited,Altium Designer,18.1.9 (240)*
G04*
G04 Layer_Color=16711935*
%FSLAX25Y25*%
%MOIN*%
G70*
G01*
G75*
%ADD31C,0.03359*%
%ADD32O,0.04737X0.07099*%
%ADD33C,0.06312*%
%ADD34R,0.06706X0.06706*%
%ADD35C,0.06706*%
%ADD36O,0.07690X0.10642*%
%ADD37C,0.07099*%
%ADD38C,0.05800*%
%ADD39C,0.03300*%
D31*
X386575Y198941D02*
D03*
X389725D02*
D03*
X383425D02*
D03*
X392874D02*
D03*
X380276D02*
D03*
X396024D02*
D03*
X377126D02*
D03*
X399173D02*
D03*
X385000Y196185D02*
D03*
X391300D02*
D03*
X381851D02*
D03*
X394449D02*
D03*
X378701D02*
D03*
X397599D02*
D03*
X395575Y392736D02*
D03*
X392425D02*
D03*
X398725D02*
D03*
X389276D02*
D03*
X401874D02*
D03*
X386126D02*
D03*
X405024D02*
D03*
X382977D02*
D03*
X397150Y395492D02*
D03*
X390851D02*
D03*
X400300D02*
D03*
X387701D02*
D03*
X403449D02*
D03*
X384552D02*
D03*
D32*
X404961Y194413D02*
D03*
X371339D02*
D03*
X404961Y175791D02*
D03*
X371339D02*
D03*
X377189Y397264D02*
D03*
X410811D02*
D03*
X377189Y415886D02*
D03*
X410811D02*
D03*
D33*
X484000Y409903D02*
D03*
X514000D02*
D03*
X407000Y298000D02*
D03*
X377000D02*
D03*
Y288000D02*
D03*
X407000D02*
D03*
D34*
X480000Y227795D02*
D03*
X420000Y357900D02*
D03*
D35*
X480000Y238000D02*
D03*
Y247795D02*
D03*
Y257795D02*
D03*
Y267795D02*
D03*
Y277795D02*
D03*
Y287795D02*
D03*
Y297795D02*
D03*
Y307795D02*
D03*
Y317795D02*
D03*
Y327795D02*
D03*
Y337795D02*
D03*
Y347795D02*
D03*
Y357795D02*
D03*
X420000Y347900D02*
D03*
Y337900D02*
D03*
Y327900D02*
D03*
Y317900D02*
D03*
Y307900D02*
D03*
Y297900D02*
D03*
Y287900D02*
D03*
Y277900D02*
D03*
Y267900D02*
D03*
Y257900D02*
D03*
Y247900D02*
D03*
Y237900D02*
D03*
Y227900D02*
D03*
D36*
X506000Y192700D02*
D03*
X496000D02*
D03*
X457200D02*
D03*
X467200D02*
D03*
X477200D02*
D03*
X447200D02*
D03*
X437200D02*
D03*
D37*
X387000Y314461D02*
D03*
X377000D02*
D03*
X377244Y274150D02*
D03*
X387244D02*
D03*
D38*
X384276Y212000D02*
D03*
X422000Y173000D02*
D03*
X418000Y196000D02*
D03*
X514000Y424000D02*
D03*
X457283Y381283D02*
D03*
X454839Y418000D02*
D03*
X432000Y317795D02*
D03*
X362000Y340000D02*
D03*
Y350000D02*
D03*
X395276Y345276D02*
D03*
X402819Y326000D02*
D03*
D39*
X495000Y246905D02*
D03*
Y267205D02*
D03*
Y326819D02*
D03*
Y306906D02*
D03*
Y287055D02*
D03*
X511000Y317795D02*
D03*
Y297795D02*
D03*
Y277795D02*
D03*
Y237795D02*
D03*
Y257795D02*
D03*
M02*
