G04*
G04 #@! TF.GenerationSoftware,Altium Limited,Altium Designer,18.1.9 (240)*
G04*
G04 Layer_Color=16711935*
%FSLAX25Y25*%
%MOIN*%
G70*
G01*
G75*
%ADD11C,0.00787*%
%ADD50C,0.00394*%
D11*
X370945Y158468D02*
X405355D01*
X370945D02*
Y204885D01*
X405355D01*
Y158468D02*
Y204885D01*
X376796Y433209D02*
X411205D01*
Y386791D02*
Y433209D01*
X376796Y386791D02*
X411205D01*
X376796D02*
Y433209D01*
X511906Y179905D02*
Y205495D01*
X490095Y179905D02*
X511906D01*
X490095D02*
Y205495D01*
X511906D01*
X431295D02*
X483106D01*
X431295Y179905D02*
Y205495D01*
Y179905D02*
X483106D01*
Y205495D01*
D50*
X368024Y356972D02*
Y361028D01*
X365976Y356972D02*
Y361028D01*
X368024D01*
X365976Y356972D02*
X368024D01*
X372976Y218972D02*
Y223028D01*
X375024Y218972D02*
Y223028D01*
X372976Y218972D02*
X375024D01*
X372976Y223028D02*
X375024D01*
X380791Y219307D02*
Y232693D01*
X387878Y219307D02*
Y232693D01*
X380791Y219307D02*
X387878D01*
X380791Y232693D02*
X387878D01*
X393587Y219307D02*
Y232693D01*
X400673Y219307D02*
Y232693D01*
X393587Y219307D02*
X400673D01*
X393587Y232693D02*
X400673D01*
X381543Y352307D02*
Y365693D01*
X374457Y352307D02*
Y365693D01*
X381543D01*
X374457Y352307D02*
X381543D01*
X392543D02*
Y365693D01*
X385457Y352307D02*
Y365693D01*
X392543D01*
X385457Y352307D02*
X392543D01*
X398976Y356972D02*
X401024D01*
X398976Y361028D02*
X401024D01*
X398976Y356972D02*
Y361028D01*
X401024Y356972D02*
Y361028D01*
X404976Y220972D02*
Y225028D01*
X407024Y220972D02*
Y225028D01*
X404976Y220972D02*
X407024D01*
X404976Y225028D02*
X407024D01*
M02*
