G04*
G04 #@! TF.GenerationSoftware,Altium Limited,Altium Designer,18.1.9 (240)*
G04*
G04 Layer_Color=128*
%FSLAX25Y25*%
%MOIN*%
G70*
G01*
G75*
%ADD52C,0.00200*%
D52*
X385788Y198941D02*
X387363D01*
X386575Y198153D02*
Y199728D01*
X388937Y198941D02*
X390512D01*
X389725Y198153D02*
Y199728D01*
X382638Y198941D02*
X384213D01*
X383425Y198153D02*
Y199728D01*
X392087Y198941D02*
X393662D01*
X392874Y198153D02*
Y199728D01*
X379488Y198941D02*
X381063D01*
X380276Y198153D02*
Y199728D01*
X395236Y198941D02*
X396811D01*
X396024Y198153D02*
Y199728D01*
X376339Y198941D02*
X377914D01*
X377126Y198153D02*
Y199728D01*
X398386Y198941D02*
X399961D01*
X399173Y198153D02*
Y199728D01*
X384213Y196185D02*
X385788D01*
X385000Y195397D02*
Y196972D01*
X390512Y196185D02*
X392087D01*
X391300Y195397D02*
Y196972D01*
X381063Y196185D02*
X382638D01*
X381851Y195397D02*
Y196972D01*
X393662Y196185D02*
X395236D01*
X394449Y195397D02*
Y196972D01*
X377914Y196185D02*
X379488D01*
X378701Y195397D02*
Y196972D01*
X396811Y196185D02*
X398386D01*
X397599Y195397D02*
Y196972D01*
X403780Y194413D02*
X406142D01*
X404961Y193232D02*
Y195594D01*
X370158Y194413D02*
X372520D01*
X371339Y193232D02*
Y195594D01*
X403780Y175791D02*
X406142D01*
X404961Y174610D02*
Y176972D01*
X370158Y175791D02*
X372520D01*
X371339Y174610D02*
Y176972D01*
X394788Y392736D02*
X396362D01*
X395575Y391949D02*
Y393524D01*
X391638Y392736D02*
X393213D01*
X392425Y391949D02*
Y393524D01*
X397937Y392736D02*
X399512D01*
X398725Y391949D02*
Y393524D01*
X388489Y392736D02*
X390063D01*
X389276Y391949D02*
Y393524D01*
X401087Y392736D02*
X402662D01*
X401874Y391949D02*
Y393524D01*
X385339Y392736D02*
X386914D01*
X386126Y391949D02*
Y393524D01*
X404237Y392736D02*
X405811D01*
X405024Y391949D02*
Y393524D01*
X382189Y392736D02*
X383764D01*
X382977Y391949D02*
Y393524D01*
X396362Y395492D02*
X397937D01*
X397150Y394705D02*
Y396280D01*
X390063Y395492D02*
X391638D01*
X390851Y394705D02*
Y396280D01*
X399512Y395492D02*
X401087D01*
X400300Y394705D02*
Y396280D01*
X386914Y395492D02*
X388489D01*
X387701Y394705D02*
Y396280D01*
X402662Y395492D02*
X404237D01*
X403449Y394705D02*
Y396280D01*
X383764Y395492D02*
X385339D01*
X384552Y394705D02*
Y396280D01*
X376008Y397264D02*
X378370D01*
X377189Y396083D02*
Y398445D01*
X409630Y397264D02*
X411992D01*
X410811Y396083D02*
Y398445D01*
X376008Y415886D02*
X378370D01*
X377189Y414705D02*
Y417067D01*
X409630Y415886D02*
X411992D01*
X410811Y414705D02*
Y417067D01*
X482327Y409903D02*
X485673D01*
X484000Y408230D02*
Y411576D01*
X512327Y409903D02*
X515673D01*
X514000Y408230D02*
Y411576D01*
X478228Y227795D02*
X481772D01*
X480000Y226024D02*
Y229567D01*
X478228Y238000D02*
X481772D01*
X480000Y236228D02*
Y239772D01*
X478228Y247795D02*
X481772D01*
X480000Y246024D02*
Y249567D01*
X478228Y257795D02*
X481772D01*
X480000Y256024D02*
Y259567D01*
X478228Y267795D02*
X481772D01*
X480000Y266024D02*
Y269567D01*
X478228Y277795D02*
X481772D01*
X480000Y276024D02*
Y279567D01*
X478228Y287795D02*
X481772D01*
X480000Y286024D02*
Y289567D01*
X478228Y297795D02*
X481772D01*
X480000Y296024D02*
Y299567D01*
X478228Y307795D02*
X481772D01*
X480000Y306024D02*
Y309567D01*
X478228Y317795D02*
X481772D01*
X480000Y316024D02*
Y319567D01*
X478228Y327795D02*
X481772D01*
X480000Y326024D02*
Y329567D01*
X478228Y337795D02*
X481772D01*
X480000Y336024D02*
Y339567D01*
X478228Y347795D02*
X481772D01*
X480000Y346024D02*
Y349567D01*
X478228Y357795D02*
X481772D01*
X480000Y356024D02*
Y359567D01*
X418228Y357900D02*
X421772D01*
X420000Y356128D02*
Y359672D01*
X418228Y347900D02*
X421772D01*
X420000Y346128D02*
Y349672D01*
X418228Y337900D02*
X421772D01*
X420000Y336128D02*
Y339672D01*
X418228Y327900D02*
X421772D01*
X420000Y326128D02*
Y329672D01*
X418228Y317900D02*
X421772D01*
X420000Y316128D02*
Y319672D01*
X418228Y307900D02*
X421772D01*
X420000Y306128D02*
Y309672D01*
X418228Y297900D02*
X421772D01*
X420000Y296128D02*
Y299672D01*
X418228Y287900D02*
X421772D01*
X420000Y286128D02*
Y289672D01*
X418228Y277900D02*
X421772D01*
X420000Y276128D02*
Y279672D01*
X418228Y267900D02*
X421772D01*
X420000Y266128D02*
Y269672D01*
X418228Y257900D02*
X421772D01*
X420000Y256128D02*
Y259672D01*
X418228Y247900D02*
X421772D01*
X420000Y246128D02*
Y249672D01*
X418228Y237900D02*
X421772D01*
X420000Y236128D02*
Y239672D01*
X418228Y227900D02*
X421772D01*
X420000Y226128D02*
Y229672D01*
X503835Y192700D02*
X508165D01*
X506000Y190535D02*
Y194865D01*
X493835Y192700D02*
X498165D01*
X496000Y190535D02*
Y194865D01*
X455035Y192700D02*
X459365D01*
X457200Y190535D02*
Y194865D01*
X465035Y192700D02*
X469365D01*
X467200Y190535D02*
Y194865D01*
X475035Y192700D02*
X479365D01*
X477200Y190535D02*
Y194865D01*
X445035Y192700D02*
X449365D01*
X447200Y190535D02*
Y194865D01*
X435035Y192700D02*
X439365D01*
X437200Y190535D02*
Y194865D01*
X405327Y298000D02*
X408673D01*
X407000Y296327D02*
Y299673D01*
X375327Y298000D02*
X378673D01*
X377000Y296327D02*
Y299673D01*
X385425Y314461D02*
X388575D01*
X387000Y312887D02*
Y316036D01*
X375425Y314461D02*
X378575D01*
X377000Y312887D02*
Y316036D01*
X375669Y274150D02*
X378819D01*
X377244Y272575D02*
Y275724D01*
X385669Y274150D02*
X388819D01*
X387244Y272575D02*
Y275724D01*
X375327Y288000D02*
X378673D01*
X377000Y286327D02*
Y289673D01*
X405327Y288000D02*
X408673D01*
X407000Y286327D02*
Y289673D01*
X382876Y212000D02*
X385676D01*
X384276Y210600D02*
Y213400D01*
X420600Y173000D02*
X423400D01*
X422000Y171600D02*
Y174400D01*
X416600Y196000D02*
X419400D01*
X418000Y194600D02*
Y197400D01*
X512600Y424000D02*
X515400D01*
X514000Y422600D02*
Y425400D01*
X455884Y381283D02*
X458683D01*
X457283Y379884D02*
Y382683D01*
X453439Y418000D02*
X456239D01*
X454839Y416600D02*
Y419400D01*
X430600Y317795D02*
X433400D01*
X432000Y316395D02*
Y319195D01*
X360600Y340000D02*
X363400D01*
X362000Y338600D02*
Y341400D01*
X360600Y350000D02*
X363400D01*
X362000Y348600D02*
Y351400D01*
X393876Y345276D02*
X396676D01*
X395276Y343876D02*
Y346676D01*
X401419Y326000D02*
X404219D01*
X402819Y324600D02*
Y327400D01*
X494250Y246905D02*
X495750D01*
X495000Y246156D02*
Y247656D01*
X494250Y267205D02*
X495750D01*
X495000Y266455D02*
Y267955D01*
X494250Y326819D02*
X495750D01*
X495000Y326069D02*
Y327569D01*
X494250Y306906D02*
X495750D01*
X495000Y306155D02*
Y307656D01*
X494250Y287055D02*
X495750D01*
X495000Y286305D02*
Y287805D01*
X510250Y317795D02*
X511750D01*
X511000Y317045D02*
Y318545D01*
X510250Y297795D02*
X511750D01*
X511000Y297045D02*
Y298545D01*
X510250Y277795D02*
X511750D01*
X511000Y277045D02*
Y278545D01*
X510250Y237795D02*
X511750D01*
X511000Y237045D02*
Y238545D01*
X510250Y257795D02*
X511750D01*
X511000Y257045D02*
Y258545D01*
M02*
