G04*
G04 #@! TF.GenerationSoftware,Altium Limited,Altium Designer,18.1.9 (240)*
G04*
G04 Layer_Physical_Order=1*
G04 Layer_Color=255*
%FSLAX25Y25*%
%MOIN*%
G70*
G01*
G75*
%ADD15R,0.01181X0.04724*%
%ADD16R,0.00787X0.03937*%
%ADD17R,0.09449X0.06299*%
%ADD18R,0.01260X0.03307*%
%ADD19R,0.02520X0.02362*%
%ADD20R,0.01850X0.01968*%
%ADD21R,0.01772X0.00945*%
%ADD22R,0.07087X0.05118*%
%ADD40C,0.00800*%
%ADD41C,0.02559*%
%ADD42O,0.03937X0.06299*%
%ADD43C,0.05512*%
%ADD44R,0.05906X0.05906*%
%ADD45C,0.05906*%
%ADD46O,0.06890X0.09843*%
%ADD47C,0.06299*%
%ADD48C,0.05000*%
%ADD49C,0.02500*%
G36*
X531038Y429969D02*
X530838Y162000D01*
X346354D01*
X346000Y162354D01*
X346185Y430323D01*
X530685D01*
X531038Y429969D01*
D02*
G37*
%LPC*%
G36*
X517000Y428816D02*
X517000Y428816D01*
X422000Y428816D01*
X406000D01*
X406000Y428816D01*
X405688Y428754D01*
X405423Y428577D01*
X399723Y422876D01*
X399546Y422612D01*
X399484Y422299D01*
X399484Y422299D01*
Y396967D01*
X399089Y396703D01*
X398975Y396533D01*
X398475D01*
X398361Y396703D01*
X397805Y397074D01*
X397150Y397205D01*
X396495Y397074D01*
X395939Y396703D01*
X395675Y396308D01*
X392326D01*
X392062Y396703D01*
X391666Y396967D01*
Y399149D01*
X391666Y399149D01*
X391604Y399462D01*
X391427Y399726D01*
X391427Y399726D01*
X384577Y406577D01*
X384312Y406754D01*
X384000Y406816D01*
X384000Y406816D01*
X369000D01*
X368688Y406754D01*
X368423Y406577D01*
X368423Y406577D01*
X361423Y399577D01*
X361246Y399312D01*
X361184Y399000D01*
X361184Y399000D01*
Y352801D01*
X360538Y352533D01*
X359932Y352068D01*
X359467Y351463D01*
X359175Y350757D01*
X359075Y350000D01*
X359175Y349243D01*
X359467Y348537D01*
X359932Y347932D01*
X360538Y347467D01*
X361243Y347175D01*
X362000Y347075D01*
X362757Y347175D01*
X363462Y347467D01*
X364068Y347932D01*
X364533Y348537D01*
X364825Y349243D01*
X364925Y350000D01*
X364825Y350757D01*
X364533Y351463D01*
X364068Y352068D01*
X363462Y352533D01*
X362816Y352801D01*
Y398662D01*
X369338Y405184D01*
X373485D01*
X373584Y404684D01*
X373423Y404577D01*
X373423Y404577D01*
X369423Y400577D01*
X369246Y400312D01*
X369184Y400000D01*
X369184Y400000D01*
Y388000D01*
X369184Y388000D01*
X369246Y387688D01*
X369423Y387423D01*
X388184Y368662D01*
Y367668D01*
X385057D01*
Y361750D01*
X392943D01*
Y363893D01*
X395686D01*
X398340Y361239D01*
Y359449D01*
X397740D01*
Y357768D01*
X400000D01*
X402260D01*
Y358780D01*
X402760Y358987D01*
X404184Y357562D01*
Y355338D01*
X399423Y350577D01*
X399246Y350312D01*
X399184Y350000D01*
X399184Y350000D01*
Y347929D01*
X399184Y347929D01*
X399246Y347617D01*
X399423Y347352D01*
Y346852D01*
X398662Y346091D01*
X398077D01*
X397809Y346738D01*
X397344Y347344D01*
X396738Y347809D01*
X396033Y348101D01*
X395276Y348201D01*
X394518Y348101D01*
X393813Y347809D01*
X393207Y347344D01*
X392742Y346738D01*
X392450Y346033D01*
X392351Y345276D01*
X392450Y344518D01*
X392742Y343813D01*
X393207Y343207D01*
X393813Y342742D01*
X394518Y342450D01*
X395276Y342351D01*
X396033Y342450D01*
X396738Y342742D01*
X397344Y343207D01*
X397809Y343813D01*
X398077Y344460D01*
X399000D01*
X399000Y344460D01*
X399312Y344522D01*
X399577Y344699D01*
X400852Y345974D01*
X401352Y345767D01*
Y345718D01*
X404002D01*
Y348487D01*
X401352D01*
X400932Y348679D01*
X400816Y348757D01*
Y349662D01*
X405577Y354423D01*
X405577Y354423D01*
X405754Y354688D01*
X405816Y355000D01*
X405816Y355000D01*
Y357900D01*
X405754Y358212D01*
X405577Y358477D01*
X405577Y358477D01*
X402744Y361309D01*
X402480Y361486D01*
X402168Y361548D01*
X402168Y361548D01*
X401660D01*
Y362313D01*
X399572D01*
X396600Y365285D01*
X396336Y365462D01*
X396024Y365524D01*
X396024Y365524D01*
X392943D01*
Y367668D01*
X389816D01*
Y368662D01*
X390338Y369184D01*
X431000D01*
X431000Y369184D01*
X431312Y369246D01*
X431577Y369423D01*
X434577Y372423D01*
X434754Y372688D01*
X434816Y373000D01*
X434816Y373000D01*
Y407662D01*
X441338Y414184D01*
X447383D01*
X448905Y412662D01*
Y408154D01*
X448691Y407743D01*
X448191D01*
X447977Y408154D01*
Y409742D01*
X447915Y410054D01*
X447738Y410319D01*
X447738Y410319D01*
X446480Y411577D01*
X446215Y411754D01*
X445903Y411816D01*
X445903Y411816D01*
X442000D01*
X441688Y411754D01*
X441423Y411577D01*
X441423Y411577D01*
X436723Y406877D01*
X436546Y406612D01*
X436484Y406300D01*
X436484Y406300D01*
Y314799D01*
X430401Y308716D01*
X423274D01*
X423266Y308775D01*
X422929Y309591D01*
X422391Y310291D01*
X421691Y310829D01*
X420875Y311166D01*
X420000Y311282D01*
X419125Y311166D01*
X418309Y310829D01*
X417609Y310291D01*
X417071Y309591D01*
X416734Y308775D01*
X416618Y307900D01*
X416734Y307025D01*
X417071Y306209D01*
X417609Y305509D01*
X418309Y304971D01*
X419125Y304634D01*
X420000Y304518D01*
X420875Y304634D01*
X421691Y304971D01*
X422391Y305509D01*
X422929Y306209D01*
X423266Y307025D01*
X423274Y307084D01*
X430738D01*
X430739Y307084D01*
X431051Y307146D01*
X431315Y307323D01*
X437877Y313885D01*
X438054Y314149D01*
X438116Y314461D01*
X438116Y314461D01*
Y405962D01*
X442338Y410184D01*
X445565D01*
X446346Y409404D01*
Y407743D01*
X446132D01*
Y403944D01*
X445876Y403550D01*
X445876Y403241D01*
Y396759D01*
X445876Y396450D01*
X446132Y396056D01*
Y392257D01*
X448190D01*
X448191Y392257D01*
X448691D01*
X448905Y391846D01*
Y388280D01*
X448905Y388280D01*
X448967Y387967D01*
X449144Y387703D01*
X454560Y382287D01*
X454458Y382041D01*
X454358Y381283D01*
X454458Y380526D01*
X454750Y379821D01*
X455215Y379215D01*
X455821Y378750D01*
X456526Y378458D01*
X457283Y378358D01*
X458041Y378458D01*
X458746Y378750D01*
X459352Y379215D01*
X459817Y379821D01*
X460109Y380526D01*
X460209Y381283D01*
X460109Y382041D01*
X459817Y382746D01*
X459352Y383352D01*
X458746Y383817D01*
X458041Y384109D01*
X457283Y384208D01*
X456526Y384109D01*
X455821Y383817D01*
X455547Y383606D01*
X450536Y388617D01*
Y391846D01*
X450750Y392257D01*
X451250D01*
X451464Y391846D01*
Y390000D01*
X451464Y390000D01*
X451526Y389688D01*
X451703Y389423D01*
X454703Y386423D01*
X454967Y386246D01*
X455279Y386184D01*
X455280Y386184D01*
X460000D01*
X460000Y386184D01*
X460312Y386246D01*
X460577Y386423D01*
X462577Y388423D01*
X462577Y388423D01*
X462754Y388688D01*
X462816Y389000D01*
X462816Y389000D01*
Y393662D01*
X468338Y399184D01*
X517662D01*
X524184Y392662D01*
Y181338D01*
X514100Y171254D01*
X471777D01*
X468016Y175015D01*
Y187453D01*
X468204Y187478D01*
X469139Y187865D01*
X469942Y188481D01*
X470559Y189285D01*
X470946Y190220D01*
X471078Y191224D01*
Y194176D01*
X470946Y195180D01*
X470559Y196115D01*
X469942Y196919D01*
X469139Y197535D01*
X468204Y197922D01*
X468016Y197947D01*
Y212862D01*
X474338Y219184D01*
X489662D01*
X495184Y213662D01*
Y197947D01*
X494996Y197922D01*
X494061Y197535D01*
X493258Y196919D01*
X492641Y196115D01*
X492254Y195180D01*
X492122Y194176D01*
Y191224D01*
X492254Y190220D01*
X492641Y189285D01*
X493258Y188481D01*
X494061Y187865D01*
X494996Y187478D01*
X496000Y187346D01*
X497004Y187478D01*
X497939Y187865D01*
X498742Y188481D01*
X499359Y189285D01*
X499746Y190220D01*
X499878Y191224D01*
Y194176D01*
X499746Y195180D01*
X499359Y196115D01*
X498742Y196919D01*
X497939Y197535D01*
X497004Y197922D01*
X496816Y197947D01*
Y214000D01*
X496754Y214312D01*
X496577Y214577D01*
X496577Y214577D01*
X490577Y220577D01*
X490312Y220754D01*
X490000Y220816D01*
X490000Y220816D01*
X474000D01*
X473688Y220754D01*
X473423Y220577D01*
X473423Y220577D01*
X466623Y213777D01*
X466446Y213512D01*
X466384Y213200D01*
X466384Y213200D01*
Y197947D01*
X466196Y197922D01*
X465261Y197535D01*
X464458Y196919D01*
X463841Y196115D01*
X463454Y195180D01*
X463322Y194176D01*
Y191224D01*
X463454Y190220D01*
X463487Y190140D01*
X462423Y189077D01*
X462246Y188812D01*
X462184Y188500D01*
X462184Y188500D01*
Y178338D01*
X460662Y176816D01*
X429338D01*
X422577Y183577D01*
X422312Y183754D01*
X422000Y183816D01*
X422000Y183816D01*
X400842D01*
X393081Y191577D01*
X392816Y191754D01*
X392504Y191816D01*
X392504Y191816D01*
X385299D01*
X382841Y194273D01*
X382887Y194857D01*
X383062Y194974D01*
X383175Y195144D01*
X383676D01*
X383789Y194974D01*
X384345Y194603D01*
X385000Y194472D01*
X385656Y194603D01*
X386211Y194974D01*
X386475Y195369D01*
X389825D01*
X390089Y194974D01*
X390644Y194603D01*
X391300Y194472D01*
X391766Y194565D01*
X400907Y185423D01*
X400907Y185423D01*
X401172Y185246D01*
X401484Y185184D01*
X401484Y185184D01*
X414768D01*
X414768Y185184D01*
X415080Y185246D01*
X415344Y185423D01*
X418577Y188655D01*
X418577Y188655D01*
X421806Y191884D01*
X433322D01*
Y191224D01*
X433454Y190220D01*
X433842Y189285D01*
X434458Y188481D01*
X435261Y187865D01*
X436196Y187478D01*
X437200Y187346D01*
X438204Y187478D01*
X439139Y187865D01*
X439942Y188481D01*
X440558Y189285D01*
X440946Y190220D01*
X441078Y191224D01*
Y194176D01*
X440946Y195180D01*
X440558Y196115D01*
X439942Y196919D01*
X439139Y197535D01*
X438204Y197922D01*
X437200Y198054D01*
X436196Y197922D01*
X435261Y197535D01*
X434458Y196919D01*
X433842Y196115D01*
X433454Y195180D01*
X433322Y194176D01*
Y193516D01*
X421468D01*
X421156Y193454D01*
X420891Y193277D01*
X420891Y193277D01*
X419278Y191663D01*
X418816Y191855D01*
Y193199D01*
X419462Y193467D01*
X420068Y193932D01*
X420533Y194537D01*
X420825Y195243D01*
X420925Y196000D01*
X420825Y196757D01*
X420533Y197462D01*
X420068Y198068D01*
X419462Y198533D01*
X418757Y198825D01*
X418000Y198925D01*
X417243Y198825D01*
X416538Y198533D01*
X415932Y198068D01*
X415467Y197462D01*
X415175Y196757D01*
X415075Y196000D01*
X415175Y195243D01*
X415467Y194537D01*
X415932Y193932D01*
X416538Y193467D01*
X417184Y193199D01*
Y189570D01*
X414430Y186816D01*
X410514D01*
X410416Y187316D01*
X410577Y187423D01*
X413577Y190423D01*
X413754Y190688D01*
X413816Y191000D01*
X413816Y191000D01*
Y214268D01*
X413816Y214268D01*
X413754Y214580D01*
X413577Y214844D01*
X413577Y214844D01*
X411699Y216722D01*
X411890Y217184D01*
X438062D01*
X446384Y208862D01*
Y197947D01*
X446196Y197922D01*
X445261Y197535D01*
X444458Y196919D01*
X443842Y196115D01*
X443454Y195180D01*
X443322Y194176D01*
Y191224D01*
X443454Y190220D01*
X443842Y189285D01*
X444458Y188481D01*
X445261Y187865D01*
X446196Y187478D01*
X447200Y187346D01*
X448204Y187478D01*
X449139Y187865D01*
X449942Y188481D01*
X450559Y189285D01*
X450946Y190220D01*
X451078Y191224D01*
Y194176D01*
X450946Y195180D01*
X450559Y196115D01*
X449942Y196919D01*
X449139Y197535D01*
X448204Y197922D01*
X448016Y197947D01*
Y209200D01*
X448016Y209200D01*
X447954Y209512D01*
X447777Y209777D01*
X439553Y218000D01*
X448577Y227023D01*
X448754Y227288D01*
X448816Y227600D01*
X448816Y227600D01*
Y304000D01*
X448816Y304000D01*
X448816Y304000D01*
Y329867D01*
X475928Y356980D01*
X476726D01*
X476734Y356920D01*
X477071Y356104D01*
X477609Y355404D01*
X478309Y354867D01*
X479125Y354529D01*
X480000Y354414D01*
X480875Y354529D01*
X481691Y354867D01*
X482391Y355404D01*
X482929Y356104D01*
X483266Y356920D01*
X483274Y356980D01*
X490662D01*
X494184Y353457D01*
Y328258D01*
X493810Y328009D01*
X493446Y327463D01*
X493318Y326819D01*
X493446Y326175D01*
X493810Y325629D01*
X494283Y325313D01*
X494267Y325008D01*
X494200Y324813D01*
X492140D01*
X488482Y328472D01*
X488217Y328649D01*
X487905Y328711D01*
X487905Y328711D01*
X483250D01*
X482929Y329486D01*
X482391Y330187D01*
X481691Y330724D01*
X480875Y331062D01*
X480000Y331177D01*
X479125Y331062D01*
X478309Y330724D01*
X477609Y330187D01*
X477071Y329486D01*
X476734Y328671D01*
X476618Y327795D01*
X476734Y326920D01*
X477071Y326104D01*
X477609Y325404D01*
X478309Y324867D01*
X479125Y324529D01*
X480000Y324414D01*
X480875Y324529D01*
X481691Y324867D01*
X482391Y325404D01*
X482929Y326104D01*
X483266Y326920D01*
X483287Y327080D01*
X487567D01*
X491126Y323521D01*
X491179Y323291D01*
X491181Y323169D01*
X491130Y322883D01*
X487162Y318916D01*
X483165D01*
X482929Y319486D01*
X482391Y320186D01*
X481691Y320724D01*
X480875Y321062D01*
X480000Y321177D01*
X479125Y321062D01*
X478309Y320724D01*
X477609Y320186D01*
X477071Y319486D01*
X476734Y318671D01*
X476618Y317795D01*
X476734Y316920D01*
X477071Y316104D01*
X477609Y315404D01*
X478309Y314867D01*
X479125Y314529D01*
X480000Y314414D01*
X480875Y314529D01*
X481691Y314867D01*
X482391Y315404D01*
X482929Y316104D01*
X483266Y316920D01*
X483314Y317284D01*
X487500D01*
X487500Y317284D01*
X487812Y317346D01*
X488077Y317523D01*
X492161Y321607D01*
X497010D01*
X497010Y319876D01*
X496549Y319779D01*
X496488D01*
Y318611D01*
X495795D01*
X495795Y318611D01*
X495483Y318549D01*
X495219Y318372D01*
X493423Y316577D01*
X493246Y316312D01*
X493184Y316000D01*
X493184Y316000D01*
Y314000D01*
X493184Y314000D01*
X493246Y313688D01*
X493423Y313423D01*
X495423Y311423D01*
X495423Y311423D01*
X495688Y311246D01*
X496000Y311184D01*
X496000Y311184D01*
X508662D01*
X509184Y310662D01*
Y308835D01*
X508323D01*
Y306850D01*
X507823D01*
Y306350D01*
X505898D01*
Y304866D01*
X506195D01*
X506655Y304770D01*
X506655Y304366D01*
Y299876D01*
X509227D01*
Y301450D01*
X509227Y304770D01*
X509687Y304866D01*
X509748D01*
Y306390D01*
X510577Y307219D01*
X510577Y307219D01*
X512722Y309364D01*
X513184Y309173D01*
Y292133D01*
X511278Y290226D01*
X510816Y290418D01*
Y291000D01*
X510754Y291312D01*
X510577Y291577D01*
X510577Y291577D01*
X509577Y292577D01*
X509312Y292754D01*
X509000Y292816D01*
X509000Y292816D01*
X497338D01*
X495816Y294338D01*
Y295613D01*
X496206Y295928D01*
X496488Y295811D01*
Y295811D01*
X497913D01*
Y297795D01*
X498413D01*
Y298295D01*
X500339D01*
Y299780D01*
X500041D01*
X499581Y299876D01*
X499581Y300279D01*
Y304770D01*
X497010D01*
Y304713D01*
X491640D01*
X487982Y308372D01*
X487717Y308549D01*
X487405Y308611D01*
X487405Y308611D01*
X483274D01*
X483266Y308670D01*
X482929Y309486D01*
X482391Y310187D01*
X481691Y310724D01*
X480875Y311062D01*
X480000Y311177D01*
X479125Y311062D01*
X478309Y310724D01*
X477609Y310187D01*
X477071Y309486D01*
X476734Y308670D01*
X476618Y307795D01*
X476734Y306920D01*
X477071Y306104D01*
X477609Y305404D01*
X478309Y304867D01*
X479125Y304529D01*
X480000Y304414D01*
X480875Y304529D01*
X481691Y304867D01*
X482391Y305404D01*
X482929Y306104D01*
X483266Y306920D01*
X483274Y306980D01*
X487067D01*
X490626Y303421D01*
X490679Y303191D01*
X490681Y303069D01*
X490630Y302783D01*
X486662Y298816D01*
X483206D01*
X482929Y299486D01*
X482391Y300186D01*
X481691Y300724D01*
X480875Y301062D01*
X480000Y301177D01*
X479125Y301062D01*
X478309Y300724D01*
X477609Y300186D01*
X477071Y299486D01*
X476734Y298671D01*
X476618Y297795D01*
X476734Y296920D01*
X477071Y296104D01*
X477609Y295404D01*
X478309Y294867D01*
X479125Y294529D01*
X480000Y294414D01*
X480875Y294529D01*
X481691Y294867D01*
X482391Y295404D01*
X482929Y296104D01*
X483266Y296920D01*
X483301Y297184D01*
X487000D01*
X487000Y297184D01*
X487312Y297246D01*
X487577Y297423D01*
X491661Y301507D01*
X497010D01*
X497010Y299876D01*
X496549Y299780D01*
X496488D01*
Y298550D01*
X496483Y298549D01*
X496218Y298372D01*
X494423Y296577D01*
X494246Y296312D01*
X494184Y296000D01*
X494184Y296000D01*
Y294000D01*
X494184Y294000D01*
X494246Y293688D01*
X494423Y293423D01*
X496423Y291423D01*
X496423Y291423D01*
X496688Y291246D01*
X497000Y291184D01*
X497000Y291184D01*
X508662D01*
X509184Y290662D01*
Y288835D01*
X508323D01*
Y286850D01*
X507823D01*
Y286350D01*
X505898D01*
Y284866D01*
X506195D01*
X506655Y284770D01*
X506655Y284366D01*
Y279876D01*
X509227D01*
Y281450D01*
X509227Y284770D01*
X509687Y284866D01*
X509748D01*
Y286390D01*
X510577Y287218D01*
X510577Y287218D01*
X512722Y289364D01*
X513184Y289173D01*
Y271692D01*
X511278Y269785D01*
X510816Y269977D01*
Y271000D01*
X510754Y271312D01*
X510577Y271577D01*
X510577Y271577D01*
X509577Y272577D01*
X509312Y272754D01*
X509000Y272816D01*
X509000Y272816D01*
X497188D01*
X495666Y274338D01*
Y275662D01*
X496026Y276022D01*
X496488Y275831D01*
Y275811D01*
X497913D01*
Y277795D01*
X498413D01*
Y278295D01*
X500339D01*
Y279780D01*
X500041D01*
X499581Y279876D01*
X499581Y280279D01*
Y284770D01*
X497010D01*
Y284713D01*
X491540D01*
X487882Y288372D01*
X487617Y288549D01*
X487305Y288611D01*
X487305Y288611D01*
X483274D01*
X483266Y288670D01*
X482929Y289486D01*
X482391Y290187D01*
X481691Y290724D01*
X480875Y291062D01*
X480000Y291177D01*
X479125Y291062D01*
X478309Y290724D01*
X477609Y290187D01*
X477071Y289486D01*
X476734Y288670D01*
X476618Y287795D01*
X476734Y286920D01*
X477071Y286104D01*
X477609Y285404D01*
X478309Y284867D01*
X479125Y284529D01*
X480000Y284414D01*
X480875Y284529D01*
X481691Y284867D01*
X482391Y285404D01*
X482929Y286104D01*
X483266Y286920D01*
X483274Y286980D01*
X486967D01*
X490526Y283421D01*
X490579Y283191D01*
X490581Y283069D01*
X490530Y282783D01*
X486562Y278816D01*
X483206D01*
X482929Y279486D01*
X482391Y280187D01*
X481691Y280724D01*
X480875Y281062D01*
X480000Y281177D01*
X479125Y281062D01*
X478309Y280724D01*
X477609Y280187D01*
X477071Y279486D01*
X476734Y278671D01*
X476618Y277795D01*
X476734Y276920D01*
X477071Y276104D01*
X477609Y275404D01*
X478309Y274867D01*
X479125Y274529D01*
X480000Y274414D01*
X480875Y274529D01*
X481691Y274867D01*
X482391Y275404D01*
X482929Y276104D01*
X483266Y276920D01*
X483301Y277184D01*
X486900D01*
X486900Y277184D01*
X487212Y277246D01*
X487477Y277423D01*
X491561Y281507D01*
X497010D01*
X497010Y279876D01*
X496549Y279780D01*
X496488D01*
Y278580D01*
X496334Y278549D01*
X496069Y278372D01*
X494274Y276577D01*
X494097Y276312D01*
X494035Y276000D01*
X494035Y276000D01*
Y274000D01*
X494035Y274000D01*
X494097Y273688D01*
X494274Y273423D01*
X496274Y271423D01*
X496274Y271423D01*
X496538Y271246D01*
X496850Y271184D01*
X496850Y271184D01*
X508662D01*
X509184Y270662D01*
Y268835D01*
X508323D01*
Y266850D01*
X507823D01*
Y266350D01*
X505898D01*
Y264866D01*
X506195D01*
X506655Y264770D01*
X506655Y264366D01*
Y259876D01*
X509227D01*
Y261450D01*
X509227Y264770D01*
X509687Y264866D01*
X509748D01*
Y266085D01*
X509808Y266097D01*
X510073Y266274D01*
X510577Y266777D01*
X510577Y266778D01*
X512722Y268923D01*
X513184Y268732D01*
Y252133D01*
X511278Y250226D01*
X510816Y250418D01*
Y251000D01*
X510754Y251312D01*
X510577Y251577D01*
X510577Y251577D01*
X509577Y252577D01*
X509312Y252754D01*
X509000Y252816D01*
X509000Y252816D01*
X497188D01*
X495666Y254338D01*
Y255662D01*
X496026Y256022D01*
X496488Y255831D01*
Y255811D01*
X497913D01*
Y257795D01*
X498413D01*
Y258295D01*
X500339D01*
Y259780D01*
X500041D01*
X499581Y259876D01*
X499581Y260279D01*
Y264770D01*
X497010D01*
Y264713D01*
X491640D01*
X487982Y268372D01*
X487717Y268549D01*
X487405Y268611D01*
X487405Y268611D01*
X483274D01*
X483266Y268671D01*
X482929Y269486D01*
X482391Y270186D01*
X481691Y270724D01*
X480875Y271062D01*
X480000Y271177D01*
X479125Y271062D01*
X478309Y270724D01*
X477609Y270186D01*
X477071Y269486D01*
X476734Y268671D01*
X476618Y267795D01*
X476734Y266920D01*
X477071Y266104D01*
X477609Y265404D01*
X478309Y264867D01*
X479125Y264529D01*
X480000Y264414D01*
X480875Y264529D01*
X481691Y264867D01*
X482391Y265404D01*
X482929Y266104D01*
X483266Y266920D01*
X483274Y266980D01*
X487067D01*
X490626Y263421D01*
X490679Y263191D01*
X490681Y263069D01*
X490630Y262783D01*
X486662Y258816D01*
X483206D01*
X482929Y259486D01*
X482391Y260187D01*
X481691Y260724D01*
X480875Y261062D01*
X480000Y261177D01*
X479125Y261062D01*
X478309Y260724D01*
X477609Y260187D01*
X477071Y259486D01*
X476734Y258670D01*
X476618Y257795D01*
X476734Y256920D01*
X477071Y256104D01*
X477609Y255404D01*
X478309Y254867D01*
X479125Y254529D01*
X480000Y254414D01*
X480875Y254529D01*
X481691Y254867D01*
X482391Y255404D01*
X482929Y256104D01*
X483266Y256920D01*
X483301Y257184D01*
X487000D01*
X487000Y257184D01*
X487312Y257246D01*
X487577Y257423D01*
X491661Y261507D01*
X497010D01*
X497010Y259876D01*
X496549Y259780D01*
X496488D01*
Y258580D01*
X496334Y258549D01*
X496069Y258372D01*
X494274Y256577D01*
X494097Y256312D01*
X494035Y256000D01*
X494035Y256000D01*
Y254000D01*
X494035Y254000D01*
X494097Y253688D01*
X494274Y253423D01*
X496274Y251423D01*
X496274Y251423D01*
X496538Y251246D01*
X496850Y251184D01*
X496850Y251184D01*
X508662D01*
X509184Y250662D01*
Y248835D01*
X508323D01*
Y246850D01*
X507823D01*
Y246350D01*
X505898D01*
Y244866D01*
X506195D01*
X506655Y244770D01*
X506655Y244366D01*
Y239876D01*
X509227D01*
Y241450D01*
X509227Y244770D01*
X509687Y244866D01*
X509748D01*
Y246390D01*
X510577Y247218D01*
X510577Y247218D01*
X512722Y249364D01*
X513184Y249173D01*
Y234338D01*
X511662Y232816D01*
X497188D01*
X495666Y234338D01*
Y235662D01*
X496026Y236022D01*
X496488Y235831D01*
Y235811D01*
X497913D01*
Y237795D01*
X498413D01*
Y238295D01*
X500339D01*
Y239779D01*
X500041D01*
X499581Y239876D01*
X499581Y240280D01*
Y244770D01*
X497010D01*
Y244713D01*
X491640D01*
X487982Y248372D01*
X487717Y248549D01*
X487405Y248611D01*
X487405Y248611D01*
X483274D01*
X483266Y248671D01*
X482929Y249486D01*
X482391Y250186D01*
X481691Y250724D01*
X480875Y251062D01*
X480000Y251177D01*
X479125Y251062D01*
X478309Y250724D01*
X477609Y250186D01*
X477071Y249486D01*
X476734Y248671D01*
X476618Y247795D01*
X476734Y246920D01*
X477071Y246104D01*
X477609Y245404D01*
X478309Y244867D01*
X479125Y244529D01*
X480000Y244414D01*
X480875Y244529D01*
X481691Y244867D01*
X482391Y245404D01*
X482929Y246104D01*
X483266Y246920D01*
X483274Y246980D01*
X487067D01*
X490626Y243421D01*
X490679Y243191D01*
X490681Y243069D01*
X490630Y242783D01*
X486662Y238816D01*
X483274D01*
X483266Y238875D01*
X482929Y239691D01*
X482391Y240391D01*
X481691Y240929D01*
X480875Y241266D01*
X480000Y241382D01*
X479125Y241266D01*
X478309Y240929D01*
X477609Y240391D01*
X477071Y239691D01*
X476734Y238875D01*
X476618Y238000D01*
X476734Y237125D01*
X477071Y236309D01*
X477609Y235609D01*
X478309Y235071D01*
X479125Y234734D01*
X480000Y234618D01*
X480875Y234734D01*
X481691Y235071D01*
X482391Y235609D01*
X482929Y236309D01*
X483266Y237125D01*
X483274Y237184D01*
X487000D01*
X487000Y237184D01*
X487312Y237246D01*
X487577Y237423D01*
X491661Y241507D01*
X497010D01*
X497010Y239876D01*
X496549Y239779D01*
X496488D01*
Y238580D01*
X496334Y238549D01*
X496069Y238372D01*
X494274Y236577D01*
X494097Y236312D01*
X494035Y236000D01*
X494035Y236000D01*
Y234000D01*
X494035Y234000D01*
X494097Y233688D01*
X494274Y233423D01*
X496274Y231423D01*
X496274Y231423D01*
X496538Y231246D01*
X496850Y231184D01*
X496850Y231184D01*
X512000D01*
X512000Y231184D01*
X512312Y231246D01*
X512577Y231423D01*
X514577Y233423D01*
X514577Y233423D01*
X514754Y233688D01*
X514816Y234000D01*
X514816Y234000D01*
Y251795D01*
Y271354D01*
Y291795D01*
Y311795D01*
Y326000D01*
X514754Y326312D01*
X514577Y326577D01*
X514577Y326577D01*
X513726Y327427D01*
X513462Y327604D01*
X513150Y327666D01*
X513150Y327666D01*
X509748D01*
Y328835D01*
X508323D01*
Y326850D01*
X507823D01*
Y326350D01*
X505898D01*
Y324866D01*
X506195D01*
X506655Y324770D01*
X506655Y324366D01*
Y319876D01*
X509227D01*
Y321450D01*
X509227Y324770D01*
X509687Y324866D01*
X509748D01*
Y326035D01*
X512812D01*
X513184Y325662D01*
Y312133D01*
X511278Y310226D01*
X510816Y310418D01*
Y311000D01*
X510754Y311312D01*
X510577Y311577D01*
X510577Y311577D01*
X509577Y312577D01*
X509312Y312754D01*
X509000Y312816D01*
X509000Y312816D01*
X496338D01*
X494816Y314338D01*
Y315662D01*
X495988Y316835D01*
X496488Y316630D01*
Y315811D01*
X497913D01*
Y317795D01*
X498413D01*
Y318295D01*
X500339D01*
Y319779D01*
X500041D01*
X499581Y319876D01*
X499581Y320280D01*
Y322273D01*
X499611Y322423D01*
X499581Y322573D01*
Y323848D01*
X499611Y323998D01*
X499581Y324148D01*
Y324770D01*
X499013D01*
X498795Y324813D01*
X495800D01*
X495733Y325008D01*
X495717Y325313D01*
X496190Y325629D01*
X496439Y326003D01*
X497088D01*
Y325466D01*
X499739D01*
Y328235D01*
X497088D01*
Y327635D01*
X496439D01*
X496190Y328009D01*
X495816Y328258D01*
Y353795D01*
X495754Y354107D01*
X495577Y354372D01*
X495577Y354372D01*
X491577Y358372D01*
X491312Y358549D01*
X491000Y358611D01*
X491000Y358611D01*
X483274D01*
X483266Y358670D01*
X482929Y359486D01*
X482391Y360187D01*
X481691Y360724D01*
X480875Y361062D01*
X480000Y361177D01*
X479125Y361062D01*
X478309Y360724D01*
X477609Y360187D01*
X477071Y359486D01*
X476734Y358670D01*
X476726Y358611D01*
X475591D01*
X475591Y358611D01*
X475278Y358549D01*
X475014Y358372D01*
X447423Y330782D01*
X447246Y330517D01*
X447184Y330205D01*
X447184Y330205D01*
Y304338D01*
X446607Y303761D01*
X399670D01*
X399478Y304222D01*
X412663Y317407D01*
X412840Y317672D01*
X412902Y317984D01*
X412902Y317984D01*
Y329000D01*
X412902Y329000D01*
X412902Y329000D01*
Y336663D01*
X413412D01*
Y339387D01*
X413412Y339432D01*
X413498Y339794D01*
X413993Y339853D01*
X414832Y339015D01*
Y336097D01*
X414832Y336097D01*
X414894Y335785D01*
X415070Y335520D01*
X418167Y332423D01*
X418167Y332423D01*
X418432Y332246D01*
X418744Y332184D01*
X426662D01*
X431184Y327662D01*
Y320596D01*
X430538Y320328D01*
X429932Y319864D01*
X429467Y319258D01*
X429175Y318552D01*
X429075Y317795D01*
X429175Y317038D01*
X429467Y316333D01*
X429932Y315727D01*
X430538Y315262D01*
X431243Y314970D01*
X432000Y314870D01*
X432757Y314970D01*
X433462Y315262D01*
X434068Y315727D01*
X434533Y316333D01*
X434825Y317038D01*
X434925Y317795D01*
X434825Y318552D01*
X434533Y319258D01*
X434068Y319864D01*
X433462Y320328D01*
X432816Y320596D01*
Y328000D01*
X432816Y328000D01*
X432754Y328312D01*
X432577Y328577D01*
X432577Y328577D01*
X427577Y333577D01*
X427312Y333754D01*
X427000Y333816D01*
X427000Y333816D01*
X419082D01*
X418580Y334318D01*
X418863Y334742D01*
X419125Y334634D01*
X420000Y334518D01*
X420875Y334634D01*
X421691Y334971D01*
X422391Y335509D01*
X422929Y336209D01*
X423266Y337025D01*
X423382Y337900D01*
X423266Y338775D01*
X422929Y339591D01*
X422391Y340291D01*
X421691Y340829D01*
X420875Y341166D01*
X420000Y341282D01*
X419125Y341166D01*
X418309Y340829D01*
X418261Y340792D01*
X416220Y342834D01*
X416229Y342994D01*
X416397Y343363D01*
X416562Y343396D01*
X416826Y343573D01*
X418261Y345008D01*
X418309Y344971D01*
X419125Y344634D01*
X420000Y344518D01*
X420875Y344634D01*
X421691Y344971D01*
X422391Y345509D01*
X422929Y346209D01*
X423266Y347025D01*
X423382Y347900D01*
X423266Y348775D01*
X422929Y349591D01*
X422391Y350291D01*
X421691Y350829D01*
X420875Y351166D01*
X420000Y351282D01*
X419125Y351166D01*
X418309Y350829D01*
X417609Y350291D01*
X417071Y349591D01*
X416734Y348775D01*
X416618Y347900D01*
X416734Y347025D01*
X417071Y346209D01*
X417108Y346162D01*
X415912Y344965D01*
X414448D01*
X414012Y345118D01*
X414012Y345465D01*
Y346602D01*
X412087D01*
X410161D01*
Y345118D01*
X410459D01*
X410919Y345022D01*
X410919Y344618D01*
Y340128D01*
X411560D01*
X411779Y339932D01*
X411588Y339432D01*
X410761D01*
Y336663D01*
X411271D01*
Y329338D01*
X408749Y326816D01*
X405620D01*
X405352Y327463D01*
X404887Y328068D01*
X404281Y328533D01*
X403576Y328825D01*
X402819Y328925D01*
X402062Y328825D01*
X401356Y328533D01*
X400751Y328068D01*
X400286Y327463D01*
X399993Y326757D01*
X399894Y326000D01*
X399993Y325243D01*
X400286Y324537D01*
X400751Y323932D01*
X401356Y323467D01*
X402062Y323175D01*
X402819Y323075D01*
X403576Y323175D01*
X404281Y323467D01*
X404887Y323932D01*
X405352Y324537D01*
X405620Y325184D01*
X409087D01*
X409087Y325184D01*
X409399Y325246D01*
X409663Y325423D01*
X410809Y326569D01*
X411271Y326378D01*
Y318322D01*
X396470Y303522D01*
X396294Y303257D01*
X396232Y302945D01*
X396232Y302945D01*
Y302000D01*
X396232Y302000D01*
X396232Y302000D01*
Y278055D01*
X396232Y278055D01*
X396294Y277743D01*
X396470Y277478D01*
X397423Y276526D01*
X397423Y276526D01*
X397688Y276349D01*
X398000Y276287D01*
X399147D01*
Y275718D01*
X401798D01*
Y278487D01*
X399147D01*
Y277918D01*
X398338D01*
X397863Y278393D01*
Y301662D01*
X398330Y302129D01*
X446945D01*
X446945Y302129D01*
X447184Y301933D01*
Y227938D01*
X438062Y218816D01*
X415873D01*
X410698Y223991D01*
Y260410D01*
X412663Y262376D01*
X412840Y262641D01*
X412902Y262953D01*
X412902Y262953D01*
Y265843D01*
X412902Y265843D01*
X412840Y266155D01*
X412663Y266419D01*
X411207Y267876D01*
Y269431D01*
X408557D01*
Y266663D01*
X410113D01*
X411271Y265505D01*
Y263291D01*
X409305Y261325D01*
X409128Y261060D01*
X409066Y260748D01*
X409066Y260748D01*
Y223654D01*
X409066Y223654D01*
X409128Y223341D01*
X409305Y223077D01*
X413104Y219278D01*
X412913Y218816D01*
X409606D01*
X407660Y220761D01*
Y222551D01*
X408260D01*
Y224232D01*
X403740D01*
Y222551D01*
X403740D01*
X403662Y222083D01*
X401073D01*
Y223250D01*
X393187D01*
Y217332D01*
X401073D01*
Y220452D01*
X404340D01*
Y219687D01*
X406428D01*
X408691Y217423D01*
X412184Y213930D01*
Y191338D01*
X409662Y188816D01*
X406121D01*
X404548Y190389D01*
X404794Y190850D01*
X404961Y190817D01*
X405885Y191001D01*
X406669Y191524D01*
X407192Y192308D01*
X407376Y193232D01*
Y195594D01*
X407192Y196518D01*
X406669Y197302D01*
X405885Y197825D01*
X404961Y198009D01*
X404037Y197825D01*
X403253Y197302D01*
X402730Y196518D01*
X402546Y195594D01*
Y193232D01*
X402579Y193065D01*
X402118Y192818D01*
X399218Y195719D01*
X399311Y196185D01*
X399223Y196626D01*
X400063Y196793D01*
X400817Y197297D01*
X401321Y198051D01*
X401398Y198441D01*
X399173D01*
Y199441D01*
X401398D01*
X401321Y199830D01*
X400817Y200584D01*
X400567Y200751D01*
Y203362D01*
X398977D01*
Y203862D01*
X398477D01*
Y207224D01*
X397386D01*
Y206624D01*
X378914D01*
Y207224D01*
X377823D01*
Y203862D01*
X377323D01*
Y203362D01*
X375733D01*
Y200751D01*
X375483Y200584D01*
X374979Y199830D01*
X374902Y199441D01*
X377126D01*
Y198441D01*
X374902D01*
X374979Y198051D01*
X375483Y197297D01*
X376237Y196793D01*
X377077Y196626D01*
X376989Y196185D01*
X377119Y195529D01*
X377490Y194974D01*
X377885Y194710D01*
Y186449D01*
X377885Y186449D01*
X377947Y186137D01*
X378124Y185872D01*
X383423Y180573D01*
X383688Y180396D01*
X384000Y180334D01*
X384000Y180334D01*
X408512D01*
X416423Y172423D01*
X416423Y172423D01*
X416688Y172246D01*
X417000Y172184D01*
X419199D01*
X419467Y171537D01*
X419932Y170932D01*
X420538Y170467D01*
X421243Y170175D01*
X422000Y170075D01*
X422757Y170175D01*
X423462Y170467D01*
X424068Y170932D01*
X424533Y171537D01*
X424825Y172243D01*
X424925Y173000D01*
X424825Y173757D01*
X424533Y174462D01*
X424068Y175068D01*
X423462Y175533D01*
X422757Y175825D01*
X422000Y175925D01*
X421243Y175825D01*
X420538Y175533D01*
X419932Y175068D01*
X419467Y174462D01*
X419199Y173816D01*
X417338D01*
X409469Y181684D01*
X409490Y181862D01*
X409642Y182184D01*
X421662D01*
X428423Y175423D01*
X428423Y175423D01*
X428688Y175246D01*
X429000Y175184D01*
X461000D01*
X461000Y175184D01*
X461312Y175246D01*
X461577Y175423D01*
X463577Y177423D01*
X463577Y177423D01*
X463754Y177688D01*
X463816Y178000D01*
X463816Y178000D01*
Y188154D01*
X464176Y188500D01*
X464458Y188481D01*
X465261Y187865D01*
X466196Y187478D01*
X466384Y187453D01*
Y174677D01*
X466384Y174677D01*
X466446Y174365D01*
X466623Y174100D01*
X470862Y169861D01*
X470862Y169861D01*
X471127Y169684D01*
X471439Y169622D01*
X471439Y169622D01*
X514438D01*
X514438Y169622D01*
X514750Y169684D01*
X515015Y169861D01*
X525577Y180423D01*
X525577Y180423D01*
X525754Y180688D01*
X525816Y181000D01*
X525816Y181000D01*
Y393000D01*
Y420000D01*
X525816Y420000D01*
X525754Y420312D01*
X525577Y420577D01*
X525577Y420577D01*
X517577Y428577D01*
X517312Y428754D01*
X517000Y428816D01*
D02*
G37*
G36*
X394794Y420420D02*
X393207D01*
Y415683D01*
X394794D01*
Y420420D01*
D02*
G37*
G36*
X377189Y419482D02*
X376265Y419298D01*
X375482Y418775D01*
X374958Y417991D01*
X374774Y417067D01*
Y414705D01*
X374958Y413781D01*
X375482Y412997D01*
X376265Y412474D01*
X377189Y412290D01*
X378113Y412474D01*
X378897Y412997D01*
X379420Y413781D01*
X379604Y414705D01*
Y417067D01*
X379420Y417991D01*
X378897Y418775D01*
X378113Y419298D01*
X377189Y419482D01*
D02*
G37*
G36*
X394794Y408215D02*
X393207D01*
Y403478D01*
X394794D01*
Y408215D01*
D02*
G37*
G36*
X381943Y367668D02*
X374057D01*
Y365524D01*
X370976D01*
X370976Y365524D01*
X370664Y365462D01*
X370400Y365285D01*
X370400Y365285D01*
X367428Y362313D01*
X365340D01*
Y359449D01*
X364740D01*
Y357768D01*
X367000D01*
X369260D01*
Y359449D01*
X368660D01*
Y361239D01*
X371314Y363893D01*
X374057D01*
Y361750D01*
X381943D01*
Y367668D01*
D02*
G37*
G36*
X423953Y361853D02*
X420500D01*
Y358400D01*
X423953D01*
Y361853D01*
D02*
G37*
G36*
X419500D02*
X416047D01*
Y358400D01*
X419500D01*
Y361853D01*
D02*
G37*
G36*
X402260Y356768D02*
X400500D01*
Y355087D01*
X402260D01*
Y356768D01*
D02*
G37*
G36*
X366500D02*
X364740D01*
Y355087D01*
X366500D01*
Y356768D01*
D02*
G37*
G36*
X377500Y356850D02*
X373457D01*
Y354107D01*
X371314D01*
X369260Y356161D01*
Y356768D01*
X367500D01*
Y355087D01*
X368028D01*
X370400Y352715D01*
X370664Y352538D01*
X370976Y352476D01*
X370976Y352476D01*
X373457D01*
Y349732D01*
X377500D01*
Y353291D01*
Y356850D01*
D02*
G37*
G36*
X423953Y357400D02*
X420500D01*
Y353947D01*
X423953D01*
Y357400D01*
D02*
G37*
G36*
X419500D02*
X416047D01*
Y353947D01*
X419500D01*
Y357400D01*
D02*
G37*
G36*
X382543Y356850D02*
X378500D01*
Y353791D01*
X382543D01*
Y356850D01*
D02*
G37*
G36*
X388500D02*
X384457D01*
Y353791D01*
X388500D01*
Y356850D01*
D02*
G37*
G36*
X393543D02*
X389500D01*
Y353291D01*
Y349732D01*
X393543D01*
Y352476D01*
X396024D01*
X396024Y352476D01*
X396336Y352538D01*
X396600Y352715D01*
X398972Y355087D01*
X399500D01*
Y356768D01*
X397740D01*
Y356161D01*
X395686Y354107D01*
X393543D01*
Y356850D01*
D02*
G37*
G36*
X388500Y352791D02*
X384457D01*
Y349732D01*
X388500D01*
Y352791D01*
D02*
G37*
G36*
X382543D02*
X378500D01*
Y349732D01*
X382543D01*
Y352791D01*
D02*
G37*
G36*
X480500Y351716D02*
Y348295D01*
X483921D01*
X483851Y348827D01*
X483453Y349789D01*
X482819Y350614D01*
X481993Y351248D01*
X481032Y351646D01*
X480500Y351716D01*
D02*
G37*
G36*
X479500D02*
X478968Y351646D01*
X478007Y351248D01*
X477181Y350614D01*
X476547Y349789D01*
X476149Y348827D01*
X476079Y348295D01*
X479500D01*
Y351716D01*
D02*
G37*
G36*
X414012Y349087D02*
X412587D01*
Y347602D01*
X414012D01*
Y349087D01*
D02*
G37*
G36*
X411587D02*
X410161D01*
Y347602D01*
X411587D01*
Y349087D01*
D02*
G37*
G36*
X483921Y347295D02*
X480500D01*
Y343874D01*
X481032Y343944D01*
X481993Y344343D01*
X482819Y344976D01*
X483453Y345802D01*
X483851Y346763D01*
X483921Y347295D01*
D02*
G37*
G36*
X479500D02*
X476079D01*
X476149Y346763D01*
X476547Y345802D01*
X477181Y344976D01*
X478007Y344343D01*
X478968Y343944D01*
X479500Y343874D01*
Y347295D01*
D02*
G37*
G36*
X403845Y345022D02*
X401273D01*
Y343277D01*
X401273Y340128D01*
X400813Y340032D01*
X400752D01*
Y338547D01*
X402677D01*
X404602D01*
Y340032D01*
X404305D01*
X403845Y340128D01*
X403845Y340531D01*
Y343277D01*
Y345022D01*
D02*
G37*
G36*
X404602Y337547D02*
X403177D01*
Y336063D01*
X404602D01*
Y337547D01*
D02*
G37*
G36*
X402177D02*
X400752D01*
Y336063D01*
X402177D01*
Y337547D01*
D02*
G37*
G36*
X480000Y341177D02*
X479125Y341062D01*
X478309Y340724D01*
X477609Y340187D01*
X477071Y339486D01*
X476734Y338670D01*
X476618Y337795D01*
X476734Y336920D01*
X477071Y336104D01*
X477609Y335404D01*
X478309Y334867D01*
X479125Y334529D01*
X480000Y334414D01*
X480875Y334529D01*
X481691Y334867D01*
X482391Y335404D01*
X482929Y336104D01*
X483266Y336920D01*
X483382Y337795D01*
X483266Y338670D01*
X482929Y339486D01*
X482391Y340187D01*
X481691Y340724D01*
X480875Y341062D01*
X480000Y341177D01*
D02*
G37*
G36*
X507323Y328835D02*
X505898D01*
Y327350D01*
X507323D01*
Y328835D01*
D02*
G37*
G36*
X420000Y331282D02*
X419125Y331166D01*
X418309Y330829D01*
X417609Y330291D01*
X417071Y329591D01*
X416734Y328775D01*
X416618Y327900D01*
X416734Y327025D01*
X417071Y326209D01*
X417609Y325509D01*
X418309Y324971D01*
X419125Y324634D01*
X420000Y324518D01*
X420875Y324634D01*
X421691Y324971D01*
X422391Y325509D01*
X422929Y326209D01*
X423266Y327025D01*
X423382Y327900D01*
X423266Y328775D01*
X422929Y329591D01*
X422391Y330291D01*
X421691Y330829D01*
X420875Y331166D01*
X420000Y331282D01*
D02*
G37*
G36*
X511000Y319478D02*
X510356Y319350D01*
X509810Y318985D01*
X509648Y318742D01*
X509148Y318894D01*
Y319180D01*
X506498D01*
Y316411D01*
X509148D01*
Y316697D01*
X509648Y316849D01*
X509810Y316606D01*
X510356Y316241D01*
X511000Y316113D01*
X511644Y316241D01*
X512190Y316606D01*
X512554Y317151D01*
X512682Y317795D01*
X512554Y318439D01*
X512190Y318985D01*
X511644Y319350D01*
X511000Y319478D01*
D02*
G37*
G36*
X500339Y317295D02*
X498913D01*
Y315811D01*
X500339D01*
Y317295D01*
D02*
G37*
G36*
X387500Y318581D02*
Y314961D01*
X391120D01*
X391043Y315545D01*
X390625Y316554D01*
X389960Y317421D01*
X389093Y318086D01*
X388083Y318504D01*
X387500Y318581D01*
D02*
G37*
G36*
X386500D02*
X385917Y318504D01*
X384907Y318086D01*
X384040Y317421D01*
X383375Y316554D01*
X382957Y315545D01*
X382880Y314961D01*
X386500D01*
Y318581D01*
D02*
G37*
G36*
X420000Y321282D02*
X419125Y321166D01*
X418309Y320829D01*
X417609Y320291D01*
X417071Y319591D01*
X416734Y318775D01*
X416618Y317900D01*
X416734Y317025D01*
X417071Y316209D01*
X417609Y315509D01*
X418309Y314971D01*
X419125Y314634D01*
X420000Y314518D01*
X420875Y314634D01*
X421691Y314971D01*
X422391Y315509D01*
X422929Y316209D01*
X423266Y317025D01*
X423382Y317900D01*
X423266Y318775D01*
X422929Y319591D01*
X422391Y320291D01*
X421691Y320829D01*
X420875Y321166D01*
X420000Y321282D01*
D02*
G37*
G36*
X391120Y313961D02*
X387500D01*
Y310342D01*
X388083Y310419D01*
X389093Y310837D01*
X389960Y311502D01*
X390625Y312369D01*
X391043Y313378D01*
X391120Y313961D01*
D02*
G37*
G36*
X386500D02*
X382880D01*
X382957Y313378D01*
X383375Y312369D01*
X384040Y311502D01*
X384907Y310837D01*
X385917Y310419D01*
X386500Y310342D01*
Y313961D01*
D02*
G37*
G36*
X507323Y308835D02*
X505898D01*
Y307350D01*
X507323D01*
Y308835D01*
D02*
G37*
G36*
X495000Y308588D02*
X494356Y308460D01*
X493810Y308095D01*
X493446Y307549D01*
X493318Y306906D01*
X493446Y306262D01*
X493810Y305716D01*
X494356Y305351D01*
X495000Y305223D01*
X495644Y305351D01*
X496190Y305716D01*
X496439Y306090D01*
X497088D01*
Y305466D01*
X499739D01*
Y308235D01*
X497088D01*
Y307721D01*
X496439D01*
X496190Y308095D01*
X495644Y308460D01*
X495000Y308588D01*
D02*
G37*
G36*
X420000Y301282D02*
X419125Y301166D01*
X418309Y300829D01*
X417609Y300291D01*
X417071Y299591D01*
X416750Y298816D01*
X410076D01*
X410075Y298824D01*
X409757Y299592D01*
X409251Y300251D01*
X408592Y300757D01*
X407824Y301075D01*
X407000Y301183D01*
X406176Y301075D01*
X405408Y300757D01*
X404749Y300251D01*
X404243Y299592D01*
X403925Y298824D01*
X403817Y298000D01*
X403925Y297176D01*
X404243Y296408D01*
X404749Y295749D01*
X405408Y295243D01*
X406176Y294925D01*
X407000Y294817D01*
X407824Y294925D01*
X408592Y295243D01*
X409251Y295749D01*
X409757Y296408D01*
X410075Y297176D01*
X410076Y297184D01*
X416713D01*
X416734Y297025D01*
X417071Y296209D01*
X417609Y295509D01*
X418309Y294971D01*
X419125Y294634D01*
X420000Y294518D01*
X420875Y294634D01*
X421691Y294971D01*
X422391Y295509D01*
X422929Y296209D01*
X423266Y297025D01*
X423382Y297900D01*
X423266Y298775D01*
X422929Y299591D01*
X422391Y300291D01*
X421691Y300829D01*
X420875Y301166D01*
X420000Y301282D01*
D02*
G37*
G36*
X511000Y299478D02*
X510356Y299349D01*
X509810Y298985D01*
X509648Y298742D01*
X509148Y298893D01*
Y299180D01*
X506498D01*
Y296411D01*
X509148D01*
Y296697D01*
X509648Y296849D01*
X509810Y296606D01*
X510356Y296241D01*
X511000Y296113D01*
X511644Y296241D01*
X512190Y296606D01*
X512554Y297151D01*
X512682Y297795D01*
X512554Y298439D01*
X512190Y298985D01*
X511644Y299349D01*
X511000Y299478D01*
D02*
G37*
G36*
X500339Y297295D02*
X498913D01*
Y295811D01*
X500339D01*
Y297295D01*
D02*
G37*
G36*
X377000Y318042D02*
X376073Y317920D01*
X375210Y317562D01*
X374468Y316993D01*
X373899Y316251D01*
X373542Y315388D01*
X373420Y314461D01*
X373542Y313535D01*
X373899Y312671D01*
X374468Y311930D01*
X375210Y311361D01*
X376073Y311003D01*
X376184Y310989D01*
Y301076D01*
X376176Y301075D01*
X375408Y300757D01*
X374749Y300251D01*
X374243Y299592D01*
X373925Y298824D01*
X373817Y298000D01*
X373925Y297176D01*
X374243Y296408D01*
X374749Y295749D01*
X375408Y295243D01*
X376176Y294925D01*
X377000Y294817D01*
X377824Y294925D01*
X378592Y295243D01*
X379251Y295749D01*
X379757Y296408D01*
X380075Y297176D01*
X380183Y298000D01*
X380075Y298824D01*
X379757Y299592D01*
X379251Y300251D01*
X378592Y300757D01*
X377824Y301075D01*
X377816Y301076D01*
Y310989D01*
X377927Y311003D01*
X378790Y311361D01*
X379532Y311930D01*
X380101Y312671D01*
X380458Y313535D01*
X380580Y314461D01*
X380458Y315388D01*
X380101Y316251D01*
X379532Y316993D01*
X378790Y317562D01*
X377927Y317920D01*
X377000Y318042D01*
D02*
G37*
G36*
X420000Y291282D02*
X419125Y291166D01*
X418309Y290829D01*
X417609Y290291D01*
X417071Y289591D01*
X416750Y288816D01*
X410076D01*
X410075Y288824D01*
X409757Y289592D01*
X409251Y290251D01*
X408592Y290757D01*
X407824Y291075D01*
X407000Y291183D01*
X406176Y291075D01*
X405408Y290757D01*
X404749Y290251D01*
X404243Y289592D01*
X403925Y288824D01*
X403817Y288000D01*
X403925Y287176D01*
X404243Y286408D01*
X404749Y285749D01*
X405408Y285243D01*
X406176Y284925D01*
X407000Y284817D01*
X407824Y284925D01*
X408592Y285243D01*
X409251Y285749D01*
X409757Y286408D01*
X410075Y287176D01*
X410076Y287184D01*
X416713D01*
X416734Y287025D01*
X417071Y286209D01*
X417609Y285509D01*
X418309Y284971D01*
X419125Y284634D01*
X420000Y284518D01*
X420875Y284634D01*
X421691Y284971D01*
X422391Y285509D01*
X422929Y286209D01*
X423266Y287025D01*
X423382Y287900D01*
X423266Y288775D01*
X422929Y289591D01*
X422391Y290291D01*
X421691Y290829D01*
X420875Y291166D01*
X420000Y291282D01*
D02*
G37*
G36*
X507323Y288835D02*
X505898D01*
Y287350D01*
X507323D01*
Y288835D01*
D02*
G37*
G36*
X495000Y288737D02*
X494356Y288609D01*
X493810Y288245D01*
X493446Y287699D01*
X493318Y287055D01*
X493446Y286411D01*
X493810Y285865D01*
X494356Y285501D01*
X495000Y285373D01*
X495644Y285501D01*
X496190Y285865D01*
X496439Y286239D01*
X497088D01*
Y285466D01*
X499739D01*
Y288235D01*
X497088D01*
Y287871D01*
X496439D01*
X496190Y288245D01*
X495644Y288609D01*
X495000Y288737D01*
D02*
G37*
G36*
X511000Y279478D02*
X510356Y279349D01*
X509810Y278985D01*
X509648Y278742D01*
X509148Y278893D01*
Y279180D01*
X506498D01*
Y276411D01*
X509148D01*
Y276697D01*
X509648Y276849D01*
X509810Y276606D01*
X510356Y276241D01*
X511000Y276113D01*
X511644Y276241D01*
X512190Y276606D01*
X512554Y277151D01*
X512682Y277795D01*
X512554Y278439D01*
X512190Y278985D01*
X511644Y279349D01*
X511000Y279478D01*
D02*
G37*
G36*
X411807Y279087D02*
X410382D01*
Y277602D01*
X411807D01*
Y279087D01*
D02*
G37*
G36*
X409382D02*
X407957D01*
Y277602D01*
X409382D01*
Y279087D01*
D02*
G37*
G36*
X500339Y277295D02*
X498913D01*
Y275811D01*
X500339D01*
Y277295D01*
D02*
G37*
G36*
X377744Y278269D02*
Y274650D01*
X381364D01*
X381287Y275233D01*
X380869Y276242D01*
X380204Y277109D01*
X379337Y277774D01*
X378327Y278192D01*
X377744Y278269D01*
D02*
G37*
G36*
X376744Y278269D02*
X376161Y278192D01*
X375151Y277774D01*
X374285Y277109D01*
X373619Y276242D01*
X373201Y275233D01*
X373125Y274650D01*
X376744D01*
Y278269D01*
D02*
G37*
G36*
X420000Y281282D02*
X419125Y281166D01*
X418309Y280829D01*
X417609Y280291D01*
X417071Y279591D01*
X416734Y278775D01*
X416618Y277900D01*
X416734Y277025D01*
X417071Y276209D01*
X417108Y276162D01*
X414337Y273391D01*
X411286D01*
X411286Y275022D01*
X411746Y275118D01*
X411807D01*
Y276602D01*
X409882D01*
X407957D01*
Y275118D01*
X408254D01*
X408714Y275022D01*
X408714Y274618D01*
Y270128D01*
X411286D01*
Y270184D01*
X416562D01*
X417108Y269638D01*
X417071Y269591D01*
X416734Y268775D01*
X416618Y267900D01*
X416734Y267025D01*
X417071Y266209D01*
X417609Y265509D01*
X418309Y264971D01*
X419125Y264634D01*
X420000Y264518D01*
X420875Y264634D01*
X421691Y264971D01*
X422391Y265509D01*
X422929Y266209D01*
X423266Y267025D01*
X423382Y267900D01*
X423266Y268775D01*
X422929Y269591D01*
X422391Y270291D01*
X421691Y270829D01*
X420875Y271166D01*
X420000Y271282D01*
X419125Y271166D01*
X418309Y270829D01*
X418261Y270792D01*
X417477Y271577D01*
X417212Y271754D01*
X416900Y271816D01*
X416900Y271816D01*
X415776D01*
X415569Y272316D01*
X418261Y275008D01*
X418309Y274971D01*
X419125Y274634D01*
X420000Y274518D01*
X420875Y274634D01*
X421691Y274971D01*
X422391Y275509D01*
X422929Y276209D01*
X423266Y277025D01*
X423382Y277900D01*
X423266Y278775D01*
X422929Y279591D01*
X422391Y280291D01*
X421691Y280829D01*
X420875Y281166D01*
X420000Y281282D01*
D02*
G37*
G36*
X377000Y291183D02*
X376176Y291075D01*
X375408Y290757D01*
X374749Y290251D01*
X374243Y289592D01*
X373925Y288824D01*
X373817Y288000D01*
X373925Y287176D01*
X374243Y286408D01*
X374749Y285749D01*
X375408Y285243D01*
X376176Y284925D01*
X376184Y284924D01*
Y282748D01*
X376184Y282748D01*
X376246Y282436D01*
X376423Y282171D01*
X379171Y279423D01*
X379171Y279423D01*
X379436Y279246D01*
X379748Y279184D01*
X379748Y279184D01*
X385473D01*
X386428Y278229D01*
Y277623D01*
X386317Y277608D01*
X385454Y277250D01*
X384713Y276681D01*
X384143Y275940D01*
X383786Y275076D01*
X383664Y274150D01*
X383786Y273223D01*
X384143Y272359D01*
X384713Y271618D01*
X385454Y271049D01*
X386317Y270691D01*
X387244Y270569D01*
X388171Y270691D01*
X389034Y271049D01*
X389776Y271618D01*
X390345Y272359D01*
X390702Y273223D01*
X390824Y274150D01*
X390702Y275076D01*
X390345Y275940D01*
X389776Y276681D01*
X389034Y277250D01*
X388171Y277608D01*
X388060Y277623D01*
Y278567D01*
X387998Y278879D01*
X387821Y279144D01*
X387821Y279144D01*
X386388Y280577D01*
X386123Y280754D01*
X385811Y280816D01*
X385811Y280816D01*
X380086D01*
X377816Y283086D01*
Y284924D01*
X377824Y284925D01*
X378592Y285243D01*
X379251Y285749D01*
X379757Y286408D01*
X380075Y287176D01*
X380183Y288000D01*
X380075Y288824D01*
X379757Y289592D01*
X379251Y290251D01*
X378592Y290757D01*
X377824Y291075D01*
X377000Y291183D01*
D02*
G37*
G36*
X376744Y273650D02*
X373125D01*
X373201Y273066D01*
X373619Y272057D01*
X374285Y271190D01*
X375151Y270525D01*
X376161Y270107D01*
X376744Y270030D01*
Y273650D01*
D02*
G37*
G36*
X381364D02*
X377744D01*
Y270030D01*
X378327Y270107D01*
X379337Y270525D01*
X380204Y271190D01*
X380869Y272057D01*
X381287Y273066D01*
X381364Y273650D01*
D02*
G37*
G36*
X401640Y275022D02*
X399068D01*
Y273277D01*
X399068Y270128D01*
X398608Y270031D01*
X398547D01*
Y268547D01*
X400472D01*
X402398D01*
Y270031D01*
X402100D01*
X401640Y270128D01*
X401640Y270532D01*
Y273277D01*
Y275022D01*
D02*
G37*
G36*
X507323Y268835D02*
X505898D01*
Y267350D01*
X507323D01*
Y268835D01*
D02*
G37*
G36*
X402398Y267547D02*
X400972D01*
Y266063D01*
X402398D01*
Y267547D01*
D02*
G37*
G36*
X399972D02*
X398547D01*
Y266063D01*
X399972D01*
Y267547D01*
D02*
G37*
G36*
X495000Y268887D02*
X494356Y268759D01*
X493810Y268394D01*
X493446Y267848D01*
X493318Y267205D01*
X493446Y266561D01*
X493810Y266015D01*
X494356Y265651D01*
X495000Y265522D01*
X495644Y265651D01*
X496190Y266015D01*
X496203Y266035D01*
X497088D01*
Y265466D01*
X499739D01*
Y268235D01*
X497088D01*
Y267666D01*
X496591D01*
X496554Y267848D01*
X496190Y268394D01*
X495644Y268759D01*
X495000Y268887D01*
D02*
G37*
G36*
X511000Y259478D02*
X510356Y259349D01*
X509810Y258985D01*
X509648Y258742D01*
X509148Y258893D01*
Y259179D01*
X506498D01*
Y256411D01*
X509148D01*
Y256697D01*
X509648Y256849D01*
X509810Y256606D01*
X510356Y256241D01*
X511000Y256113D01*
X511644Y256241D01*
X512190Y256606D01*
X512554Y257152D01*
X512682Y257795D01*
X512554Y258439D01*
X512190Y258985D01*
X511644Y259349D01*
X511000Y259478D01*
D02*
G37*
G36*
X500339Y257295D02*
X498913D01*
Y255811D01*
X500339D01*
Y257295D01*
D02*
G37*
G36*
X420000Y261282D02*
X419125Y261166D01*
X418309Y260829D01*
X417609Y260291D01*
X417071Y259591D01*
X416734Y258775D01*
X416618Y257900D01*
X416734Y257025D01*
X417071Y256209D01*
X417609Y255509D01*
X418309Y254971D01*
X419125Y254634D01*
X420000Y254518D01*
X420875Y254634D01*
X421691Y254971D01*
X422391Y255509D01*
X422929Y256209D01*
X423266Y257025D01*
X423382Y257900D01*
X423266Y258775D01*
X422929Y259591D01*
X422391Y260291D01*
X421691Y260829D01*
X420875Y261166D01*
X420000Y261282D01*
D02*
G37*
G36*
X507323Y248835D02*
X505898D01*
Y247350D01*
X507323D01*
Y248835D01*
D02*
G37*
G36*
X495000Y248588D02*
X494356Y248460D01*
X493810Y248095D01*
X493446Y247549D01*
X493318Y246905D01*
X493446Y246262D01*
X493810Y245716D01*
X494356Y245351D01*
X495000Y245223D01*
X495644Y245351D01*
X496190Y245716D01*
X496439Y246090D01*
X497088D01*
Y245466D01*
X499739D01*
Y248235D01*
X497088D01*
Y247721D01*
X496439D01*
X496190Y248095D01*
X495644Y248460D01*
X495000Y248588D01*
D02*
G37*
G36*
X420000Y251282D02*
X419125Y251166D01*
X418309Y250829D01*
X417609Y250291D01*
X417071Y249591D01*
X416734Y248775D01*
X416618Y247900D01*
X416734Y247025D01*
X417071Y246209D01*
X417609Y245509D01*
X418309Y244971D01*
X419125Y244634D01*
X420000Y244518D01*
X420875Y244634D01*
X421691Y244971D01*
X422391Y245509D01*
X422929Y246209D01*
X423266Y247025D01*
X423382Y247900D01*
X423266Y248775D01*
X422929Y249591D01*
X422391Y250291D01*
X421691Y250829D01*
X420875Y251166D01*
X420000Y251282D01*
D02*
G37*
G36*
X511000Y239478D02*
X510356Y239350D01*
X509810Y238985D01*
X509648Y238742D01*
X509148Y238894D01*
Y239179D01*
X506498D01*
Y236411D01*
X509148D01*
Y236697D01*
X509648Y236849D01*
X509810Y236606D01*
X510356Y236241D01*
X511000Y236113D01*
X511644Y236241D01*
X512190Y236606D01*
X512554Y237152D01*
X512682Y237795D01*
X512554Y238439D01*
X512190Y238985D01*
X511644Y239350D01*
X511000Y239478D01*
D02*
G37*
G36*
X500339Y237295D02*
X498913D01*
Y235811D01*
X500339D01*
Y237295D01*
D02*
G37*
G36*
X420000Y241282D02*
X419125Y241166D01*
X418309Y240829D01*
X417609Y240291D01*
X417071Y239591D01*
X416734Y238775D01*
X416618Y237900D01*
X416734Y237025D01*
X417071Y236209D01*
X417609Y235509D01*
X418309Y234971D01*
X419125Y234634D01*
X420000Y234518D01*
X420875Y234634D01*
X421691Y234971D01*
X422391Y235509D01*
X422929Y236209D01*
X423266Y237025D01*
X423382Y237900D01*
X423266Y238775D01*
X422929Y239591D01*
X422391Y240291D01*
X421691Y240829D01*
X420875Y241166D01*
X420000Y241282D01*
D02*
G37*
G36*
X401673Y235268D02*
X397630D01*
Y232209D01*
X401673D01*
Y235268D01*
D02*
G37*
G36*
X396630D02*
X392587D01*
Y232209D01*
X396630D01*
Y235268D01*
D02*
G37*
G36*
X388878D02*
X384835D01*
Y232209D01*
X388878D01*
Y235268D01*
D02*
G37*
G36*
X383835D02*
X379791D01*
Y232209D01*
X383835D01*
Y235268D01*
D02*
G37*
G36*
X401673Y231209D02*
X397630D01*
Y228150D01*
X401673D01*
Y231209D01*
D02*
G37*
G36*
X396630D02*
X392587D01*
Y228150D01*
X396630D01*
Y231209D01*
D02*
G37*
G36*
X388878D02*
X384835D01*
Y228150D01*
X388878D01*
Y231209D01*
D02*
G37*
G36*
X383835D02*
X379791D01*
Y228150D01*
X383835D01*
Y231209D01*
D02*
G37*
G36*
X408260Y226913D02*
X406500D01*
Y225232D01*
X408260D01*
Y226913D01*
D02*
G37*
G36*
X405500D02*
X403740D01*
Y225232D01*
X405500D01*
Y226913D01*
D02*
G37*
G36*
X420000Y231282D02*
X419125Y231166D01*
X418309Y230829D01*
X417609Y230291D01*
X417071Y229591D01*
X416734Y228775D01*
X416618Y227900D01*
X416734Y227025D01*
X417071Y226209D01*
X417609Y225509D01*
X418309Y224971D01*
X419125Y224634D01*
X420000Y224518D01*
X420875Y224634D01*
X421691Y224971D01*
X422391Y225509D01*
X422929Y226209D01*
X423266Y227025D01*
X423382Y227900D01*
X423266Y228775D01*
X422929Y229591D01*
X422391Y230291D01*
X421691Y230829D01*
X420875Y231166D01*
X420000Y231282D01*
D02*
G37*
G36*
X483353Y231148D02*
X476647D01*
Y224443D01*
X483353D01*
Y231148D01*
D02*
G37*
G36*
X376260Y224913D02*
X374500D01*
Y223232D01*
X376260D01*
Y224913D01*
D02*
G37*
G36*
X373500D02*
X371740D01*
Y223232D01*
X373500D01*
Y224913D01*
D02*
G37*
G36*
X362000Y342925D02*
X361243Y342825D01*
X360538Y342533D01*
X359932Y342068D01*
X359467Y341462D01*
X359175Y340757D01*
X359075Y340000D01*
X359175Y339243D01*
X359467Y338538D01*
X359932Y337932D01*
X360538Y337467D01*
X361184Y337199D01*
Y243900D01*
X361184Y243900D01*
X361246Y243588D01*
X361423Y243323D01*
X377452Y227294D01*
Y220083D01*
X376338D01*
X376260Y220551D01*
X376260D01*
Y222232D01*
X371740D01*
Y220551D01*
X372340D01*
Y217687D01*
X375660D01*
Y218452D01*
X378268D01*
X378268Y218452D01*
X378580Y218514D01*
X378844Y218691D01*
X379629Y219476D01*
X380391D01*
Y217332D01*
X383460D01*
Y214801D01*
X382813Y214533D01*
X382208Y214068D01*
X381743Y213462D01*
X381451Y212757D01*
X381351Y212000D01*
X381451Y211243D01*
X381743Y210538D01*
X382208Y209932D01*
X382813Y209467D01*
X383519Y209175D01*
X384276Y209075D01*
X385033Y209175D01*
X385738Y209467D01*
X386344Y209932D01*
X386809Y210538D01*
X387101Y211243D01*
X387201Y212000D01*
X387101Y212757D01*
X386809Y213462D01*
X386344Y214068D01*
X385738Y214533D01*
X385092Y214801D01*
Y217332D01*
X388278D01*
Y223250D01*
X380391D01*
Y221107D01*
X379291D01*
X379083Y221278D01*
Y227632D01*
X379083Y227632D01*
X379021Y227944D01*
X378844Y228209D01*
X378844Y228209D01*
X362816Y244238D01*
Y337199D01*
X363462Y337467D01*
X364068Y337932D01*
X364533Y338538D01*
X364825Y339243D01*
X364925Y340000D01*
X364825Y340757D01*
X364533Y341462D01*
X364068Y342068D01*
X363462Y342533D01*
X362757Y342825D01*
X362000Y342925D01*
D02*
G37*
G36*
X400567Y207224D02*
X399477D01*
Y204362D01*
X400567D01*
Y207224D01*
D02*
G37*
G36*
X376823D02*
X375733D01*
Y204362D01*
X376823D01*
Y207224D01*
D02*
G37*
G36*
X457700Y198594D02*
Y193200D01*
X461683D01*
Y194176D01*
X461530Y195337D01*
X461083Y196418D01*
X460370Y197346D01*
X459442Y198059D01*
X458360Y198507D01*
X457700Y198594D01*
D02*
G37*
G36*
X456700Y198594D02*
X456040Y198507D01*
X454958Y198059D01*
X454030Y197346D01*
X453317Y196418D01*
X452870Y195337D01*
X452717Y194176D01*
Y193200D01*
X456700D01*
Y198594D01*
D02*
G37*
G36*
X371339Y198009D02*
X370415Y197825D01*
X369631Y197302D01*
X369108Y196518D01*
X368924Y195594D01*
Y193232D01*
X369108Y192308D01*
X369631Y191524D01*
X370415Y191001D01*
X371339Y190817D01*
X372263Y191001D01*
X373046Y191524D01*
X373570Y192308D01*
X373754Y193232D01*
Y195594D01*
X373570Y196518D01*
X373046Y197302D01*
X372263Y197825D01*
X371339Y198009D01*
D02*
G37*
G36*
X506000Y198054D02*
X504996Y197922D01*
X504061Y197535D01*
X503258Y196919D01*
X502641Y196115D01*
X502254Y195180D01*
X502122Y194176D01*
Y191224D01*
X502254Y190220D01*
X502641Y189285D01*
X503258Y188481D01*
X504061Y187865D01*
X504996Y187478D01*
X506000Y187346D01*
X507004Y187478D01*
X507939Y187865D01*
X508742Y188481D01*
X509359Y189285D01*
X509746Y190220D01*
X509878Y191224D01*
Y194176D01*
X509746Y195180D01*
X509359Y196115D01*
X508742Y196919D01*
X507939Y197535D01*
X507004Y197922D01*
X506000Y198054D01*
D02*
G37*
G36*
X477200D02*
X476196Y197922D01*
X475261Y197535D01*
X474458Y196919D01*
X473841Y196115D01*
X473454Y195180D01*
X473322Y194176D01*
Y191224D01*
X473454Y190220D01*
X473841Y189285D01*
X474458Y188481D01*
X475261Y187865D01*
X476196Y187478D01*
X477200Y187346D01*
X478204Y187478D01*
X479139Y187865D01*
X479942Y188481D01*
X480558Y189285D01*
X480946Y190220D01*
X481078Y191224D01*
Y194176D01*
X480946Y195180D01*
X480558Y196115D01*
X479942Y196919D01*
X479139Y197535D01*
X478204Y197922D01*
X477200Y198054D01*
D02*
G37*
G36*
X461683Y192200D02*
X457700D01*
Y186806D01*
X458360Y186893D01*
X459442Y187341D01*
X460370Y188054D01*
X461083Y188982D01*
X461530Y190063D01*
X461683Y191224D01*
Y192200D01*
D02*
G37*
G36*
X456700D02*
X452717D01*
Y191224D01*
X452870Y190063D01*
X453317Y188982D01*
X454030Y188054D01*
X454958Y187341D01*
X456040Y186893D01*
X456700Y186806D01*
Y192200D01*
D02*
G37*
G36*
X404961Y179387D02*
X404037Y179203D01*
X403253Y178680D01*
X402730Y177896D01*
X402546Y176972D01*
Y174610D01*
X402730Y173686D01*
X403253Y172902D01*
X404037Y172379D01*
X404961Y172195D01*
X405885Y172379D01*
X406669Y172902D01*
X407192Y173686D01*
X407376Y174610D01*
Y176972D01*
X407192Y177896D01*
X406669Y178680D01*
X405885Y179203D01*
X404961Y179387D01*
D02*
G37*
G36*
X371339D02*
X370415Y179203D01*
X369631Y178680D01*
X369108Y177896D01*
X368924Y176972D01*
Y174610D01*
X369108Y173686D01*
X369631Y172902D01*
X370415Y172379D01*
X371339Y172195D01*
X372263Y172379D01*
X373046Y172902D01*
X373570Y173686D01*
X373754Y174610D01*
Y176972D01*
X373570Y177896D01*
X373046Y178680D01*
X372263Y179203D01*
X371339Y179387D01*
D02*
G37*
G36*
X388944Y175994D02*
X387356D01*
Y171257D01*
X388944D01*
Y175994D01*
D02*
G37*
%LPD*%
G36*
X524184Y419662D02*
Y395622D01*
X523722Y395431D01*
X518577Y400577D01*
X518312Y400754D01*
X518000Y400816D01*
X518000Y400816D01*
X468000D01*
X467688Y400754D01*
X467423Y400577D01*
X467423Y400577D01*
X461423Y394577D01*
X461316Y394416D01*
X460816Y394514D01*
Y397221D01*
X472779Y409184D01*
X480911D01*
X480925Y409079D01*
X481243Y408312D01*
X481749Y407652D01*
X482408Y407147D01*
X483176Y406828D01*
X484000Y406720D01*
X484824Y406828D01*
X485592Y407147D01*
X486251Y407652D01*
X486757Y408312D01*
X487075Y409079D01*
X487183Y409903D01*
X487075Y410727D01*
X486757Y411495D01*
X486251Y412154D01*
X485592Y412660D01*
X484824Y412978D01*
X484000Y413086D01*
X483176Y412978D01*
X482408Y412660D01*
X481749Y412154D01*
X481243Y411495D01*
X480962Y410816D01*
X472441D01*
X472441Y410816D01*
X472129Y410754D01*
X471864Y410577D01*
X471864Y410577D01*
X459423Y398136D01*
X459246Y397871D01*
X459184Y397559D01*
X459184Y397559D01*
Y392338D01*
X457662Y390816D01*
X456338D01*
X455654Y391499D01*
Y392257D01*
X455868D01*
Y396056D01*
X456124Y396450D01*
X456124Y396759D01*
Y403550D01*
X455868Y403635D01*
Y407743D01*
X455654D01*
Y415199D01*
X456301Y415467D01*
X456907Y415932D01*
X457372Y416538D01*
X457664Y417243D01*
X457764Y418000D01*
X457664Y418757D01*
X457372Y419462D01*
X456907Y420068D01*
X456301Y420533D01*
X455596Y420825D01*
X454839Y420925D01*
X454081Y420825D01*
X453376Y420533D01*
X452770Y420068D01*
X452305Y419462D01*
X452013Y418757D01*
X451914Y418000D01*
X452013Y417243D01*
X452305Y416538D01*
X452770Y415932D01*
X453376Y415467D01*
X454023Y415199D01*
Y408795D01*
X453909Y408343D01*
X452779D01*
Y405689D01*
X451780D01*
Y408343D01*
X450650D01*
X450536Y408795D01*
Y413000D01*
X450536Y413000D01*
X450474Y413312D01*
X450297Y413577D01*
X450297Y413577D01*
X448297Y415577D01*
X448033Y415754D01*
X447720Y415816D01*
X447720Y415816D01*
X441000D01*
X440688Y415754D01*
X440423Y415577D01*
X440423Y415577D01*
X433423Y408577D01*
X433246Y408312D01*
X433184Y408000D01*
X433184Y408000D01*
Y373338D01*
X430662Y370816D01*
X390000D01*
X389688Y370754D01*
X389423Y370577D01*
X389423Y370577D01*
X389000Y370153D01*
X370816Y388338D01*
Y399662D01*
X374338Y403184D01*
X381938D01*
X383736Y401386D01*
Y396967D01*
X383341Y396703D01*
X382969Y396147D01*
X382839Y395492D01*
X382927Y395051D01*
X382087Y394883D01*
X381333Y394380D01*
X380829Y393626D01*
X380752Y393236D01*
X382977D01*
Y392236D01*
X380752D01*
X380829Y391847D01*
X381333Y391093D01*
X381583Y390926D01*
Y388315D01*
X383173D01*
Y387815D01*
X383674D01*
Y384453D01*
X384764D01*
Y385053D01*
X403236D01*
Y384453D01*
X404327D01*
Y387815D01*
X404827D01*
Y388315D01*
X406418D01*
Y390926D01*
X406667Y391093D01*
X407171Y391847D01*
X407249Y392236D01*
X405024D01*
Y393236D01*
X407249D01*
X407171Y393626D01*
X406667Y394380D01*
X405913Y394883D01*
X405074Y395051D01*
X405162Y395492D01*
X405031Y396147D01*
X404660Y396703D01*
X404265Y396967D01*
Y419111D01*
X408338Y423184D01*
X428000D01*
X511199Y423184D01*
X511467Y422538D01*
X511932Y421932D01*
X512537Y421467D01*
X513243Y421175D01*
X514000Y421075D01*
X514757Y421175D01*
X515462Y421467D01*
X516068Y421932D01*
X516533Y422538D01*
X516825Y423243D01*
X516925Y424000D01*
X516825Y424757D01*
X516533Y425462D01*
X516068Y426068D01*
X515462Y426533D01*
X515098Y426684D01*
X515197Y427184D01*
X516662D01*
X524184Y419662D01*
D02*
G37*
G36*
X512902Y426684D02*
X512537Y426533D01*
X511932Y426068D01*
X511467Y425462D01*
X511199Y424816D01*
X428000Y424816D01*
X408000D01*
X407688Y424754D01*
X407423Y424577D01*
X407423Y424577D01*
X402872Y420026D01*
X402696Y419761D01*
X402633Y419449D01*
X402633Y419449D01*
Y396967D01*
X402238Y396703D01*
X402124Y396533D01*
X401624D01*
X401510Y396703D01*
X401115Y396967D01*
Y421962D01*
X406338Y427184D01*
X422000D01*
X512803Y427184D01*
X512902Y426684D01*
D02*
G37*
G36*
X396388Y194974D02*
X396943Y194603D01*
X397599Y194472D01*
X398065Y194565D01*
X405207Y187423D01*
X405368Y187316D01*
X405269Y186816D01*
X401822D01*
X394638Y194000D01*
X394802Y194543D01*
X395104Y194603D01*
X395660Y194974D01*
X395723Y195068D01*
X396325D01*
X396388Y194974D01*
D02*
G37*
G36*
X380640D02*
X381035Y194710D01*
Y194110D01*
X381035Y194110D01*
X381097Y193798D01*
X381274Y193534D01*
X384384Y190423D01*
X384384Y190423D01*
X384649Y190246D01*
X384961Y190184D01*
X384961Y190184D01*
X392166D01*
X399885Y182466D01*
X399864Y182288D01*
X399712Y181966D01*
X384338D01*
X379517Y186787D01*
Y194710D01*
X379912Y194974D01*
X380026Y195144D01*
X380526D01*
X380640Y194974D01*
D02*
G37*
%LPC*%
G36*
X410811Y419482D02*
X409887Y419298D01*
X409104Y418775D01*
X408580Y417991D01*
X408396Y417067D01*
Y414705D01*
X408580Y413781D01*
X409104Y412997D01*
X409887Y412474D01*
X410811Y412290D01*
X411735Y412474D01*
X412519Y412997D01*
X413042Y413781D01*
X413226Y414705D01*
Y417067D01*
X413042Y417991D01*
X412519Y418775D01*
X411735Y419298D01*
X410811Y419482D01*
D02*
G37*
G36*
X514500Y413626D02*
Y410403D01*
X517723D01*
X517659Y410884D01*
X517281Y411797D01*
X516679Y412582D01*
X515894Y413184D01*
X514981Y413562D01*
X514500Y413626D01*
D02*
G37*
G36*
X513500D02*
X513020Y413562D01*
X512106Y413184D01*
X511321Y412582D01*
X510719Y411797D01*
X510341Y410884D01*
X510278Y410403D01*
X513500D01*
Y413626D01*
D02*
G37*
G36*
X517723Y409403D02*
X514500D01*
Y406181D01*
X514981Y406244D01*
X515894Y406622D01*
X516679Y407224D01*
X517281Y408009D01*
X517659Y408923D01*
X517723Y409403D01*
D02*
G37*
G36*
X513500D02*
X510278D01*
X510341Y408923D01*
X510719Y408009D01*
X511321Y407224D01*
X512106Y406622D01*
X513020Y406244D01*
X513500Y406181D01*
Y409403D01*
D02*
G37*
G36*
X410811Y400860D02*
X409887Y400676D01*
X409104Y400152D01*
X408580Y399369D01*
X408396Y398445D01*
Y396083D01*
X408580Y395159D01*
X409104Y394375D01*
X409887Y393852D01*
X410811Y393668D01*
X411735Y393852D01*
X412519Y394375D01*
X413042Y395159D01*
X413226Y396083D01*
Y398445D01*
X413042Y399369D01*
X412519Y400152D01*
X411735Y400676D01*
X410811Y400860D01*
D02*
G37*
G36*
X377189D02*
X376265Y400676D01*
X375482Y400152D01*
X374958Y399369D01*
X374774Y398445D01*
Y396083D01*
X374958Y395159D01*
X375482Y394375D01*
X376265Y393852D01*
X377189Y393668D01*
X378113Y393852D01*
X378897Y394375D01*
X379420Y395159D01*
X379604Y396083D01*
Y398445D01*
X379420Y399369D01*
X378897Y400152D01*
X378113Y400676D01*
X377189Y400860D01*
D02*
G37*
G36*
X406418Y387315D02*
X405327D01*
Y384453D01*
X406418D01*
Y387315D01*
D02*
G37*
G36*
X382674D02*
X381583D01*
Y384453D01*
X382674D01*
Y387315D01*
D02*
G37*
G36*
X388944Y188199D02*
X387356D01*
Y183462D01*
X388944D01*
Y188199D01*
D02*
G37*
%LPD*%
D15*
X398977Y203862D02*
D03*
X397008D02*
D03*
X395040D02*
D03*
X393071D02*
D03*
X391103D02*
D03*
X389134D02*
D03*
X387166D02*
D03*
X385197D02*
D03*
X383229D02*
D03*
X381260D02*
D03*
X379292D02*
D03*
X377323D02*
D03*
X383173Y387815D02*
D03*
X385142D02*
D03*
X387110D02*
D03*
X389079D02*
D03*
X391048D02*
D03*
X393016D02*
D03*
X394985D02*
D03*
X396953D02*
D03*
X398922D02*
D03*
X400890D02*
D03*
X402859D02*
D03*
X404827D02*
D03*
D16*
X388150Y173626D02*
D03*
Y185830D02*
D03*
X394000Y418051D02*
D03*
Y405847D02*
D03*
D17*
X451000Y400000D02*
D03*
D18*
X454839Y394311D02*
D03*
X452280D02*
D03*
X449720D02*
D03*
X447161D02*
D03*
Y405689D02*
D03*
X449720D02*
D03*
X452280D02*
D03*
X454839D02*
D03*
D19*
X367000Y360732D02*
D03*
Y357268D02*
D03*
X374000Y219268D02*
D03*
Y222732D02*
D03*
X400000Y357268D02*
D03*
Y360732D02*
D03*
X406000Y221268D02*
D03*
Y224732D02*
D03*
D20*
X498413Y326850D02*
D03*
Y317795D02*
D03*
X507823D02*
D03*
Y326850D02*
D03*
X498413Y306850D02*
D03*
Y297795D02*
D03*
X507823D02*
D03*
Y306850D02*
D03*
X498413Y286850D02*
D03*
Y277795D02*
D03*
X507823D02*
D03*
Y286850D02*
D03*
X498413Y266850D02*
D03*
Y257795D02*
D03*
X507823D02*
D03*
Y266850D02*
D03*
X498413Y246850D02*
D03*
Y237795D02*
D03*
X507823D02*
D03*
Y246850D02*
D03*
X409882Y268047D02*
D03*
Y277102D02*
D03*
X400472D02*
D03*
Y268047D02*
D03*
X412087Y338047D02*
D03*
Y347102D02*
D03*
X402677D02*
D03*
Y338047D02*
D03*
D21*
X498295Y323898D02*
D03*
Y322323D02*
D03*
Y320748D02*
D03*
X507941Y323898D02*
D03*
Y322323D02*
D03*
Y320748D02*
D03*
X498295Y303898D02*
D03*
Y302323D02*
D03*
Y300748D02*
D03*
X507941Y303898D02*
D03*
Y302323D02*
D03*
Y300748D02*
D03*
X498295Y283898D02*
D03*
Y282323D02*
D03*
Y280748D02*
D03*
X507941Y283898D02*
D03*
Y282323D02*
D03*
Y280748D02*
D03*
X498295Y263898D02*
D03*
Y262323D02*
D03*
Y260748D02*
D03*
X507941Y263898D02*
D03*
Y262323D02*
D03*
Y260748D02*
D03*
X498295Y243898D02*
D03*
Y242323D02*
D03*
Y240748D02*
D03*
X507941Y243898D02*
D03*
Y242323D02*
D03*
Y240748D02*
D03*
X410000Y271000D02*
D03*
Y272575D02*
D03*
Y274150D02*
D03*
X400354Y271000D02*
D03*
Y272575D02*
D03*
Y274150D02*
D03*
X412205Y341000D02*
D03*
Y342575D02*
D03*
Y344150D02*
D03*
X402559Y341000D02*
D03*
Y342575D02*
D03*
Y344150D02*
D03*
D22*
X384335Y220291D02*
D03*
Y231709D02*
D03*
X397130Y220291D02*
D03*
Y231709D02*
D03*
X378000Y364709D02*
D03*
Y353291D02*
D03*
X389000Y364709D02*
D03*
Y353291D02*
D03*
D40*
X408000Y424000D02*
X428000D01*
X403449Y419449D02*
X408000Y424000D01*
X403449Y395492D02*
Y419449D01*
X406000Y428000D02*
X422000D01*
X400300Y422299D02*
X406000Y428000D01*
X400300Y395492D02*
Y422299D01*
X362000Y399000D02*
X369000Y406000D01*
X384000D01*
X390851Y399149D01*
Y395492D02*
Y399149D01*
X370000Y388000D02*
X389000Y369000D01*
X370000Y388000D02*
Y400000D01*
X374000Y404000D01*
X382276D01*
X384552Y401724D01*
Y395492D02*
Y401724D01*
X404827Y387815D02*
X405024Y388012D01*
Y392736D01*
X382977Y388012D02*
X383173Y387815D01*
X382977Y388012D02*
Y392736D01*
X390851Y395492D02*
X397150D01*
X384552D02*
X387701D01*
X389000Y364709D02*
Y369000D01*
X390000Y370000D01*
X431000D01*
X418000Y189232D02*
X421468Y192700D01*
X437200D01*
X415535Y218000D02*
X438400D01*
X447200Y209200D01*
Y192700D02*
Y209200D01*
X417000Y173000D02*
X422000D01*
X378701Y186449D02*
X384000Y181150D01*
X408850D02*
X417000Y173000D01*
X384000Y181150D02*
X408850D01*
X422000Y183000D02*
X429000Y176000D01*
X400504Y183000D02*
X422000D01*
X418000Y189232D02*
Y196000D01*
X414768Y186000D02*
X418000Y189232D01*
X401484Y186000D02*
X414768D01*
X413000Y191000D02*
Y214268D01*
X410000Y188000D02*
X413000Y191000D01*
X405783Y188000D02*
X410000D01*
X397599Y196185D02*
X405783Y188000D01*
X384276Y219832D02*
X384535Y220091D01*
X384276Y212000D02*
Y219832D01*
X429000Y176000D02*
X461000D01*
X392504Y191000D02*
X400504Y183000D01*
X378701Y186449D02*
Y196185D01*
X461000Y176000D02*
X463000Y178000D01*
X391300Y196185D02*
X401484Y186000D01*
X384961Y191000D02*
X392504D01*
X381851Y194110D02*
X384961Y191000D01*
X381851Y194110D02*
Y196185D01*
X384335Y220291D02*
X384535Y220091D01*
X409268Y218000D02*
X413000Y214268D01*
X385000Y196185D02*
X391300D01*
X394449D02*
X397599D01*
X398977Y199137D02*
X399173Y198941D01*
X398977Y199137D02*
Y203862D01*
X377126Y198941D02*
X377323Y199137D01*
Y203862D01*
X362000Y350000D02*
Y399000D01*
X428000Y424000D02*
X514000Y424000D01*
X517000Y428000D02*
X525000Y420000D01*
X422000Y428000D02*
X517000Y428000D01*
X525000Y393000D02*
Y420000D01*
X449720Y388280D02*
Y394311D01*
Y388280D02*
X456716Y381283D01*
X457283D01*
X452280Y390000D02*
Y394311D01*
Y390000D02*
X455279Y387000D01*
X460000D01*
X462000Y389000D01*
Y394000D01*
X468000Y400000D01*
X454839Y391161D02*
Y394311D01*
Y391161D02*
X456000Y390000D01*
X458000D01*
X460000Y392000D01*
Y397559D01*
X472441Y410000D01*
X454839Y405689D02*
Y418000D01*
X449720Y405689D02*
Y413000D01*
X447720Y415000D02*
X449720Y413000D01*
X441000Y415000D02*
X447720D01*
X434000Y408000D02*
X441000Y415000D01*
X434000Y373000D02*
Y408000D01*
X431000Y370000D02*
X434000Y373000D01*
X447161Y405689D02*
Y409742D01*
X445903Y411000D02*
X447161Y409742D01*
X442000Y411000D02*
X445903D01*
X437300Y406300D02*
X442000Y411000D01*
X437300Y314461D02*
Y406300D01*
X432000Y317795D02*
Y328000D01*
X427000Y333000D02*
X432000Y328000D01*
X430739Y307900D02*
X437300Y314461D01*
X412205Y340702D02*
X414298D01*
X438400Y218000D02*
X448000Y227600D01*
Y304000D01*
X446945Y302945D02*
X448000Y304000D01*
X362000Y243900D02*
X378268Y227632D01*
X362000Y243900D02*
Y340000D01*
X400000Y360732D02*
Y360732D01*
X396024Y364709D02*
X400000Y360732D01*
X378268Y219268D02*
Y227632D01*
X435500Y191000D02*
X437200Y192700D01*
X374000Y219268D02*
X378268D01*
X379291Y220291D01*
X384335D01*
X397130D02*
X398106Y221268D01*
X406000D01*
X409268Y218000D01*
X415535D01*
X414298Y340702D02*
X415647Y339353D01*
Y336097D02*
Y339353D01*
Y336097D02*
X418744Y333000D01*
X427000D01*
X397992Y302945D02*
X446945D01*
X397047Y302000D02*
Y302945D01*
Y278055D02*
Y302000D01*
X397992Y302945D01*
X448000Y304000D02*
Y330205D01*
X395276Y345276D02*
X399000D01*
X400827Y347102D01*
X412087Y329000D02*
Y338047D01*
Y317984D02*
Y329000D01*
X409087Y326000D02*
X412087Y329000D01*
X402819Y326000D02*
X409087D01*
X419900Y298000D02*
X420000Y297900D01*
X407000Y298000D02*
X419900D01*
Y288000D02*
X420000Y287900D01*
X407000Y288000D02*
X419900D01*
X414675Y272575D02*
X420000Y277900D01*
X410000Y272575D02*
X414675D01*
X416900Y271000D02*
X420000Y267900D01*
X410000Y271000D02*
X416900D01*
X514438Y170438D02*
X525000Y181000D01*
X467200Y174677D02*
Y192700D01*
X471439Y170438D02*
X514438D01*
X467200Y174677D02*
X471439Y170438D01*
X415325Y342575D02*
X420000Y337900D01*
X412205Y342575D02*
X415325D01*
X416250Y344150D02*
X420000Y347900D01*
X412205Y344150D02*
X416250D01*
X518000Y400000D02*
X525000Y393000D01*
X468000Y400000D02*
X518000D01*
X525000Y181000D02*
Y393000D01*
X409882Y223654D02*
X415535Y218000D01*
X409882Y223654D02*
Y260748D01*
X400000Y360732D02*
X400000Y360732D01*
X402168D01*
X483903Y410000D02*
X484000Y409903D01*
X472441Y410000D02*
X483903D01*
X463000Y178000D02*
Y188500D01*
X467200Y192700D01*
X377000Y298000D02*
Y314461D01*
X387244Y274150D02*
Y278567D01*
X385811Y280000D02*
X387244Y278567D01*
X379748Y280000D02*
X385811D01*
X377000Y282748D02*
X379748Y280000D01*
X377000Y282748D02*
Y288000D01*
X409882Y260748D02*
X412087Y262953D01*
Y265843D01*
X409882Y268047D02*
X412087Y265843D01*
X467200Y213200D02*
X474000Y220000D01*
X467200Y192700D02*
Y213200D01*
X398000Y277102D02*
X400472D01*
X397047Y278055D02*
X398000Y277102D01*
X397047Y302945D02*
X412087Y317984D01*
X420000Y307900D02*
X430739D01*
X400827Y347102D02*
X402677D01*
X400000Y347929D02*
X400827Y347102D01*
X400000Y347929D02*
Y350000D01*
X405000Y355000D01*
Y357900D01*
X402168Y360732D02*
X405000Y357900D01*
X396024Y353291D02*
X400000Y357268D01*
X389000Y353291D02*
X396024D01*
X389000Y364709D02*
X396024D01*
X370976Y353291D02*
X378000D01*
X367000Y357268D02*
X370976Y353291D01*
X370976Y364709D02*
X378000D01*
X367000Y360732D02*
X370976Y364709D01*
X474000Y220000D02*
X490000D01*
X496000Y192700D02*
Y214000D01*
X490000Y220000D02*
X496000Y214000D01*
X480000Y357795D02*
X491000D01*
X495000Y353795D01*
Y326819D02*
Y353795D01*
X475591Y357795D02*
X480000D01*
X448000Y330205D02*
X475591Y357795D01*
X491823Y322423D02*
X498795D01*
X487500Y318100D02*
X491823Y322423D01*
X480500Y318100D02*
X487500D01*
X480500Y327895D02*
X487905D01*
X491802Y323998D02*
X498795D01*
X487905Y327895D02*
X491802Y323998D01*
X480000Y298000D02*
X487000D01*
X491323Y302323D01*
X498295D01*
X480000Y307795D02*
X487405D01*
X491302Y303898D02*
X498295D01*
X487405Y307795D02*
X491302Y303898D01*
X479900Y278000D02*
X486900D01*
X491223Y282323D01*
X498195D01*
X479900Y287795D02*
X487305D01*
X491202Y283898D02*
X498195D01*
X487305Y287795D02*
X491202Y283898D01*
X480000Y258000D02*
X487000D01*
X491323Y262323D01*
X498295D01*
X480000Y267795D02*
X487405D01*
X491302Y263898D02*
X498295D01*
X487405Y267795D02*
X491302Y263898D01*
X487405Y247795D02*
X491302Y243898D01*
X498295D01*
X480000Y247795D02*
X487405D01*
X495000Y246905D02*
X498177D01*
X494850Y254000D02*
X496850Y252000D01*
X509000D01*
X495000Y267205D02*
X495354Y266850D01*
X498413D01*
X510000Y267354D02*
Y271000D01*
X509000Y272000D02*
X510000Y271000D01*
X496850Y272000D02*
X509000D01*
X494850Y274000D02*
X496850Y272000D01*
X514000Y251795D02*
Y271354D01*
X510000Y267354D02*
X514000Y271354D01*
X491323Y242323D02*
X498295D01*
X496646Y237795D02*
X498413D01*
X494850Y236000D02*
X496646Y237795D01*
X494850Y234000D02*
Y236000D01*
X487000Y238000D02*
X491323Y242323D01*
X480000Y238000D02*
X487000D01*
X494850Y234000D02*
X496850Y232000D01*
X512000D01*
X495000Y294000D02*
Y296000D01*
Y294000D02*
X497000Y292000D01*
X495000Y296000D02*
X496795Y297795D01*
X514000Y311795D02*
Y326000D01*
Y291795D02*
Y311795D01*
X510000Y307795D02*
X514000Y311795D01*
X509055Y306850D02*
X510000Y307795D01*
X514000Y271354D02*
Y291795D01*
X510000Y287795D02*
X514000Y291795D01*
X509496Y266850D02*
X510000Y267354D01*
X514000Y234000D02*
Y251795D01*
X510000Y247795D02*
X514000Y251795D01*
X509055Y246850D02*
X510000Y247795D01*
X507823Y266850D02*
X509496D01*
X510000Y287795D02*
Y291000D01*
Y307795D02*
Y311000D01*
X512000Y232000D02*
X514000Y234000D01*
X507823Y306850D02*
X509055D01*
X513150Y326850D02*
X514000Y326000D01*
X495000Y326819D02*
X498177D01*
X495000Y306906D02*
X498177D01*
X495000Y287055D02*
X498177D01*
X507823Y317795D02*
X511000D01*
X507823Y297795D02*
X511000D01*
X507823Y277795D02*
X511000D01*
X507823Y237795D02*
X511000D01*
X507823Y257795D02*
X511000D01*
X497000Y292000D02*
X509000D01*
Y252000D02*
X510000Y251000D01*
Y247795D02*
Y251000D01*
X494000Y314000D02*
X496000Y312000D01*
X494000Y314000D02*
Y316000D01*
X495795Y317795D01*
X497413D01*
X507823Y246850D02*
X509055D01*
X494850Y256000D02*
X496646Y257795D01*
X494850Y254000D02*
Y256000D01*
X496646Y257795D02*
X498413D01*
X496646Y277795D02*
X498413D01*
X507823Y286850D02*
X509055D01*
X494850Y274000D02*
Y276000D01*
X496646Y277795D01*
X509000Y292000D02*
X510000Y291000D01*
X509055Y286850D02*
X510000Y287795D01*
X507823Y326850D02*
X513150D01*
X496795Y297795D02*
X498413D01*
X509000Y312000D02*
X510000Y311000D01*
X496000Y312000D02*
X509000D01*
D41*
X386575Y198941D02*
D03*
X389725D02*
D03*
X383425D02*
D03*
X392874D02*
D03*
X380276D02*
D03*
X396024D02*
D03*
X377126D02*
D03*
X399173D02*
D03*
X385000Y196185D02*
D03*
X391300D02*
D03*
X381851D02*
D03*
X394449D02*
D03*
X378701D02*
D03*
X397599D02*
D03*
X395575Y392736D02*
D03*
X392425D02*
D03*
X398725D02*
D03*
X389276D02*
D03*
X401874D02*
D03*
X386126D02*
D03*
X405024D02*
D03*
X382977D02*
D03*
X397150Y395492D02*
D03*
X390851D02*
D03*
X400300D02*
D03*
X387701D02*
D03*
X403449D02*
D03*
X384552D02*
D03*
D42*
X404961Y194413D02*
D03*
X371339D02*
D03*
X404961Y175791D02*
D03*
X371339D02*
D03*
X377189Y397264D02*
D03*
X410811D02*
D03*
X377189Y415886D02*
D03*
X410811D02*
D03*
D43*
X484000Y409903D02*
D03*
X514000D02*
D03*
X407000Y298000D02*
D03*
X377000D02*
D03*
Y288000D02*
D03*
X407000D02*
D03*
D44*
X480000Y227795D02*
D03*
X420000Y357900D02*
D03*
D45*
X480000Y238000D02*
D03*
Y247795D02*
D03*
Y257795D02*
D03*
Y267795D02*
D03*
Y277795D02*
D03*
Y287795D02*
D03*
Y297795D02*
D03*
Y307795D02*
D03*
Y317795D02*
D03*
Y327795D02*
D03*
Y337795D02*
D03*
Y347795D02*
D03*
Y357795D02*
D03*
X420000Y347900D02*
D03*
Y337900D02*
D03*
Y327900D02*
D03*
Y317900D02*
D03*
Y307900D02*
D03*
Y297900D02*
D03*
Y287900D02*
D03*
Y277900D02*
D03*
Y267900D02*
D03*
Y257900D02*
D03*
Y247900D02*
D03*
Y237900D02*
D03*
Y227900D02*
D03*
D46*
X506000Y192700D02*
D03*
X496000D02*
D03*
X457200D02*
D03*
X467200D02*
D03*
X477200D02*
D03*
X447200D02*
D03*
X437200D02*
D03*
D47*
X387000Y314461D02*
D03*
X377000D02*
D03*
X377244Y274150D02*
D03*
X387244D02*
D03*
D48*
X384276Y212000D02*
D03*
X422000Y173000D02*
D03*
X418000Y196000D02*
D03*
X514000Y424000D02*
D03*
X457283Y381283D02*
D03*
X454839Y418000D02*
D03*
X432000Y317795D02*
D03*
X362000Y340000D02*
D03*
Y350000D02*
D03*
X395276Y345276D02*
D03*
X402819Y326000D02*
D03*
D49*
X495000Y246905D02*
D03*
Y267205D02*
D03*
Y326819D02*
D03*
Y306906D02*
D03*
Y287055D02*
D03*
X511000Y317795D02*
D03*
Y297795D02*
D03*
Y277795D02*
D03*
Y237795D02*
D03*
Y257795D02*
D03*
M02*
