G04*
G04 #@! TF.GenerationSoftware,Altium Limited,Altium Designer,18.1.9 (240)*
G04*
G04 Layer_Color=8388736*
%FSLAX25Y25*%
%MOIN*%
G70*
G01*
G75*
%ADD16R,0.02769X0.01981*%
%ADD17R,0.02178X0.03162*%
%ADD18R,0.03320X0.03162*%
%ADD19R,0.02650X0.02769*%
%ADD20R,0.02165X0.01339*%
%ADD21R,0.07887X0.05918*%
%ADD22C,0.03359*%
%ADD23O,0.05328X0.03359*%
%ADD24O,0.04147X0.03359*%
%ADD25C,0.03162*%
%ADD26O,0.04737X0.07099*%
%ADD27O,0.04737X0.10879*%
%ADD28C,0.06700*%
%ADD29R,0.06700X0.06700*%
%ADD30C,0.06312*%
%ADD31R,0.06706X0.06706*%
%ADD32C,0.06706*%
%ADD33O,0.07690X0.10642*%
%ADD34C,0.07099*%
%ADD35C,0.05800*%
%ADD36C,0.03300*%
D16*
X387287Y378567D02*
D03*
X378626D02*
D03*
X403823D02*
D03*
X395161D02*
D03*
X395161Y210433D02*
D03*
X403823D02*
D03*
X378626D02*
D03*
X387287D02*
D03*
D17*
X402051Y381283D02*
D03*
X400083D02*
D03*
X398114D02*
D03*
X396146D02*
D03*
X394177D02*
D03*
X380398D02*
D03*
X382366D02*
D03*
X384335D02*
D03*
X386303D02*
D03*
X388272D02*
D03*
X390240D02*
D03*
X392209D02*
D03*
X380398Y207716D02*
D03*
X382366D02*
D03*
X384335D02*
D03*
X386303D02*
D03*
X388272D02*
D03*
X402051D02*
D03*
X400083D02*
D03*
X398114D02*
D03*
X396146D02*
D03*
X394177D02*
D03*
X392209D02*
D03*
X390240D02*
D03*
D18*
X367000Y360732D02*
D03*
Y357268D02*
D03*
X374000Y219268D02*
D03*
Y222732D02*
D03*
X400000Y357268D02*
D03*
Y360732D02*
D03*
X406000Y221268D02*
D03*
Y224732D02*
D03*
D19*
X498413Y326850D02*
D03*
Y317795D02*
D03*
X507823D02*
D03*
Y326850D02*
D03*
X498413Y306850D02*
D03*
Y297795D02*
D03*
X507823D02*
D03*
Y306850D02*
D03*
X498413Y286850D02*
D03*
Y277795D02*
D03*
X507823D02*
D03*
Y286850D02*
D03*
X498413Y266850D02*
D03*
Y257795D02*
D03*
X507823D02*
D03*
Y266850D02*
D03*
X498413Y246850D02*
D03*
Y237795D02*
D03*
X507823D02*
D03*
Y246850D02*
D03*
X409882Y268047D02*
D03*
Y277102D02*
D03*
X400472D02*
D03*
Y268047D02*
D03*
X412087Y338047D02*
D03*
Y347102D02*
D03*
X402677D02*
D03*
Y338047D02*
D03*
D20*
X498295Y323898D02*
D03*
Y322323D02*
D03*
Y320748D02*
D03*
X507941Y323898D02*
D03*
Y322323D02*
D03*
Y320748D02*
D03*
X498295Y303898D02*
D03*
Y302323D02*
D03*
Y300748D02*
D03*
X507941Y303898D02*
D03*
Y302323D02*
D03*
Y300748D02*
D03*
X498295Y283898D02*
D03*
Y282323D02*
D03*
Y280748D02*
D03*
X507941Y283898D02*
D03*
Y282323D02*
D03*
Y280748D02*
D03*
X498295Y263898D02*
D03*
Y262323D02*
D03*
Y260748D02*
D03*
X507941Y263898D02*
D03*
Y262323D02*
D03*
Y260748D02*
D03*
X498295Y243898D02*
D03*
Y242323D02*
D03*
Y240748D02*
D03*
X507941Y243898D02*
D03*
Y242323D02*
D03*
Y240748D02*
D03*
X410000Y271000D02*
D03*
Y272575D02*
D03*
Y274150D02*
D03*
X400354Y271000D02*
D03*
Y272575D02*
D03*
Y274150D02*
D03*
X412205Y341000D02*
D03*
Y342575D02*
D03*
Y344150D02*
D03*
X402559Y341000D02*
D03*
Y342575D02*
D03*
Y344150D02*
D03*
D21*
X384335Y220291D02*
D03*
Y231709D02*
D03*
X397130Y220291D02*
D03*
Y231709D02*
D03*
X378000Y364709D02*
D03*
Y353291D02*
D03*
X389000Y364709D02*
D03*
Y353291D02*
D03*
D22*
X384531Y389315D02*
D03*
X381382D02*
D03*
X387878D02*
D03*
X389650Y385772D02*
D03*
X386106D02*
D03*
X396342D02*
D03*
X392799D02*
D03*
X394571Y389315D02*
D03*
X401067D02*
D03*
X397917D02*
D03*
X397917Y199685D02*
D03*
X401067D02*
D03*
X394571D02*
D03*
X392799Y203228D02*
D03*
X396342D02*
D03*
X386106D02*
D03*
X389650D02*
D03*
X387878Y199685D02*
D03*
X381382D02*
D03*
X384531D02*
D03*
D23*
X403823Y385772D02*
D03*
X378626D02*
D03*
X378626Y203228D02*
D03*
X403823D02*
D03*
D24*
X377642Y381283D02*
D03*
X404807Y207716D02*
D03*
D25*
X404807Y381283D02*
D03*
X377642Y207716D02*
D03*
D26*
X373606Y379709D02*
D03*
X408843D02*
D03*
X408843Y209291D02*
D03*
X373606D02*
D03*
D27*
X415142Y388921D02*
D03*
X367307D02*
D03*
X415142Y404118D02*
D03*
X367307Y403724D02*
D03*
X367307Y200079D02*
D03*
X415142D02*
D03*
X367307Y184882D02*
D03*
X415142Y185276D02*
D03*
D28*
X472441Y410000D02*
D03*
Y400000D02*
D03*
Y390000D02*
D03*
Y380000D02*
D03*
X442441D02*
D03*
Y390000D02*
D03*
Y400000D02*
D03*
D29*
Y410000D02*
D03*
D30*
X484000Y409903D02*
D03*
X514000D02*
D03*
X407000Y298000D02*
D03*
X377000D02*
D03*
Y288000D02*
D03*
X407000D02*
D03*
D31*
X480000Y227795D02*
D03*
X420000Y357900D02*
D03*
D32*
X480000Y238000D02*
D03*
Y247795D02*
D03*
Y257795D02*
D03*
Y267795D02*
D03*
Y277795D02*
D03*
Y287795D02*
D03*
Y297795D02*
D03*
Y307795D02*
D03*
Y317795D02*
D03*
Y327795D02*
D03*
Y337795D02*
D03*
Y347795D02*
D03*
Y357795D02*
D03*
X420000Y347900D02*
D03*
Y337900D02*
D03*
Y327900D02*
D03*
Y317900D02*
D03*
Y307900D02*
D03*
Y297900D02*
D03*
Y287900D02*
D03*
Y277900D02*
D03*
Y267900D02*
D03*
Y257900D02*
D03*
Y247900D02*
D03*
Y237900D02*
D03*
Y227900D02*
D03*
D33*
X506000Y192700D02*
D03*
X496000D02*
D03*
X457200D02*
D03*
X467200D02*
D03*
X477200D02*
D03*
X447200D02*
D03*
X437200D02*
D03*
D34*
X387000Y314461D02*
D03*
X377000D02*
D03*
X377244Y274150D02*
D03*
X387244D02*
D03*
D35*
X432000Y317795D02*
D03*
X362000Y340000D02*
D03*
Y350000D02*
D03*
X360000Y194700D02*
D03*
X424000Y178000D02*
D03*
X395276Y345276D02*
D03*
X402819Y326000D02*
D03*
D36*
X495000Y246905D02*
D03*
Y267205D02*
D03*
Y326819D02*
D03*
Y306906D02*
D03*
Y287055D02*
D03*
X511000Y317795D02*
D03*
Y297795D02*
D03*
Y277795D02*
D03*
Y237795D02*
D03*
Y257795D02*
D03*
M02*
