M48
;Layer_Color=9474304
;FILE_FORMAT=2:5
INCH,LZ
;TYPE=PLATED
T1F00S00C0.01500
T2F00S00C0.01575
T4F00S00C0.02800
T5F00S00C0.03150
T6F00S00C0.03346
T7F00S00C0.03543
T8F00S00C0.04331
%
T01
X0495Y0246905
Y0267205
Y0287055
Y0306906
X0511Y0297795
Y0277795
Y0257795
Y0237795
Y0317795
X0495Y0326819
T02
X0378701Y0196185
X0381851
X0385
X0383425Y0198941
X0386575
X0389725
X0392874
X0396024
X0399173
X0397599Y0196185
X0394449
X03913
X0380276Y0198941
X0377126
X0382977Y0392736
X0386126
X0389276
X0392425
X0395575
X0398725
X0401874
X0405024
X0403449Y0395492
X04003
X039715
X0390851
X0387701
X0384552
T04
X0422Y0173
X0418Y0196
X0384276Y0212
X0402819Y0326
X0395276Y0345276
X0362Y035
Y034
X0432Y0317795
X0457283Y0381283
X0454839Y0418
X0514Y0424
T05
X0377244Y027415
X0387244
X0387Y0314461
X0377
T06
X0377Y0288
Y0298
X0407
Y0288
X0484Y0409903
X0514
T07
X048Y0227795
Y0238
Y0247795
Y0257795
Y0267795
Y0277795
Y0287795
Y0297795
Y0307795
X042Y03079
Y02979
Y02879
Y02779
Y02679
Y02579
Y02479
Y02379
Y02279
Y03179
Y03279
Y03379
Y03479
Y03579
X048Y0357795
Y0347795
Y0337795
Y0327795
Y0317795
T08
X04772Y01927
X0496
X0506
X04672
X04572
X04472
X04372
M30
