G04*
G04 #@! TF.GenerationSoftware,Altium Limited,Altium Designer,18.1.9 (240)*
G04*
G04 Layer_Physical_Order=2*
G04 Layer_Color=16711680*
%FSLAX25Y25*%
%MOIN*%
G70*
G01*
G75*
%ADD40C,0.00800*%
%ADD41C,0.02559*%
%ADD42O,0.03937X0.06299*%
%ADD43C,0.05512*%
%ADD44R,0.05906X0.05906*%
%ADD45C,0.05906*%
%ADD46O,0.06890X0.09843*%
%ADD47C,0.06299*%
%ADD48C,0.05000*%
%ADD49C,0.02500*%
G36*
X531000Y429000D02*
Y162000D01*
X346000Y162000D01*
Y163385D01*
X346000Y430000D01*
X530000D01*
X531000Y429000D01*
D02*
G37*
%LPC*%
G36*
X454839Y420925D02*
X454081Y420825D01*
X453376Y420533D01*
X452770Y420068D01*
X452305Y419462D01*
X452037Y418816D01*
X437200D01*
X437200Y418816D01*
X436888Y418754D01*
X436623Y418577D01*
X431423Y413377D01*
X431246Y413112D01*
X431184Y412800D01*
X431184Y412800D01*
Y330238D01*
X421738Y320792D01*
X421691Y320829D01*
X420875Y321166D01*
X420000Y321282D01*
X419125Y321166D01*
X418309Y320829D01*
X417609Y320291D01*
X417071Y319591D01*
X416734Y318775D01*
X416618Y317900D01*
X416734Y317025D01*
X417071Y316209D01*
X417609Y315509D01*
X418309Y314971D01*
X419125Y314634D01*
X420000Y314518D01*
X420875Y314634D01*
X421691Y314971D01*
X422391Y315509D01*
X422929Y316209D01*
X423266Y317025D01*
X423382Y317900D01*
X423266Y318775D01*
X422929Y319591D01*
X422892Y319638D01*
X432577Y329323D01*
X432577Y329323D01*
X432754Y329588D01*
X432816Y329900D01*
Y412462D01*
X437538Y417184D01*
X452037D01*
X452305Y416538D01*
X452770Y415932D01*
X453376Y415467D01*
X454081Y415175D01*
X454839Y415075D01*
X455596Y415175D01*
X456301Y415467D01*
X456907Y415932D01*
X457372Y416538D01*
X457664Y417243D01*
X457764Y418000D01*
X457664Y418757D01*
X457372Y419462D01*
X456907Y420068D01*
X456301Y420533D01*
X455596Y420825D01*
X454839Y420925D01*
D02*
G37*
G36*
X410811Y419482D02*
X409887Y419298D01*
X409104Y418775D01*
X408580Y417991D01*
X408396Y417067D01*
Y414705D01*
X408580Y413781D01*
X409104Y412997D01*
X409887Y412474D01*
X410811Y412290D01*
X411735Y412474D01*
X412519Y412997D01*
X413042Y413781D01*
X413226Y414705D01*
Y417067D01*
X413042Y417991D01*
X412519Y418775D01*
X411735Y419298D01*
X410811Y419482D01*
D02*
G37*
G36*
X377189D02*
X376265Y419298D01*
X375482Y418775D01*
X374958Y417991D01*
X374774Y417067D01*
Y414705D01*
X374958Y413781D01*
X375482Y412997D01*
X376265Y412474D01*
X377189Y412290D01*
X378113Y412474D01*
X378897Y412997D01*
X379420Y413781D01*
X379604Y414705D01*
Y417067D01*
X379420Y417991D01*
X378897Y418775D01*
X378113Y419298D01*
X377189Y419482D01*
D02*
G37*
G36*
X514500Y413626D02*
Y410403D01*
X517723D01*
X517659Y410884D01*
X517281Y411797D01*
X516679Y412582D01*
X515894Y413184D01*
X514981Y413562D01*
X514500Y413626D01*
D02*
G37*
G36*
X513500D02*
X513020Y413562D01*
X512106Y413184D01*
X511321Y412582D01*
X510719Y411797D01*
X510341Y410884D01*
X510278Y410403D01*
X513500D01*
Y413626D01*
D02*
G37*
G36*
X484000Y413086D02*
X483176Y412978D01*
X482408Y412660D01*
X481749Y412154D01*
X481243Y411495D01*
X480925Y410727D01*
X480817Y409903D01*
X480925Y409079D01*
X481243Y408312D01*
X481749Y407652D01*
X482408Y407147D01*
X483176Y406828D01*
X484000Y406720D01*
X484824Y406828D01*
X485592Y407147D01*
X486251Y407652D01*
X486757Y408312D01*
X487075Y409079D01*
X487183Y409903D01*
X487075Y410727D01*
X486757Y411495D01*
X486251Y412154D01*
X485592Y412660D01*
X484824Y412978D01*
X484000Y413086D01*
D02*
G37*
G36*
X517723Y409403D02*
X514500D01*
Y406181D01*
X514981Y406244D01*
X515894Y406622D01*
X516679Y407224D01*
X517281Y408009D01*
X517659Y408923D01*
X517723Y409403D01*
D02*
G37*
G36*
X513500D02*
X510278D01*
X510341Y408923D01*
X510719Y408009D01*
X511321Y407224D01*
X512106Y406622D01*
X513020Y406244D01*
X513500Y406181D01*
Y409403D01*
D02*
G37*
G36*
X403449Y397205D02*
X402794Y397074D01*
X402238Y396703D01*
X402124Y396533D01*
X401624D01*
X401510Y396703D01*
X400955Y397074D01*
X400300Y397205D01*
X399644Y397074D01*
X399089Y396703D01*
X398975Y396533D01*
X398475D01*
X398361Y396703D01*
X397805Y397074D01*
X397150Y397205D01*
X396495Y397074D01*
X395939Y396703D01*
X395568Y396147D01*
X395438Y395492D01*
X395552Y394915D01*
X395557Y394820D01*
X395267Y394387D01*
X394920Y394318D01*
X394364Y393947D01*
X394250Y393777D01*
X393750D01*
X393636Y393947D01*
X393081Y394318D01*
X392734Y394387D01*
X392444Y394820D01*
X392448Y394915D01*
X392563Y395492D01*
X392433Y396147D01*
X392062Y396703D01*
X391506Y397074D01*
X390851Y397205D01*
X390195Y397074D01*
X389640Y396703D01*
X389526Y396533D01*
X389026D01*
X388912Y396703D01*
X388356Y397074D01*
X387701Y397205D01*
X387046Y397074D01*
X386490Y396703D01*
X386376Y396533D01*
X385876D01*
X385762Y396703D01*
X385207Y397074D01*
X384552Y397205D01*
X383896Y397074D01*
X383341Y396703D01*
X382969Y396147D01*
X382839Y395492D01*
X382927Y395051D01*
X382087Y394883D01*
X381333Y394380D01*
X380829Y393626D01*
X380752Y393236D01*
X382977D01*
Y392736D01*
X383477D01*
Y390511D01*
X383866Y390589D01*
X384620Y391093D01*
X384634Y391114D01*
X385327Y391250D01*
X385471Y391154D01*
X386126Y391024D01*
X386782Y391154D01*
X387337Y391525D01*
X387451Y391696D01*
X387951D01*
X388065Y391525D01*
X388621Y391154D01*
X389276Y391024D01*
X389931Y391154D01*
X390487Y391525D01*
X390601Y391696D01*
X391101D01*
X391215Y391525D01*
X391770Y391154D01*
X392425Y391024D01*
X393081Y391154D01*
X393636Y391525D01*
X393750Y391696D01*
X394250D01*
X394364Y391525D01*
X394920Y391154D01*
X395575Y391024D01*
X396230Y391154D01*
X396786Y391525D01*
X396900Y391696D01*
X397400D01*
X397514Y391525D01*
X398069Y391154D01*
X398725Y391024D01*
X399380Y391154D01*
X399936Y391525D01*
X400049Y391696D01*
X400550D01*
X400664Y391525D01*
X401219Y391154D01*
X401874Y391024D01*
X402530Y391154D01*
X402674Y391250D01*
X403366Y391114D01*
X403380Y391093D01*
X404135Y390589D01*
X404524Y390511D01*
Y392736D01*
X405024D01*
Y393236D01*
X407249D01*
X407171Y393626D01*
X406667Y394380D01*
X405913Y394883D01*
X405074Y395051D01*
X405162Y395492D01*
X405031Y396147D01*
X404660Y396703D01*
X404104Y397074D01*
X403449Y397205D01*
D02*
G37*
G36*
X410811Y400860D02*
X409887Y400676D01*
X409104Y400152D01*
X408580Y399369D01*
X408396Y398445D01*
Y396083D01*
X408580Y395159D01*
X409104Y394375D01*
X409887Y393852D01*
X410811Y393668D01*
X411735Y393852D01*
X412519Y394375D01*
X413042Y395159D01*
X413226Y396083D01*
Y398445D01*
X413042Y399369D01*
X412519Y400152D01*
X411735Y400676D01*
X410811Y400860D01*
D02*
G37*
G36*
X377189D02*
X376265Y400676D01*
X375482Y400152D01*
X374958Y399369D01*
X374774Y398445D01*
Y396083D01*
X374958Y395159D01*
X375482Y394375D01*
X376265Y393852D01*
X377189Y393668D01*
X378113Y393852D01*
X378897Y394375D01*
X379420Y395159D01*
X379604Y396083D01*
Y398445D01*
X379420Y399369D01*
X378897Y400152D01*
X378113Y400676D01*
X377189Y400860D01*
D02*
G37*
G36*
X407249Y392236D02*
X405524D01*
Y390511D01*
X405913Y390589D01*
X406667Y391093D01*
X407171Y391847D01*
X407249Y392236D01*
D02*
G37*
G36*
X382477D02*
X380752D01*
X380829Y391847D01*
X381333Y391093D01*
X382087Y390589D01*
X382477Y390511D01*
Y392236D01*
D02*
G37*
G36*
X514000Y426925D02*
X513243Y426825D01*
X512537Y426533D01*
X511932Y426068D01*
X511467Y425462D01*
X511175Y424757D01*
X511075Y424000D01*
X511175Y423243D01*
X511467Y422538D01*
X511932Y421932D01*
X512537Y421467D01*
X513243Y421175D01*
X514000Y421075D01*
X514757Y421175D01*
X515404Y421443D01*
X519184Y417662D01*
Y381623D01*
X518722Y381431D01*
X509577Y390577D01*
X509312Y390754D01*
X509000Y390816D01*
X509000Y390816D01*
X472441D01*
X472129Y390754D01*
X471864Y390577D01*
X471864Y390577D01*
X463386Y382099D01*
X460084D01*
X459817Y382746D01*
X459352Y383352D01*
X458746Y383817D01*
X458041Y384109D01*
X457283Y384208D01*
X456526Y384109D01*
X455821Y383817D01*
X455215Y383352D01*
X454750Y382746D01*
X454458Y382041D01*
X454358Y381283D01*
X454458Y380526D01*
X454750Y379821D01*
X455215Y379215D01*
X455821Y378750D01*
X456526Y378458D01*
X457283Y378358D01*
X458041Y378458D01*
X458746Y378750D01*
X459352Y379215D01*
X459817Y379821D01*
X460084Y380468D01*
X463724D01*
X463724Y380468D01*
X464037Y380530D01*
X464301Y380707D01*
X472779Y389184D01*
X508662D01*
X519184Y378662D01*
Y195038D01*
X517662Y193516D01*
X509878D01*
Y194176D01*
X509746Y195180D01*
X509359Y196115D01*
X508742Y196919D01*
X507939Y197535D01*
X507004Y197922D01*
X506000Y198054D01*
X504996Y197922D01*
X504061Y197535D01*
X503258Y196919D01*
X502641Y196115D01*
X502254Y195180D01*
X502122Y194176D01*
Y191224D01*
X502254Y190220D01*
X502641Y189285D01*
X503258Y188481D01*
X504061Y187865D01*
X504996Y187478D01*
X506000Y187346D01*
X507004Y187478D01*
X507939Y187865D01*
X508742Y188481D01*
X509359Y189285D01*
X509746Y190220D01*
X509878Y191224D01*
Y191884D01*
X518000D01*
X518000Y191884D01*
X518312Y191946D01*
X518577Y192123D01*
X518722Y192269D01*
X519184Y192078D01*
Y181338D01*
X511662Y173816D01*
X483338D01*
X478016Y179138D01*
Y187453D01*
X478204Y187478D01*
X479139Y187865D01*
X479942Y188481D01*
X480558Y189285D01*
X480946Y190220D01*
X481078Y191224D01*
Y194176D01*
X480946Y195180D01*
X480558Y196115D01*
X479942Y196919D01*
X479139Y197535D01*
X478204Y197922D01*
X477200Y198054D01*
X476196Y197922D01*
X475261Y197535D01*
X474458Y196919D01*
X473841Y196115D01*
X473454Y195180D01*
X473322Y194176D01*
Y191224D01*
X473454Y190220D01*
X473841Y189285D01*
X474458Y188481D01*
X475261Y187865D01*
X476196Y187478D01*
X476384Y187453D01*
Y178800D01*
X476384Y178800D01*
X476446Y178488D01*
X476623Y178223D01*
X480569Y174278D01*
X480377Y173816D01*
X424801D01*
X424533Y174462D01*
X424068Y175068D01*
X423462Y175533D01*
X422757Y175825D01*
X422000Y175925D01*
X421243Y175825D01*
X420538Y175533D01*
X419932Y175068D01*
X419467Y174462D01*
X419175Y173757D01*
X419075Y173000D01*
X419175Y172243D01*
X419467Y171537D01*
X419932Y170932D01*
X420538Y170467D01*
X421243Y170175D01*
X422000Y170075D01*
X422757Y170175D01*
X423462Y170467D01*
X424068Y170932D01*
X424533Y171537D01*
X424801Y172184D01*
X483000D01*
X483000Y172184D01*
X483000Y172184D01*
X512000D01*
X512000Y172184D01*
X512312Y172246D01*
X512577Y172423D01*
X520577Y180423D01*
X520577Y180423D01*
X520754Y180688D01*
X520816Y181000D01*
X520816Y181000D01*
Y194700D01*
X520816Y194700D01*
X520816Y194700D01*
Y379000D01*
X520816Y379000D01*
X520816Y379000D01*
Y418000D01*
X520754Y418312D01*
X520577Y418577D01*
X520577Y418577D01*
X516557Y422596D01*
X516825Y423243D01*
X516925Y424000D01*
X516825Y424757D01*
X516533Y425462D01*
X516068Y426068D01*
X515462Y426533D01*
X514757Y426825D01*
X514000Y426925D01*
D02*
G37*
G36*
X423953Y361853D02*
X420500D01*
Y358400D01*
X423953D01*
Y361853D01*
D02*
G37*
G36*
X419500D02*
X416047D01*
Y358400D01*
X419500D01*
Y361853D01*
D02*
G37*
G36*
X480000Y361177D02*
X479125Y361062D01*
X478309Y360724D01*
X477609Y360187D01*
X477071Y359486D01*
X476734Y358670D01*
X476618Y357795D01*
X476734Y356920D01*
X477071Y356104D01*
X477609Y355404D01*
X478309Y354867D01*
X479125Y354529D01*
X480000Y354414D01*
X480875Y354529D01*
X481691Y354867D01*
X482391Y355404D01*
X482929Y356104D01*
X483266Y356920D01*
X483382Y357795D01*
X483266Y358670D01*
X482929Y359486D01*
X482391Y360187D01*
X481691Y360724D01*
X480875Y361062D01*
X480000Y361177D01*
D02*
G37*
G36*
X423953Y357400D02*
X420500D01*
Y353947D01*
X423953D01*
Y357400D01*
D02*
G37*
G36*
X419500D02*
X416047D01*
Y353947D01*
X419500D01*
Y357400D01*
D02*
G37*
G36*
X480500Y351716D02*
Y348295D01*
X483921D01*
X483851Y348827D01*
X483453Y349789D01*
X482819Y350614D01*
X481993Y351248D01*
X481032Y351646D01*
X480500Y351716D01*
D02*
G37*
G36*
X479500D02*
X478968Y351646D01*
X478007Y351248D01*
X477181Y350614D01*
X476547Y349789D01*
X476149Y348827D01*
X476079Y348295D01*
X479500D01*
Y351716D01*
D02*
G37*
G36*
X420000Y351282D02*
X419125Y351166D01*
X418309Y350829D01*
X417609Y350291D01*
X417071Y349591D01*
X416734Y348775D01*
X416618Y347900D01*
X416734Y347025D01*
X417071Y346209D01*
X417609Y345509D01*
X418309Y344971D01*
X419125Y344634D01*
X420000Y344518D01*
X420875Y344634D01*
X421691Y344971D01*
X422391Y345509D01*
X422929Y346209D01*
X423266Y347025D01*
X423382Y347900D01*
X423266Y348775D01*
X422929Y349591D01*
X422391Y350291D01*
X421691Y350829D01*
X420875Y351166D01*
X420000Y351282D01*
D02*
G37*
G36*
X483921Y347295D02*
X480500D01*
Y343874D01*
X481032Y343944D01*
X481993Y344343D01*
X482819Y344976D01*
X483453Y345802D01*
X483851Y346763D01*
X483921Y347295D01*
D02*
G37*
G36*
X479500D02*
X476079D01*
X476149Y346763D01*
X476547Y345802D01*
X477181Y344976D01*
X478007Y344343D01*
X478968Y343944D01*
X479500Y343874D01*
Y347295D01*
D02*
G37*
G36*
X362000Y352925D02*
X361243Y352825D01*
X360538Y352533D01*
X359932Y352068D01*
X359467Y351463D01*
X359175Y350757D01*
X359075Y350000D01*
X359175Y349243D01*
X359467Y348537D01*
X359932Y347932D01*
X360538Y347467D01*
X361184Y347199D01*
Y342801D01*
X360538Y342533D01*
X359932Y342068D01*
X359467Y341462D01*
X359175Y340757D01*
X359075Y340000D01*
X359175Y339243D01*
X359467Y338538D01*
X359932Y337932D01*
X360538Y337467D01*
X361243Y337175D01*
X362000Y337075D01*
X362757Y337175D01*
X363462Y337467D01*
X364068Y337932D01*
X364533Y338538D01*
X364825Y339243D01*
X364925Y340000D01*
X364825Y340757D01*
X364533Y341462D01*
X364068Y342068D01*
X363462Y342533D01*
X362816Y342801D01*
Y347199D01*
X363462Y347467D01*
X364068Y347932D01*
X364533Y348537D01*
X364825Y349243D01*
X364925Y350000D01*
X364825Y350757D01*
X364533Y351463D01*
X364068Y352068D01*
X363462Y352533D01*
X362757Y352825D01*
X362000Y352925D01*
D02*
G37*
G36*
X420000Y341282D02*
X419125Y341166D01*
X418309Y340829D01*
X417609Y340291D01*
X417071Y339591D01*
X416734Y338775D01*
X416618Y337900D01*
X416734Y337025D01*
X417071Y336209D01*
X417609Y335509D01*
X418309Y334971D01*
X419125Y334634D01*
X420000Y334518D01*
X420875Y334634D01*
X421691Y334971D01*
X422391Y335509D01*
X422929Y336209D01*
X423266Y337025D01*
X423382Y337900D01*
X423266Y338775D01*
X422929Y339591D01*
X422391Y340291D01*
X421691Y340829D01*
X420875Y341166D01*
X420000Y341282D01*
D02*
G37*
G36*
X480000Y341177D02*
X479125Y341062D01*
X478309Y340724D01*
X477609Y340187D01*
X477071Y339486D01*
X476734Y338670D01*
X476618Y337795D01*
X476734Y336920D01*
X477071Y336104D01*
X477609Y335404D01*
X478309Y334867D01*
X479125Y334529D01*
X480000Y334414D01*
X480875Y334529D01*
X481691Y334867D01*
X482391Y335404D01*
X482929Y336104D01*
X483266Y336920D01*
X483382Y337795D01*
X483266Y338670D01*
X482929Y339486D01*
X482391Y340187D01*
X481691Y340724D01*
X480875Y341062D01*
X480000Y341177D01*
D02*
G37*
G36*
X420000Y331282D02*
X419125Y331166D01*
X418309Y330829D01*
X417609Y330291D01*
X417071Y329591D01*
X416734Y328775D01*
X416618Y327900D01*
X416734Y327025D01*
X417071Y326209D01*
X417609Y325509D01*
X418309Y324971D01*
X419125Y324634D01*
X420000Y324518D01*
X420875Y324634D01*
X421691Y324971D01*
X422391Y325509D01*
X422929Y326209D01*
X423266Y327025D01*
X423382Y327900D01*
X423266Y328775D01*
X422929Y329591D01*
X422391Y330291D01*
X421691Y330829D01*
X420875Y331166D01*
X420000Y331282D01*
D02*
G37*
G36*
X480000Y331177D02*
X479125Y331062D01*
X478309Y330724D01*
X477609Y330187D01*
X477071Y329486D01*
X476734Y328671D01*
X476618Y327795D01*
X476734Y326920D01*
X477071Y326104D01*
X477609Y325404D01*
X478309Y324867D01*
X479125Y324529D01*
X480000Y324414D01*
X480875Y324529D01*
X481691Y324867D01*
X482391Y325404D01*
X482929Y326104D01*
X483266Y326920D01*
X483382Y327795D01*
X483266Y328671D01*
X482929Y329486D01*
X482391Y330187D01*
X481691Y330724D01*
X480875Y331062D01*
X480000Y331177D01*
D02*
G37*
G36*
X395276Y348201D02*
X394518Y348101D01*
X393813Y347809D01*
X393207Y347344D01*
X392742Y346738D01*
X392450Y346033D01*
X392351Y345276D01*
X392450Y344518D01*
X392742Y343813D01*
X393207Y343207D01*
X393813Y342742D01*
X394460Y342475D01*
Y333543D01*
X394460Y333543D01*
X394522Y333231D01*
X394699Y332966D01*
X400261Y327404D01*
X399993Y326757D01*
X399894Y326000D01*
X399993Y325243D01*
X400286Y324537D01*
X400751Y323932D01*
X401356Y323467D01*
X402062Y323175D01*
X402819Y323075D01*
X403576Y323175D01*
X404281Y323467D01*
X404887Y323932D01*
X405352Y324537D01*
X405644Y325243D01*
X405744Y326000D01*
X405644Y326757D01*
X405352Y327463D01*
X404887Y328068D01*
X404281Y328533D01*
X403576Y328825D01*
X402819Y328925D01*
X402062Y328825D01*
X401415Y328557D01*
X396091Y333881D01*
Y342475D01*
X396738Y342742D01*
X397344Y343207D01*
X397809Y343813D01*
X398101Y344518D01*
X398201Y345276D01*
X398101Y346033D01*
X397809Y346738D01*
X397344Y347344D01*
X396738Y347809D01*
X396033Y348101D01*
X395276Y348201D01*
D02*
G37*
G36*
X387500Y318581D02*
Y314961D01*
X391120D01*
X391043Y315545D01*
X390625Y316554D01*
X389960Y317421D01*
X389093Y318086D01*
X388083Y318504D01*
X387500Y318581D01*
D02*
G37*
G36*
X386500D02*
X385917Y318504D01*
X384907Y318086D01*
X384040Y317421D01*
X383375Y316554D01*
X382957Y315545D01*
X382880Y314961D01*
X386500D01*
Y318581D01*
D02*
G37*
G36*
X480000Y321177D02*
X479125Y321062D01*
X478309Y320724D01*
X477609Y320186D01*
X477071Y319486D01*
X476734Y318671D01*
X476618Y317795D01*
X476734Y316920D01*
X477071Y316104D01*
X477609Y315404D01*
X478309Y314867D01*
X479125Y314529D01*
X480000Y314414D01*
X480875Y314529D01*
X481691Y314867D01*
X482391Y315404D01*
X482929Y316104D01*
X483266Y316920D01*
X483382Y317795D01*
X483266Y318671D01*
X482929Y319486D01*
X482391Y320186D01*
X481691Y320724D01*
X480875Y321062D01*
X480000Y321177D01*
D02*
G37*
G36*
X495000Y328501D02*
X494356Y328373D01*
X493810Y328009D01*
X493446Y327463D01*
X493318Y326819D01*
X493446Y326175D01*
X493810Y325629D01*
X494184Y325379D01*
Y314000D01*
X494184Y314000D01*
X494184Y314000D01*
Y308345D01*
X493810Y308095D01*
X493446Y307549D01*
X493318Y306906D01*
X493446Y306262D01*
X493810Y305716D01*
X494184Y305466D01*
Y295000D01*
X494184Y295000D01*
X494184Y295000D01*
Y288494D01*
X493810Y288245D01*
X493446Y287699D01*
X493318Y287055D01*
X493446Y286411D01*
X493810Y285865D01*
X494184Y285616D01*
Y275000D01*
X494184Y275000D01*
X494184Y275000D01*
Y268644D01*
X493810Y268394D01*
X493446Y267848D01*
X493318Y267205D01*
X493446Y266561D01*
X493810Y266015D01*
X494184Y265765D01*
Y255000D01*
X494184Y255000D01*
X494184Y255000D01*
Y248345D01*
X493810Y248095D01*
X493446Y247549D01*
X493318Y246905D01*
X493446Y246262D01*
X493810Y245716D01*
X494184Y245466D01*
Y235000D01*
X494184Y235000D01*
X494246Y234688D01*
X494423Y234423D01*
X496423Y232423D01*
X496423Y232423D01*
X496688Y232246D01*
X497000Y232184D01*
X497000Y232184D01*
X510000D01*
X510000Y232184D01*
X510312Y232246D01*
X510577Y232423D01*
X511577Y233423D01*
X511577Y233423D01*
X511754Y233688D01*
X511816Y234000D01*
Y236356D01*
X512190Y236606D01*
X512554Y237152D01*
X512682Y237795D01*
X512554Y238439D01*
X512190Y238985D01*
X511644Y239350D01*
X511000Y239478D01*
X510356Y239350D01*
X509810Y238985D01*
X509446Y238439D01*
X509318Y237795D01*
X509446Y237152D01*
X509810Y236606D01*
X510184Y236356D01*
Y234338D01*
X509662Y233816D01*
X497338D01*
X495816Y235338D01*
Y245466D01*
X496190Y245716D01*
X496554Y246262D01*
X496682Y246905D01*
X496554Y247549D01*
X496190Y248095D01*
X495816Y248345D01*
Y252378D01*
X496278Y252569D01*
X496423Y252423D01*
X496423Y252423D01*
X496688Y252246D01*
X497000Y252184D01*
X497000Y252184D01*
X510000D01*
X510000Y252184D01*
X510312Y252246D01*
X510577Y252423D01*
X511577Y253423D01*
X511577Y253423D01*
X511754Y253688D01*
X511816Y254000D01*
Y256356D01*
X512190Y256606D01*
X512554Y257152D01*
X512682Y257795D01*
X512554Y258439D01*
X512190Y258985D01*
X511644Y259349D01*
X511000Y259478D01*
X510356Y259349D01*
X509810Y258985D01*
X509446Y258439D01*
X509318Y257795D01*
X509446Y257152D01*
X509810Y256606D01*
X510184Y256356D01*
Y254338D01*
X509662Y253816D01*
X497338D01*
X495816Y255338D01*
Y265765D01*
X496190Y266015D01*
X496554Y266561D01*
X496682Y267205D01*
X496554Y267848D01*
X496190Y268394D01*
X495816Y268644D01*
Y272377D01*
X496278Y272569D01*
X496423Y272423D01*
X496423Y272423D01*
X496688Y272246D01*
X497000Y272184D01*
X497000Y272184D01*
X510000D01*
X510000Y272184D01*
X510312Y272246D01*
X510577Y272423D01*
X511577Y273423D01*
X511577Y273423D01*
X511754Y273688D01*
X511816Y274000D01*
Y276356D01*
X512190Y276606D01*
X512554Y277151D01*
X512682Y277795D01*
X512554Y278439D01*
X512190Y278985D01*
X511644Y279349D01*
X511000Y279478D01*
X510356Y279349D01*
X509810Y278985D01*
X509446Y278439D01*
X509318Y277795D01*
X509446Y277151D01*
X509810Y276606D01*
X510184Y276356D01*
Y274338D01*
X509662Y273816D01*
X497338D01*
X495816Y275338D01*
Y285616D01*
X496190Y285865D01*
X496554Y286411D01*
X496682Y287055D01*
X496554Y287699D01*
X496190Y288245D01*
X495816Y288494D01*
Y292377D01*
X496278Y292569D01*
X496423Y292423D01*
X496423Y292423D01*
X496688Y292246D01*
X497000Y292184D01*
X497000Y292184D01*
X510000D01*
X510000Y292184D01*
X510312Y292246D01*
X510577Y292423D01*
X511577Y293423D01*
X511577Y293423D01*
X511754Y293688D01*
X511816Y294000D01*
Y296356D01*
X512190Y296606D01*
X512554Y297151D01*
X512682Y297795D01*
X512554Y298439D01*
X512190Y298985D01*
X511644Y299349D01*
X511000Y299478D01*
X510356Y299349D01*
X509810Y298985D01*
X509446Y298439D01*
X509318Y297795D01*
X509446Y297151D01*
X509810Y296606D01*
X510184Y296356D01*
Y294338D01*
X509662Y293816D01*
X497338D01*
X495816Y295338D01*
Y305466D01*
X496190Y305716D01*
X496554Y306262D01*
X496682Y306906D01*
X496554Y307549D01*
X496190Y308095D01*
X495816Y308345D01*
Y312033D01*
X496000Y312184D01*
X510000D01*
X510000Y312184D01*
X510312Y312246D01*
X510577Y312423D01*
X511577Y313423D01*
X511577Y313423D01*
X511754Y313688D01*
X511816Y314000D01*
Y316356D01*
X512190Y316606D01*
X512554Y317151D01*
X512682Y317795D01*
X512554Y318439D01*
X512190Y318985D01*
X511644Y319350D01*
X511000Y319478D01*
X510356Y319350D01*
X509810Y318985D01*
X509446Y318439D01*
X509318Y317795D01*
X509446Y317151D01*
X509810Y316606D01*
X510184Y316356D01*
Y314338D01*
X509662Y313816D01*
X496338D01*
X495816Y314338D01*
Y325379D01*
X496190Y325629D01*
X496554Y326175D01*
X496682Y326819D01*
X496554Y327463D01*
X496190Y328009D01*
X495644Y328373D01*
X495000Y328501D01*
D02*
G37*
G36*
X377000Y318042D02*
X376073Y317920D01*
X375210Y317562D01*
X374468Y316993D01*
X373899Y316251D01*
X373542Y315388D01*
X373420Y314461D01*
X373542Y313535D01*
X373899Y312671D01*
X374468Y311930D01*
X375210Y311361D01*
X376073Y311003D01*
X377000Y310881D01*
X377927Y311003D01*
X378790Y311361D01*
X379532Y311930D01*
X380101Y312671D01*
X380458Y313535D01*
X380580Y314461D01*
X380458Y315388D01*
X380101Y316251D01*
X379532Y316993D01*
X378790Y317562D01*
X377927Y317920D01*
X377000Y318042D01*
D02*
G37*
G36*
X391120Y313961D02*
X387500D01*
Y310342D01*
X388083Y310419D01*
X389093Y310837D01*
X389960Y311502D01*
X390625Y312369D01*
X391043Y313378D01*
X391120Y313961D01*
D02*
G37*
G36*
X386500D02*
X382880D01*
X382957Y313378D01*
X383375Y312369D01*
X384040Y311502D01*
X384907Y310837D01*
X385917Y310419D01*
X386500Y310342D01*
Y313961D01*
D02*
G37*
G36*
X420000Y311282D02*
X419125Y311166D01*
X418309Y310829D01*
X417609Y310291D01*
X417071Y309591D01*
X416734Y308775D01*
X416618Y307900D01*
X416734Y307025D01*
X417071Y306209D01*
X417609Y305509D01*
X418309Y304971D01*
X419125Y304634D01*
X420000Y304518D01*
X420875Y304634D01*
X421691Y304971D01*
X422391Y305509D01*
X422929Y306209D01*
X423266Y307025D01*
X423382Y307900D01*
X423266Y308775D01*
X422929Y309591D01*
X422391Y310291D01*
X421691Y310829D01*
X420875Y311166D01*
X420000Y311282D01*
D02*
G37*
G36*
X480000Y311177D02*
X479125Y311062D01*
X478309Y310724D01*
X477609Y310187D01*
X477071Y309486D01*
X476734Y308670D01*
X476618Y307795D01*
X476734Y306920D01*
X477071Y306104D01*
X477609Y305404D01*
X478309Y304867D01*
X479125Y304529D01*
X480000Y304414D01*
X480875Y304529D01*
X481691Y304867D01*
X482391Y305404D01*
X482929Y306104D01*
X483266Y306920D01*
X483382Y307795D01*
X483266Y308670D01*
X482929Y309486D01*
X482391Y310187D01*
X481691Y310724D01*
X480875Y311062D01*
X480000Y311177D01*
D02*
G37*
G36*
X407000Y301183D02*
X406176Y301075D01*
X405408Y300757D01*
X404749Y300251D01*
X404243Y299592D01*
X403925Y298824D01*
X403817Y298000D01*
X403925Y297176D01*
X404243Y296408D01*
X404749Y295749D01*
X405408Y295243D01*
X406176Y294925D01*
X407000Y294817D01*
X407824Y294925D01*
X408592Y295243D01*
X409251Y295749D01*
X409757Y296408D01*
X410075Y297176D01*
X410183Y298000D01*
X410075Y298824D01*
X409757Y299592D01*
X409251Y300251D01*
X408592Y300757D01*
X407824Y301075D01*
X407000Y301183D01*
D02*
G37*
G36*
X377000D02*
X376176Y301075D01*
X375408Y300757D01*
X374749Y300251D01*
X374243Y299592D01*
X373925Y298824D01*
X373817Y298000D01*
X373925Y297176D01*
X374243Y296408D01*
X374749Y295749D01*
X375408Y295243D01*
X376176Y294925D01*
X377000Y294817D01*
X377824Y294925D01*
X378592Y295243D01*
X379251Y295749D01*
X379757Y296408D01*
X380075Y297176D01*
X380183Y298000D01*
X380075Y298824D01*
X379757Y299592D01*
X379251Y300251D01*
X378592Y300757D01*
X377824Y301075D01*
X377000Y301183D01*
D02*
G37*
G36*
X420000Y301282D02*
X419125Y301166D01*
X418309Y300829D01*
X417609Y300291D01*
X417071Y299591D01*
X416734Y298775D01*
X416618Y297900D01*
X416734Y297025D01*
X417071Y296209D01*
X417609Y295509D01*
X418309Y294971D01*
X419125Y294634D01*
X420000Y294518D01*
X420875Y294634D01*
X421691Y294971D01*
X422391Y295509D01*
X422929Y296209D01*
X423266Y297025D01*
X423382Y297900D01*
X423266Y298775D01*
X422929Y299591D01*
X422391Y300291D01*
X421691Y300829D01*
X420875Y301166D01*
X420000Y301282D01*
D02*
G37*
G36*
X480000Y301177D02*
X479125Y301062D01*
X478309Y300724D01*
X477609Y300186D01*
X477071Y299486D01*
X476734Y298671D01*
X476618Y297795D01*
X476734Y296920D01*
X477071Y296104D01*
X477609Y295404D01*
X478309Y294867D01*
X479125Y294529D01*
X480000Y294414D01*
X480875Y294529D01*
X481691Y294867D01*
X482391Y295404D01*
X482929Y296104D01*
X483266Y296920D01*
X483382Y297795D01*
X483266Y298671D01*
X482929Y299486D01*
X482391Y300186D01*
X481691Y300724D01*
X480875Y301062D01*
X480000Y301177D01*
D02*
G37*
G36*
X407000Y291183D02*
X406176Y291075D01*
X405408Y290757D01*
X404749Y290251D01*
X404243Y289592D01*
X403925Y288824D01*
X403817Y288000D01*
X403925Y287176D01*
X404243Y286408D01*
X404749Y285749D01*
X405408Y285243D01*
X406176Y284925D01*
X407000Y284817D01*
X407824Y284925D01*
X408592Y285243D01*
X409251Y285749D01*
X409757Y286408D01*
X410075Y287176D01*
X410183Y288000D01*
X410075Y288824D01*
X409757Y289592D01*
X409251Y290251D01*
X408592Y290757D01*
X407824Y291075D01*
X407000Y291183D01*
D02*
G37*
G36*
X377000D02*
X376176Y291075D01*
X375408Y290757D01*
X374749Y290251D01*
X374243Y289592D01*
X373925Y288824D01*
X373817Y288000D01*
X373925Y287176D01*
X374243Y286408D01*
X374749Y285749D01*
X375408Y285243D01*
X376176Y284925D01*
X377000Y284817D01*
X377824Y284925D01*
X378592Y285243D01*
X379251Y285749D01*
X379757Y286408D01*
X380075Y287176D01*
X380183Y288000D01*
X380075Y288824D01*
X379757Y289592D01*
X379251Y290251D01*
X378592Y290757D01*
X377824Y291075D01*
X377000Y291183D01*
D02*
G37*
G36*
X420000Y291282D02*
X419125Y291166D01*
X418309Y290829D01*
X417609Y290291D01*
X417071Y289591D01*
X416734Y288775D01*
X416618Y287900D01*
X416734Y287025D01*
X417071Y286209D01*
X417609Y285509D01*
X418309Y284971D01*
X419125Y284634D01*
X420000Y284518D01*
X420875Y284634D01*
X421691Y284971D01*
X422391Y285509D01*
X422929Y286209D01*
X423266Y287025D01*
X423382Y287900D01*
X423266Y288775D01*
X422929Y289591D01*
X422391Y290291D01*
X421691Y290829D01*
X420875Y291166D01*
X420000Y291282D01*
D02*
G37*
G36*
X480000Y291177D02*
X479125Y291062D01*
X478309Y290724D01*
X477609Y290187D01*
X477071Y289486D01*
X476734Y288670D01*
X476618Y287795D01*
X476734Y286920D01*
X477071Y286104D01*
X477609Y285404D01*
X478309Y284867D01*
X479125Y284529D01*
X480000Y284414D01*
X480875Y284529D01*
X481691Y284867D01*
X482391Y285404D01*
X482929Y286104D01*
X483266Y286920D01*
X483382Y287795D01*
X483266Y288670D01*
X482929Y289486D01*
X482391Y290187D01*
X481691Y290724D01*
X480875Y291062D01*
X480000Y291177D01*
D02*
G37*
G36*
X377744Y278269D02*
Y274650D01*
X381364D01*
X381287Y275233D01*
X380869Y276242D01*
X380204Y277109D01*
X379337Y277774D01*
X378327Y278192D01*
X377744Y278269D01*
D02*
G37*
G36*
X376744Y278269D02*
X376161Y278192D01*
X375151Y277774D01*
X374285Y277109D01*
X373619Y276242D01*
X373201Y275233D01*
X373125Y274650D01*
X376744D01*
Y278269D01*
D02*
G37*
G36*
X420000Y281282D02*
X419125Y281166D01*
X418309Y280829D01*
X417609Y280291D01*
X417071Y279591D01*
X416734Y278775D01*
X416618Y277900D01*
X416734Y277025D01*
X417071Y276209D01*
X417609Y275509D01*
X418309Y274971D01*
X419125Y274634D01*
X420000Y274518D01*
X420875Y274634D01*
X421691Y274971D01*
X422391Y275509D01*
X422929Y276209D01*
X423266Y277025D01*
X423382Y277900D01*
X423266Y278775D01*
X422929Y279591D01*
X422391Y280291D01*
X421691Y280829D01*
X420875Y281166D01*
X420000Y281282D01*
D02*
G37*
G36*
X480000Y281177D02*
X479125Y281062D01*
X478309Y280724D01*
X477609Y280187D01*
X477071Y279486D01*
X476734Y278671D01*
X476618Y277795D01*
X476734Y276920D01*
X477071Y276104D01*
X477609Y275404D01*
X478309Y274867D01*
X479125Y274529D01*
X480000Y274414D01*
X480875Y274529D01*
X481691Y274867D01*
X482391Y275404D01*
X482929Y276104D01*
X483266Y276920D01*
X483382Y277795D01*
X483266Y278671D01*
X482929Y279486D01*
X482391Y280187D01*
X481691Y280724D01*
X480875Y281062D01*
X480000Y281177D01*
D02*
G37*
G36*
X387244Y277730D02*
X386317Y277608D01*
X385454Y277250D01*
X384713Y276681D01*
X384143Y275940D01*
X383786Y275076D01*
X383664Y274150D01*
X383786Y273223D01*
X384143Y272359D01*
X384713Y271618D01*
X385454Y271049D01*
X386317Y270691D01*
X387244Y270569D01*
X388171Y270691D01*
X389034Y271049D01*
X389776Y271618D01*
X390345Y272359D01*
X390702Y273223D01*
X390824Y274150D01*
X390702Y275076D01*
X390345Y275940D01*
X389776Y276681D01*
X389034Y277250D01*
X388171Y277608D01*
X387244Y277730D01*
D02*
G37*
G36*
X376744Y273650D02*
X373125D01*
X373201Y273066D01*
X373619Y272057D01*
X374285Y271190D01*
X375151Y270525D01*
X376161Y270107D01*
X376744Y270030D01*
Y273650D01*
D02*
G37*
G36*
X381364D02*
X377744D01*
Y270030D01*
X378327Y270107D01*
X379337Y270525D01*
X380204Y271190D01*
X380869Y272057D01*
X381287Y273066D01*
X381364Y273650D01*
D02*
G37*
G36*
X420000Y271282D02*
X419125Y271166D01*
X418309Y270829D01*
X417609Y270291D01*
X417071Y269591D01*
X416734Y268775D01*
X416618Y267900D01*
X416734Y267025D01*
X417071Y266209D01*
X417609Y265509D01*
X418309Y264971D01*
X419125Y264634D01*
X420000Y264518D01*
X420875Y264634D01*
X421691Y264971D01*
X422391Y265509D01*
X422929Y266209D01*
X423266Y267025D01*
X423382Y267900D01*
X423266Y268775D01*
X422929Y269591D01*
X422391Y270291D01*
X421691Y270829D01*
X420875Y271166D01*
X420000Y271282D01*
D02*
G37*
G36*
X480000Y271177D02*
X479125Y271062D01*
X478309Y270724D01*
X477609Y270186D01*
X477071Y269486D01*
X476734Y268671D01*
X476618Y267795D01*
X476734Y266920D01*
X477071Y266104D01*
X477609Y265404D01*
X478309Y264867D01*
X479125Y264529D01*
X480000Y264414D01*
X480875Y264529D01*
X481691Y264867D01*
X482391Y265404D01*
X482929Y266104D01*
X483266Y266920D01*
X483382Y267795D01*
X483266Y268671D01*
X482929Y269486D01*
X482391Y270186D01*
X481691Y270724D01*
X480875Y271062D01*
X480000Y271177D01*
D02*
G37*
G36*
X432000Y320720D02*
X431243Y320621D01*
X430538Y320328D01*
X429932Y319864D01*
X429467Y319258D01*
X429175Y318552D01*
X429075Y317795D01*
X429175Y317038D01*
X429467Y316333D01*
X429932Y315727D01*
X430538Y315262D01*
X431184Y314994D01*
Y261138D01*
X428762Y258716D01*
X423274D01*
X423266Y258775D01*
X422929Y259591D01*
X422391Y260291D01*
X421691Y260829D01*
X420875Y261166D01*
X420000Y261282D01*
X419125Y261166D01*
X418309Y260829D01*
X417609Y260291D01*
X417071Y259591D01*
X416734Y258775D01*
X416618Y257900D01*
X416734Y257025D01*
X417071Y256209D01*
X417609Y255509D01*
X418309Y254971D01*
X419125Y254634D01*
X420000Y254518D01*
X420875Y254634D01*
X421691Y254971D01*
X422391Y255509D01*
X422929Y256209D01*
X423266Y257025D01*
X423274Y257084D01*
X429100D01*
X429100Y257084D01*
X429412Y257146D01*
X429677Y257323D01*
X432577Y260223D01*
X432754Y260488D01*
X432816Y260800D01*
X432816Y260800D01*
Y314994D01*
X433462Y315262D01*
X434068Y315727D01*
X434533Y316333D01*
X434825Y317038D01*
X434925Y317795D01*
X434825Y318552D01*
X434533Y319258D01*
X434068Y319864D01*
X433462Y320328D01*
X432757Y320621D01*
X432000Y320720D01*
D02*
G37*
G36*
X480000Y261177D02*
X479125Y261062D01*
X478309Y260724D01*
X477609Y260187D01*
X477071Y259486D01*
X476734Y258670D01*
X476618Y257795D01*
X476734Y256920D01*
X477071Y256104D01*
X477609Y255404D01*
X478309Y254867D01*
X479125Y254529D01*
X480000Y254414D01*
X480875Y254529D01*
X481691Y254867D01*
X482391Y255404D01*
X482929Y256104D01*
X483266Y256920D01*
X483382Y257795D01*
X483266Y258670D01*
X482929Y259486D01*
X482391Y260187D01*
X481691Y260724D01*
X480875Y261062D01*
X480000Y261177D01*
D02*
G37*
G36*
X420000Y251282D02*
X419125Y251166D01*
X418309Y250829D01*
X417609Y250291D01*
X417071Y249591D01*
X416734Y248775D01*
X416618Y247900D01*
X416734Y247025D01*
X417071Y246209D01*
X417609Y245509D01*
X418309Y244971D01*
X419125Y244634D01*
X420000Y244518D01*
X420875Y244634D01*
X421691Y244971D01*
X422391Y245509D01*
X422929Y246209D01*
X423266Y247025D01*
X423382Y247900D01*
X423266Y248775D01*
X422929Y249591D01*
X422391Y250291D01*
X421691Y250829D01*
X420875Y251166D01*
X420000Y251282D01*
D02*
G37*
G36*
X480000Y251177D02*
X479125Y251062D01*
X478309Y250724D01*
X477609Y250186D01*
X477071Y249486D01*
X476734Y248671D01*
X476618Y247795D01*
X476734Y246920D01*
X477071Y246104D01*
X477609Y245404D01*
X478309Y244867D01*
X479125Y244529D01*
X480000Y244414D01*
X480875Y244529D01*
X481691Y244867D01*
X482391Y245404D01*
X482929Y246104D01*
X483266Y246920D01*
X483382Y247795D01*
X483266Y248671D01*
X482929Y249486D01*
X482391Y250186D01*
X481691Y250724D01*
X480875Y251062D01*
X480000Y251177D01*
D02*
G37*
G36*
Y241382D02*
X479125Y241266D01*
X478309Y240929D01*
X477609Y240391D01*
X477071Y239691D01*
X476734Y238875D01*
X476618Y238000D01*
X476734Y237125D01*
X477071Y236309D01*
X477609Y235609D01*
X478309Y235071D01*
X479125Y234734D01*
X480000Y234618D01*
X480875Y234734D01*
X481691Y235071D01*
X482391Y235609D01*
X482929Y236309D01*
X483266Y237125D01*
X483382Y238000D01*
X483266Y238875D01*
X482929Y239691D01*
X482391Y240391D01*
X481691Y240929D01*
X480875Y241266D01*
X480000Y241382D01*
D02*
G37*
G36*
X420000Y241282D02*
X419125Y241166D01*
X418309Y240829D01*
X417609Y240291D01*
X417071Y239591D01*
X416734Y238775D01*
X416618Y237900D01*
X416734Y237025D01*
X417071Y236209D01*
X417609Y235509D01*
X418309Y234971D01*
X419125Y234634D01*
X420000Y234518D01*
X420875Y234634D01*
X421691Y234971D01*
X422391Y235509D01*
X422929Y236209D01*
X423266Y237025D01*
X423382Y237900D01*
X423266Y238775D01*
X422929Y239591D01*
X422391Y240291D01*
X421691Y240829D01*
X420875Y241166D01*
X420000Y241282D01*
D02*
G37*
G36*
Y231282D02*
X419125Y231166D01*
X418309Y230829D01*
X417609Y230291D01*
X417071Y229591D01*
X416734Y228775D01*
X416618Y227900D01*
X416734Y227025D01*
X417071Y226209D01*
X417609Y225509D01*
X418309Y224971D01*
X419125Y224634D01*
X420000Y224518D01*
X420875Y224634D01*
X421691Y224971D01*
X422391Y225509D01*
X422929Y226209D01*
X423266Y227025D01*
X423382Y227900D01*
X423266Y228775D01*
X422929Y229591D01*
X422391Y230291D01*
X421691Y230829D01*
X420875Y231166D01*
X420000Y231282D01*
D02*
G37*
G36*
X483353Y231148D02*
X476647D01*
Y224443D01*
X483353D01*
Y231148D01*
D02*
G37*
G36*
X398674Y201165D02*
X398284Y201088D01*
X397530Y200584D01*
X397516Y200563D01*
X396823Y200426D01*
X396679Y200523D01*
X396024Y200653D01*
X395369Y200523D01*
X394813Y200151D01*
X394699Y199981D01*
X394199D01*
X394085Y200151D01*
X393530Y200523D01*
X392874Y200653D01*
X392219Y200523D01*
X391664Y200151D01*
X391549Y199981D01*
X391050D01*
X390936Y200151D01*
X390380Y200523D01*
X389725Y200653D01*
X389069Y200523D01*
X388514Y200151D01*
X388400Y199981D01*
X387900D01*
X387786Y200151D01*
X387230Y200523D01*
X386575Y200653D01*
X385920Y200523D01*
X385364Y200151D01*
X385250Y199981D01*
X384750D01*
X384636Y200151D01*
X384081Y200523D01*
X383425Y200653D01*
X382770Y200523D01*
X382215Y200151D01*
X382101Y199981D01*
X381601D01*
X381487Y200151D01*
X380931Y200523D01*
X380276Y200653D01*
X379621Y200523D01*
X379476Y200426D01*
X378784Y200563D01*
X378770Y200584D01*
X378016Y201088D01*
X377626Y201165D01*
Y198941D01*
X377126D01*
Y198441D01*
X374902D01*
X374979Y198051D01*
X375483Y197297D01*
X376237Y196793D01*
X377077Y196626D01*
X376989Y196185D01*
X377119Y195529D01*
X377490Y194974D01*
X378046Y194603D01*
X378701Y194472D01*
X379356Y194603D01*
X379912Y194974D01*
X380026Y195144D01*
X380526D01*
X380640Y194974D01*
X381195Y194603D01*
X381851Y194472D01*
X382506Y194603D01*
X383062Y194974D01*
X383175Y195144D01*
X383676D01*
X383789Y194974D01*
X384345Y194603D01*
X385000Y194472D01*
X385656Y194603D01*
X386211Y194974D01*
X386582Y195529D01*
X386713Y196185D01*
X386598Y196762D01*
X386593Y196856D01*
X386883Y197289D01*
X387230Y197358D01*
X387786Y197730D01*
X387900Y197900D01*
X388400D01*
X388514Y197730D01*
X389069Y197358D01*
X389416Y197289D01*
X389706Y196856D01*
X389702Y196762D01*
X389587Y196185D01*
X389717Y195529D01*
X390089Y194974D01*
X390644Y194603D01*
X391300Y194472D01*
X391955Y194603D01*
X392510Y194974D01*
X392624Y195144D01*
X393124D01*
X393238Y194974D01*
X393794Y194603D01*
X394449Y194472D01*
X395104Y194603D01*
X395660Y194974D01*
X395774Y195144D01*
X396274D01*
X396388Y194974D01*
X396943Y194603D01*
X397599Y194472D01*
X398254Y194603D01*
X398810Y194974D01*
X399181Y195529D01*
X399311Y196185D01*
X399223Y196626D01*
X400063Y196793D01*
X400817Y197297D01*
X401321Y198051D01*
X401398Y198441D01*
X399173D01*
Y198941D01*
X398674D01*
Y201165D01*
D02*
G37*
G36*
X399674D02*
Y199441D01*
X401398D01*
X401321Y199830D01*
X400817Y200584D01*
X400063Y201088D01*
X399674Y201165D01*
D02*
G37*
G36*
X376626D02*
X376237Y201088D01*
X375483Y200584D01*
X374979Y199830D01*
X374902Y199441D01*
X376626D01*
Y201165D01*
D02*
G37*
G36*
X457700Y198594D02*
Y193200D01*
X461683D01*
Y194176D01*
X461530Y195337D01*
X461083Y196418D01*
X460370Y197346D01*
X459442Y198059D01*
X458360Y198507D01*
X457700Y198594D01*
D02*
G37*
G36*
X456700Y198594D02*
X456040Y198507D01*
X454958Y198059D01*
X454030Y197346D01*
X453317Y196418D01*
X452870Y195337D01*
X452717Y194176D01*
Y193200D01*
X456700D01*
Y198594D01*
D02*
G37*
G36*
X384276Y214925D02*
X383519Y214825D01*
X382813Y214533D01*
X382208Y214068D01*
X381743Y213462D01*
X381451Y212757D01*
X381351Y212000D01*
X381451Y211243D01*
X381743Y210538D01*
X382208Y209932D01*
X382813Y209467D01*
X383519Y209175D01*
X384276Y209075D01*
X385033Y209175D01*
X385738Y209467D01*
X386344Y209932D01*
X386809Y210538D01*
X387077Y211184D01*
X415198D01*
X417184Y209198D01*
Y198801D01*
X416538Y198533D01*
X415932Y198068D01*
X415467Y197462D01*
X415175Y196757D01*
X415075Y196000D01*
X415175Y195243D01*
X415467Y194537D01*
X415932Y193932D01*
X416538Y193467D01*
X417243Y193175D01*
X418000Y193075D01*
X418757Y193175D01*
X419462Y193467D01*
X420068Y193932D01*
X420533Y194537D01*
X420825Y195243D01*
X420925Y196000D01*
X420825Y196757D01*
X420533Y197462D01*
X420068Y198068D01*
X419462Y198533D01*
X418816Y198801D01*
Y209535D01*
X418816Y209535D01*
X418754Y209848D01*
X418577Y210112D01*
X418577Y210112D01*
X416112Y212577D01*
X415848Y212754D01*
X415535Y212816D01*
X415535Y212816D01*
X387077D01*
X386809Y213462D01*
X386344Y214068D01*
X385738Y214533D01*
X385033Y214825D01*
X384276Y214925D01*
D02*
G37*
G36*
X404961Y198009D02*
X404037Y197825D01*
X403253Y197302D01*
X402730Y196518D01*
X402546Y195594D01*
Y193232D01*
X402730Y192308D01*
X403253Y191524D01*
X404037Y191001D01*
X404961Y190817D01*
X405885Y191001D01*
X406669Y191524D01*
X407192Y192308D01*
X407376Y193232D01*
Y195594D01*
X407192Y196518D01*
X406669Y197302D01*
X405885Y197825D01*
X404961Y198009D01*
D02*
G37*
G36*
X371339D02*
X370415Y197825D01*
X369631Y197302D01*
X369108Y196518D01*
X368924Y195594D01*
Y193232D01*
X369108Y192308D01*
X369631Y191524D01*
X370415Y191001D01*
X371339Y190817D01*
X372263Y191001D01*
X373046Y191524D01*
X373570Y192308D01*
X373754Y193232D01*
Y195594D01*
X373570Y196518D01*
X373046Y197302D01*
X372263Y197825D01*
X371339Y198009D01*
D02*
G37*
G36*
X496000Y198054D02*
X494996Y197922D01*
X494061Y197535D01*
X493258Y196919D01*
X492641Y196115D01*
X492254Y195180D01*
X492122Y194176D01*
Y191224D01*
X492254Y190220D01*
X492641Y189285D01*
X493258Y188481D01*
X494061Y187865D01*
X494996Y187478D01*
X496000Y187346D01*
X497004Y187478D01*
X497939Y187865D01*
X498742Y188481D01*
X499359Y189285D01*
X499746Y190220D01*
X499878Y191224D01*
Y194176D01*
X499746Y195180D01*
X499359Y196115D01*
X498742Y196919D01*
X497939Y197535D01*
X497004Y197922D01*
X496000Y198054D01*
D02*
G37*
G36*
X467200D02*
X466196Y197922D01*
X465261Y197535D01*
X464458Y196919D01*
X463841Y196115D01*
X463454Y195180D01*
X463322Y194176D01*
Y191224D01*
X463454Y190220D01*
X463841Y189285D01*
X464458Y188481D01*
X465261Y187865D01*
X466196Y187478D01*
X467200Y187346D01*
X468204Y187478D01*
X469139Y187865D01*
X469942Y188481D01*
X470559Y189285D01*
X470946Y190220D01*
X471078Y191224D01*
Y194176D01*
X470946Y195180D01*
X470559Y196115D01*
X469942Y196919D01*
X469139Y197535D01*
X468204Y197922D01*
X467200Y198054D01*
D02*
G37*
G36*
X447200D02*
X446196Y197922D01*
X445261Y197535D01*
X444458Y196919D01*
X443842Y196115D01*
X443454Y195180D01*
X443322Y194176D01*
Y191224D01*
X443454Y190220D01*
X443842Y189285D01*
X444458Y188481D01*
X445261Y187865D01*
X446196Y187478D01*
X447200Y187346D01*
X448204Y187478D01*
X449139Y187865D01*
X449942Y188481D01*
X450559Y189285D01*
X450946Y190220D01*
X451078Y191224D01*
Y194176D01*
X450946Y195180D01*
X450559Y196115D01*
X449942Y196919D01*
X449139Y197535D01*
X448204Y197922D01*
X447200Y198054D01*
D02*
G37*
G36*
X437200D02*
X436196Y197922D01*
X435261Y197535D01*
X434458Y196919D01*
X433842Y196115D01*
X433454Y195180D01*
X433322Y194176D01*
Y191224D01*
X433454Y190220D01*
X433842Y189285D01*
X434458Y188481D01*
X435261Y187865D01*
X436196Y187478D01*
X437200Y187346D01*
X438204Y187478D01*
X439139Y187865D01*
X439942Y188481D01*
X440558Y189285D01*
X440946Y190220D01*
X441078Y191224D01*
Y194176D01*
X440946Y195180D01*
X440558Y196115D01*
X439942Y196919D01*
X439139Y197535D01*
X438204Y197922D01*
X437200Y198054D01*
D02*
G37*
G36*
X461683Y192200D02*
X457700D01*
Y186806D01*
X458360Y186893D01*
X459442Y187341D01*
X460370Y188054D01*
X461083Y188982D01*
X461530Y190063D01*
X461683Y191224D01*
Y192200D01*
D02*
G37*
G36*
X456700D02*
X452717D01*
Y191224D01*
X452870Y190063D01*
X453317Y188982D01*
X454030Y188054D01*
X454958Y187341D01*
X456040Y186893D01*
X456700Y186806D01*
Y192200D01*
D02*
G37*
G36*
X404961Y179387D02*
X404037Y179203D01*
X403253Y178680D01*
X402730Y177896D01*
X402546Y176972D01*
Y174610D01*
X402730Y173686D01*
X403253Y172902D01*
X404037Y172379D01*
X404961Y172195D01*
X405885Y172379D01*
X406669Y172902D01*
X407192Y173686D01*
X407376Y174610D01*
Y176972D01*
X407192Y177896D01*
X406669Y178680D01*
X405885Y179203D01*
X404961Y179387D01*
D02*
G37*
G36*
X371339D02*
X370415Y179203D01*
X369631Y178680D01*
X369108Y177896D01*
X368924Y176972D01*
Y174610D01*
X369108Y173686D01*
X369631Y172902D01*
X370415Y172379D01*
X371339Y172195D01*
X372263Y172379D01*
X373046Y172902D01*
X373570Y173686D01*
X373754Y174610D01*
Y176972D01*
X373570Y177896D01*
X373046Y178680D01*
X372263Y179203D01*
X371339Y179387D01*
D02*
G37*
%LPD*%
D40*
X418000Y196000D02*
Y209535D01*
X415535Y212000D02*
X418000Y209535D01*
X384276Y212000D02*
X415535D01*
X514000Y424000D02*
X520000Y418000D01*
X457283Y381283D02*
X463724D01*
X472441Y390000D01*
X437200Y418000D02*
X454839D01*
X432000Y412800D02*
X437200Y418000D01*
X432000Y329900D02*
Y412800D01*
X420000Y317900D02*
X432000Y329900D01*
Y260800D02*
Y317795D01*
X429100Y257900D02*
X432000Y260800D01*
X420000Y257900D02*
X429100D01*
X420000Y317900D02*
X421900D01*
X422000Y173000D02*
X483000D01*
X477200Y178800D02*
Y192700D01*
Y178800D02*
X483000Y173000D01*
X512000D01*
X520000Y181000D01*
Y194700D01*
X506000Y192700D02*
X518000D01*
X520000Y194700D01*
Y379000D01*
Y418000D01*
X509000Y390000D02*
X520000Y379000D01*
X472441Y390000D02*
X509000D01*
X362000Y340000D02*
Y350000D01*
X395276Y333543D02*
Y345276D01*
Y333543D02*
X402819Y326000D01*
X495000Y235000D02*
Y246905D01*
Y275000D02*
X497000Y273000D01*
X510000D01*
X496000Y313000D02*
X510000D01*
X511000Y314000D01*
X510000Y273000D02*
X511000Y274000D01*
Y277795D01*
Y314000D02*
Y317795D01*
X495000Y255000D02*
X497000Y253000D01*
X495000Y287055D02*
Y295000D01*
Y306906D01*
X497000Y253000D02*
X510000D01*
X511000Y254000D01*
X495000Y295000D02*
X497000Y293000D01*
X495000Y306906D02*
Y314000D01*
Y326819D01*
Y235000D02*
X497000Y233000D01*
X511000Y254000D02*
Y257795D01*
X497000Y293000D02*
X510000D01*
X511000Y294000D01*
X510000Y233000D02*
X511000Y234000D01*
X495000Y255000D02*
Y267205D01*
X511000Y294000D02*
Y297795D01*
X497000Y233000D02*
X510000D01*
X511000Y234000D02*
Y237795D01*
X495000Y246905D02*
Y255000D01*
Y267205D02*
Y275000D01*
Y287055D01*
Y314000D02*
X496000Y313000D01*
D41*
X386575Y198941D02*
D03*
X389725D02*
D03*
X383425D02*
D03*
X392874D02*
D03*
X380276D02*
D03*
X396024D02*
D03*
X377126D02*
D03*
X399173D02*
D03*
X385000Y196185D02*
D03*
X391300D02*
D03*
X381851D02*
D03*
X394449D02*
D03*
X378701D02*
D03*
X397599D02*
D03*
X395575Y392736D02*
D03*
X392425D02*
D03*
X398725D02*
D03*
X389276D02*
D03*
X401874D02*
D03*
X386126D02*
D03*
X405024D02*
D03*
X382977D02*
D03*
X397150Y395492D02*
D03*
X390851D02*
D03*
X400300D02*
D03*
X387701D02*
D03*
X403449D02*
D03*
X384552D02*
D03*
D42*
X404961Y194413D02*
D03*
X371339D02*
D03*
X404961Y175791D02*
D03*
X371339D02*
D03*
X377189Y397264D02*
D03*
X410811D02*
D03*
X377189Y415886D02*
D03*
X410811D02*
D03*
D43*
X484000Y409903D02*
D03*
X514000D02*
D03*
X407000Y298000D02*
D03*
X377000D02*
D03*
Y288000D02*
D03*
X407000D02*
D03*
D44*
X480000Y227795D02*
D03*
X420000Y357900D02*
D03*
D45*
X480000Y238000D02*
D03*
Y247795D02*
D03*
Y257795D02*
D03*
Y267795D02*
D03*
Y277795D02*
D03*
Y287795D02*
D03*
Y297795D02*
D03*
Y307795D02*
D03*
Y317795D02*
D03*
Y327795D02*
D03*
Y337795D02*
D03*
Y347795D02*
D03*
Y357795D02*
D03*
X420000Y347900D02*
D03*
Y337900D02*
D03*
Y327900D02*
D03*
Y317900D02*
D03*
Y307900D02*
D03*
Y297900D02*
D03*
Y287900D02*
D03*
Y277900D02*
D03*
Y267900D02*
D03*
Y257900D02*
D03*
Y247900D02*
D03*
Y237900D02*
D03*
Y227900D02*
D03*
D46*
X506000Y192700D02*
D03*
X496000D02*
D03*
X457200D02*
D03*
X467200D02*
D03*
X477200D02*
D03*
X447200D02*
D03*
X437200D02*
D03*
D47*
X387000Y314461D02*
D03*
X377000D02*
D03*
X377244Y274150D02*
D03*
X387244D02*
D03*
D48*
X384276Y212000D02*
D03*
X422000Y173000D02*
D03*
X418000Y196000D02*
D03*
X514000Y424000D02*
D03*
X457283Y381283D02*
D03*
X454839Y418000D02*
D03*
X432000Y317795D02*
D03*
X362000Y340000D02*
D03*
Y350000D02*
D03*
X395276Y345276D02*
D03*
X402819Y326000D02*
D03*
D49*
X495000Y246905D02*
D03*
Y267205D02*
D03*
Y326819D02*
D03*
Y306906D02*
D03*
Y287055D02*
D03*
X511000Y317795D02*
D03*
Y297795D02*
D03*
Y277795D02*
D03*
Y237795D02*
D03*
Y257795D02*
D03*
M02*
